G04*
G04 #@! TF.GenerationSoftware,Altium Limited,CircuitMaker,2.3.0 (2.3.0.3)*
G04*
G04 Layer_Color=15132400*
%FSLAX25Y25*%
%MOIN*%
G70*
G04*
G04 #@! TF.SameCoordinates,16FC6845-B66D-4252-ADF8-C3080C0A7A4D*
G04*
G04*
G04 #@! TF.FilePolarity,Positive*
G04*
G01*
G75*
%ADD10C,0.01000*%
%ADD11C,0.02362*%
%ADD12C,0.00984*%
%ADD13C,0.00787*%
%ADD14C,0.00591*%
%ADD15C,0.00200*%
%ADD16C,0.00394*%
D10*
X193640Y127323D02*
G03*
X193640Y127323I-557J0D01*
G01*
X193157Y111122D02*
G03*
X193157Y111122I-440J0D01*
G01*
X100000Y202362D02*
G03*
X100000Y194488I0J-3937D01*
G01*
X213126Y109795D02*
X221126D01*
X213126D02*
Y115795D01*
X221126D01*
Y109795D02*
Y115795D01*
X229126D02*
Y119795D01*
X205126D02*
X229126D01*
X205126Y115795D02*
Y119795D01*
Y105795D02*
Y109795D01*
Y105795D02*
X229126D01*
Y109795D01*
X100000Y188583D02*
X103937D01*
X100000D02*
Y208268D01*
X103937D01*
X115748D02*
X119685D01*
X115748Y188583D02*
X119685D01*
Y208268D01*
X123607Y290007D02*
X121607D01*
X122607D01*
Y285009D01*
X121607Y284009D01*
X120608D01*
X119608Y285009D01*
X129605Y284009D02*
X125606D01*
X129605Y288007D01*
Y289007D01*
X128605Y290007D01*
X126606D01*
X125606Y289007D01*
X163899Y290991D02*
X167898D01*
X165899D01*
Y284993D01*
X173896D02*
X169897D01*
X173896Y288992D01*
Y289991D01*
X172896Y290991D01*
X170897D01*
X169897Y289991D01*
X206238Y290991D02*
X210236D01*
X208237D01*
Y284993D01*
X212236D02*
X214235D01*
X213235D01*
Y290991D01*
X212236Y289991D01*
X258465Y278196D02*
X256465D01*
X257465D01*
Y273198D01*
X256465Y272198D01*
X255466D01*
X254466Y273198D01*
X260464Y272198D02*
X262463D01*
X261464D01*
Y278196D01*
X260464Y277196D01*
D11*
X156693Y129134D02*
G03*
X156693Y129134I-1181J0D01*
G01*
D12*
X164567Y124902D02*
G03*
X164567Y124902I-492J0D01*
G01*
X123327Y241142D02*
G03*
X123327Y241142I-492J0D01*
G01*
D13*
X108091Y297150D02*
X110591D01*
X108091Y295650D02*
Y297150D01*
X140591D02*
X143091D01*
Y295650D02*
Y297150D01*
Y273650D02*
Y283150D01*
X108091Y273650D02*
Y283150D01*
X125197Y159449D02*
X159449D01*
X125197Y125197D02*
X159449D01*
X125197D02*
Y159449D01*
X159449Y125197D02*
Y159449D01*
X128150Y227756D02*
Y239961D01*
X126969Y227756D02*
Y239961D01*
Y227756D02*
X128150D01*
X126969Y239961D02*
X128150D01*
X240748Y262598D02*
X246982Y262598D01*
X240748Y283858D02*
Y316535D01*
Y262598D02*
Y266535D01*
Y316535D02*
X276181D01*
Y262598D02*
Y316535D01*
X269948Y262598D02*
X276181Y262598D01*
X101969Y179397D02*
X105249D01*
X105905Y180053D01*
Y181365D01*
X105249Y182021D01*
X101969D01*
Y185957D02*
X102625Y184645D01*
X103937Y183333D01*
X105249D01*
X105905Y183989D01*
Y185301D01*
X105249Y185957D01*
X104593D01*
X103937Y185301D01*
Y183333D01*
X124279Y224999D02*
Y221720D01*
X124935Y221064D01*
X126247D01*
X126903Y221720D01*
Y224999D01*
X130839D02*
X128215D01*
Y223031D01*
X129527Y223687D01*
X130183D01*
X130839Y223031D01*
Y221720D01*
X130183Y221064D01*
X128871D01*
X128215Y221720D01*
X139699Y144291D02*
Y141011D01*
X140355Y140355D01*
X141667D01*
X142323Y141011D01*
Y144291D01*
X143635Y140355D02*
X144947D01*
X144291D01*
Y144291D01*
X143635Y143635D01*
X276838Y147573D02*
X276182Y146917D01*
Y145605D01*
X276838Y144949D01*
X277494D01*
X278150Y145605D01*
Y146917D01*
X278806Y147573D01*
X279462D01*
X280118Y146917D01*
Y145605D01*
X279462Y144949D01*
X276182Y148885D02*
X280118D01*
X278806Y150197D01*
X280118Y151509D01*
X276182D01*
X280118Y155445D02*
Y152821D01*
X277494Y155445D01*
X276838D01*
X276182Y154789D01*
Y153477D01*
X276838Y152821D01*
X215158Y114107D02*
X214502Y114763D01*
X213190D01*
X212534Y114107D01*
Y113451D01*
X213190Y112795D01*
X214502D01*
X215158Y112139D01*
Y111483D01*
X214502Y110827D01*
X213190D01*
X212534Y111483D01*
X216470Y114763D02*
Y110827D01*
X217782Y112139D01*
X219094Y110827D01*
Y114763D01*
X220406Y110827D02*
X221718D01*
X221062D01*
Y114763D01*
X220406Y114107D01*
X221392Y128544D02*
Y132480D01*
X223360D01*
X224016Y131824D01*
Y130512D01*
X223360Y129856D01*
X221392D01*
X222704D02*
X224016Y128544D01*
X225328D02*
X226640D01*
X225984D01*
Y132480D01*
X225328Y131824D01*
X282086Y120342D02*
X278150D01*
Y122310D01*
X278806Y122966D01*
X280118D01*
X280774Y122310D01*
Y120342D01*
Y121654D02*
X282086Y122966D01*
Y126902D02*
Y124278D01*
X279462Y126902D01*
X278806D01*
X278150Y126246D01*
Y124934D01*
X278806Y124278D01*
X175131Y141667D02*
X172507D01*
X171851Y141011D01*
Y139699D01*
X172507Y139043D01*
X175131D01*
X175787Y139699D01*
Y141011D01*
X174475Y140355D02*
X175787Y141667D01*
Y141011D02*
X175131Y141667D01*
X175787Y145603D02*
Y142979D01*
X173163Y145603D01*
X172507D01*
X171851Y144947D01*
Y143635D01*
X172507Y142979D01*
X184646Y105578D02*
Y108202D01*
X183990Y108858D01*
X182678D01*
X182022Y108202D01*
Y105578D01*
X182678Y104922D01*
X183990D01*
X183334Y106234D02*
X184646Y104922D01*
X183990D02*
X184646Y105578D01*
X185958Y104922D02*
X187269D01*
X186614D01*
Y108858D01*
X185958Y108202D01*
X286024Y274212D02*
X283400D01*
Y272244D01*
X284712D01*
X283400D01*
Y270276D01*
X287335D02*
X288647D01*
X287991D01*
Y274212D01*
X287335Y273556D01*
X266667Y145275D02*
X264043D01*
Y143307D01*
X265355D01*
X264043D01*
Y141339D01*
X270603D02*
X267979D01*
X270603Y143963D01*
Y144619D01*
X269947Y145275D01*
X268635D01*
X267979Y144619D01*
X129856Y252558D02*
X127232D01*
Y250590D01*
X128544D01*
X127232D01*
Y248623D01*
X131168Y251903D02*
X131824Y252558D01*
X133136D01*
X133792Y251903D01*
Y251247D01*
X133136Y250590D01*
X132480D01*
X133136D01*
X133792Y249935D01*
Y249279D01*
X133136Y248623D01*
X131824D01*
X131168Y249279D01*
X208596Y131824D02*
X207940Y132480D01*
X206628D01*
X205972Y131824D01*
Y129200D01*
X206628Y128544D01*
X207940D01*
X208596Y129200D01*
X212532Y128544D02*
X209908D01*
X212532Y131168D01*
Y131824D01*
X211876Y132480D01*
X210564D01*
X209908Y131824D01*
X144948Y232547D02*
X144292Y231891D01*
Y230579D01*
X144948Y229923D01*
X147572D01*
X148228Y230579D01*
Y231891D01*
X147572Y232547D01*
X148228Y233859D02*
Y235171D01*
Y234515D01*
X144292D01*
X144948Y233859D01*
X144292Y237138D02*
Y239762D01*
X144948D01*
X147572Y237138D01*
X148228D01*
X112468Y218767D02*
X111812Y218111D01*
Y216799D01*
X112468Y216143D01*
X115091D01*
X115747Y216799D01*
Y218111D01*
X115091Y218767D01*
X115747Y220079D02*
Y221391D01*
Y220735D01*
X111812D01*
X112468Y220079D01*
X111812Y225983D02*
X112468Y224671D01*
X113779Y223359D01*
X115091D01*
X115747Y224015D01*
Y225327D01*
X115091Y225983D01*
X114436D01*
X113779Y225327D01*
Y223359D01*
X201050Y135762D02*
X200394Y135106D01*
Y133794D01*
X201050Y133138D01*
X203674D01*
X204330Y133794D01*
Y135106D01*
X203674Y135762D01*
X204330Y137074D02*
Y138385D01*
Y137730D01*
X200394D01*
X201050Y137074D01*
X204330Y140353D02*
Y141665D01*
Y141009D01*
X200394D01*
X201050Y140353D01*
X199082Y119029D02*
X198426Y118373D01*
Y117061D01*
X199082Y116405D01*
X201706D01*
X202362Y117061D01*
Y118373D01*
X201706Y119029D01*
X198426Y122965D02*
X199082Y121653D01*
X200394Y120341D01*
X201706D01*
X202362Y120997D01*
Y122309D01*
X201706Y122965D01*
X201050D01*
X200394Y122309D01*
Y120341D01*
X189239Y155446D02*
X188583Y154790D01*
Y153479D01*
X189239Y152823D01*
X191863D01*
X192519Y153479D01*
Y154790D01*
X191863Y155446D01*
Y156758D02*
X192519Y157414D01*
Y158726D01*
X191863Y159382D01*
X189239D01*
X188583Y158726D01*
Y157414D01*
X189239Y156758D01*
X189895D01*
X190551Y157414D01*
Y159382D01*
X172507Y153806D02*
X171851Y153151D01*
Y151839D01*
X172507Y151183D01*
X175131D01*
X175787Y151839D01*
Y153151D01*
X175131Y153806D01*
X175787Y155118D02*
Y156430D01*
Y155774D01*
X171851D01*
X172507Y155118D01*
Y158398D02*
X171851Y159054D01*
Y160366D01*
X172507Y161022D01*
X175131D01*
X175787Y160366D01*
Y159054D01*
X175131Y158398D01*
X172507D01*
X118045Y121981D02*
X117389Y122637D01*
X116077D01*
X115421Y121981D01*
Y119357D01*
X116077Y118701D01*
X117389D01*
X118045Y119357D01*
X119357Y121981D02*
X120013Y122637D01*
X121325D01*
X121981Y121981D01*
Y121325D01*
X121325Y120669D01*
X121981Y120013D01*
Y119357D01*
X121325Y118701D01*
X120013D01*
X119357Y119357D01*
Y120013D01*
X120013Y120669D01*
X119357Y121325D01*
Y121981D01*
X120013Y120669D02*
X121325D01*
X131424Y183380D02*
X130768Y184036D01*
X129456D01*
X128800Y183380D01*
Y180756D01*
X129456Y180100D01*
X130768D01*
X131424Y180756D01*
X132736Y184036D02*
X135360D01*
Y183380D01*
X132736Y180756D01*
Y180100D01*
X151509Y112139D02*
X150853Y112795D01*
X149541D01*
X148886Y112139D01*
Y109515D01*
X149541Y108859D01*
X150853D01*
X151509Y109515D01*
X155445Y112795D02*
X152821D01*
Y110827D01*
X154133Y111483D01*
X154789D01*
X155445Y110827D01*
Y109515D01*
X154789Y108859D01*
X153477D01*
X152821Y109515D01*
X105250Y138714D02*
X104594Y139369D01*
X103282D01*
X102626Y138714D01*
Y136090D01*
X103282Y135434D01*
X104594D01*
X105250Y136090D01*
X108529Y135434D02*
Y139369D01*
X106562Y137402D01*
X109185D01*
X153478Y186942D02*
X152822Y187598D01*
X151510D01*
X150854Y186942D01*
Y184318D01*
X151510Y183662D01*
X152822D01*
X153478Y184318D01*
X154790Y186942D02*
X155446Y187598D01*
X156758D01*
X157414Y186942D01*
Y186286D01*
X156758Y185630D01*
X156102D01*
X156758D01*
X157414Y184974D01*
Y184318D01*
X156758Y183662D01*
X155446D01*
X154790Y184318D01*
X146260Y175131D02*
X145604Y175787D01*
X144292D01*
X143636Y175131D01*
Y172507D01*
X144292Y171851D01*
X145604D01*
X146260Y172507D01*
X147572Y171851D02*
X148884D01*
X148228D01*
Y175787D01*
X147572Y175131D01*
D14*
X281764Y129035D02*
Y155413D01*
X281776D02*
X286910D01*
X281764Y129035D02*
X286910D01*
X297146Y142323D02*
X302264D01*
Y148228D01*
X297146D02*
X302264D01*
X286910Y155413D02*
X297146D01*
Y129035D02*
Y155413D01*
X286910Y129035D02*
X297146D01*
D15*
X177583Y147323D02*
X190583D01*
X177583Y127323D02*
X190583D01*
X177583D02*
Y128323D01*
Y136323D02*
Y138523D01*
Y146523D02*
Y147323D01*
X190583Y146523D02*
Y147323D01*
Y136323D02*
Y138523D01*
Y127323D02*
Y128323D01*
D16*
X178445Y110138D02*
Y125197D01*
X190847D01*
Y110138D02*
Y125197D01*
X178445Y110138D02*
X190847D01*
M02*
