G04*
G04 #@! TF.GenerationSoftware,Altium Limited,CircuitMaker,2.3.0 (2.3.0.3)*
G04*
G04 Layer_Physical_Order=1*
G04 Layer_Color=25308*
%FSLAX25Y25*%
%MOIN*%
G70*
G04*
G04 #@! TF.SameCoordinates,16FC6845-B66D-4252-ADF8-C3080C0A7A4D*
G04*
G04*
G04 #@! TF.FilePolarity,Positive*
G04*
G01*
G75*
%ADD10C,0.01000*%
%ADD17R,0.03740X0.03937*%
%ADD18R,0.03150X0.03543*%
%ADD19R,0.03937X0.02756*%
%ADD20R,0.01181X0.02756*%
%ADD21R,0.05905X0.02756*%
%ADD22R,0.03543X0.04134*%
%ADD23R,0.12402X0.07717*%
%ADD24R,0.03543X0.03347*%
%ADD25R,0.04724X0.03937*%
%ADD26R,0.05905X0.06693*%
%ADD27R,0.04331X0.05118*%
%ADD28R,0.03543X0.03150*%
%ADD29R,0.03937X0.03740*%
%ADD30O,0.00984X0.06102*%
%ADD31O,0.06102X0.00984*%
%ADD32R,0.03937X0.04134*%
%ADD33R,0.05118X0.02756*%
%ADD64C,0.09842*%
%ADD65C,0.11811*%
G04:AMPARAMS|DCode=66|XSize=82.68mil|YSize=43.31mil|CornerRadius=21.65mil|HoleSize=0mil|Usage=FLASHONLY|Rotation=270.000|XOffset=0mil|YOffset=0mil|HoleType=Round|Shape=RoundedRectangle|*
%AMROUNDEDRECTD66*
21,1,0.08268,0.00000,0,0,270.0*
21,1,0.03937,0.04331,0,0,270.0*
1,1,0.04331,0.00000,-0.01968*
1,1,0.04331,0.00000,0.01968*
1,1,0.04331,0.00000,0.01968*
1,1,0.04331,0.00000,-0.01968*
%
%ADD66ROUNDEDRECTD66*%
G04:AMPARAMS|DCode=67|XSize=102.36mil|YSize=43.31mil|CornerRadius=21.65mil|HoleSize=0mil|Usage=FLASHONLY|Rotation=270.000|XOffset=0mil|YOffset=0mil|HoleType=Round|Shape=RoundedRectangle|*
%AMROUNDEDRECTD67*
21,1,0.10236,0.00000,0,0,270.0*
21,1,0.05905,0.04331,0,0,270.0*
1,1,0.04331,0.00000,-0.02953*
1,1,0.04331,0.00000,0.02953*
1,1,0.04331,0.00000,0.02953*
1,1,0.04331,0.00000,-0.02953*
%
%ADD67ROUNDEDRECTD67*%
%ADD68C,0.03543*%
%ADD69C,0.06000*%
%ADD70O,0.07874X0.15748*%
%ADD71O,0.15748X0.07874*%
%ADD72O,0.17716X0.07874*%
%ADD73C,0.07874*%
%ADD74C,0.03150*%
%ADD75C,0.02362*%
%ADD76C,0.04331*%
%ADD77C,0.05000*%
%ADD78C,0.11811*%
G36*
X212818Y147540D02*
X214411Y147057D01*
X215879Y146273D01*
X217165Y145217D01*
X218221Y143930D01*
X219006Y142462D01*
X219489Y140869D01*
X219646Y139281D01*
X219632Y139213D01*
Y127673D01*
X218390D01*
Y121539D01*
X219725D01*
X219768Y120991D01*
X220191Y119231D01*
X220883Y117558D01*
X221829Y116015D01*
X222846Y114825D01*
X222615Y114325D01*
X221713D01*
X221644Y114311D01*
X220056Y114468D01*
X218463Y114951D01*
X216995Y115735D01*
X215709Y116791D01*
X214653Y118078D01*
X213868Y119546D01*
X213385Y121139D01*
X213353Y121464D01*
X213689Y121835D01*
X214287D01*
Y127378D01*
X204217D01*
Y125512D01*
X203901Y125381D01*
X203035Y124717D01*
X202604Y125016D01*
X202757Y125521D01*
X202919Y127165D01*
X202907D01*
Y135039D01*
X202909D01*
X202785Y136298D01*
X202418Y137509D01*
X201822Y138624D01*
X201019Y139602D01*
X200041Y140404D01*
X199228Y140839D01*
Y142634D01*
X196912D01*
X196849Y142715D01*
X196042Y143334D01*
X195103Y143723D01*
X194095Y143856D01*
Y143852D01*
X192535D01*
Y146669D01*
X184630D01*
Y137976D01*
X192535D01*
Y140794D01*
X193685D01*
Y137287D01*
Y132169D01*
X194269D01*
X194603Y131669D01*
X194231Y130772D01*
X193375Y129656D01*
X192984Y129356D01*
X192535Y129577D01*
Y136669D01*
X184630D01*
Y128996D01*
X184151Y128699D01*
X183874Y128847D01*
Y136669D01*
X175969D01*
Y133852D01*
X173615D01*
X173434Y134528D01*
X173071Y135157D01*
X172558Y135670D01*
X171930Y136033D01*
X171499Y136148D01*
X171345Y136702D01*
X175437Y140794D01*
X175969D01*
Y137976D01*
X183874D01*
Y146669D01*
X175969D01*
Y143852D01*
X174803D01*
X174218Y143736D01*
X173722Y143404D01*
X171931Y141613D01*
X171451Y141840D01*
X171523Y142578D01*
X171885Y143770D01*
X172472Y144869D01*
X173263Y145832D01*
X174225Y146622D01*
X175324Y147210D01*
X176516Y147571D01*
X177722Y147690D01*
X177756Y147683D01*
X211161D01*
X211230Y147697D01*
X212818Y147540D01*
D02*
G37*
G36*
X289767Y296466D02*
X291587Y295712D01*
X293225Y294618D01*
X294618Y293225D01*
X295712Y291587D01*
X296466Y289767D01*
X296850Y287835D01*
Y286850D01*
Y110000D01*
Y109015D01*
X296466Y107083D01*
X295712Y105263D01*
X294618Y103625D01*
X293225Y102233D01*
X291587Y101138D01*
X289767Y100384D01*
X287835Y100000D01*
X272065D01*
X272040Y100500D01*
X273097Y100604D01*
X274865Y101140D01*
X276493Y102011D01*
X277920Y103182D01*
X279092Y104609D01*
X279962Y106238D01*
X280498Y108005D01*
X280612Y109162D01*
X281117Y109187D01*
X281329Y108120D01*
X281774Y107045D01*
X282421Y106078D01*
X283243Y105255D01*
X284211Y104609D01*
X285285Y104164D01*
X286426Y103937D01*
X287590D01*
X288730Y104164D01*
X289805Y104609D01*
X290772Y105255D01*
X291595Y106078D01*
X292241Y107045D01*
X292686Y108120D01*
X292913Y109261D01*
Y110424D01*
X292686Y111565D01*
X292241Y112640D01*
X291595Y113607D01*
X290772Y114430D01*
X289805Y115076D01*
X288730Y115521D01*
X287590Y115748D01*
X286426D01*
X285285Y115521D01*
X284211Y115076D01*
X283243Y114430D01*
X282421Y113607D01*
X281774Y112640D01*
X281329Y111565D01*
X281163Y110730D01*
X280663Y110780D01*
Y116634D01*
X280647Y116714D01*
X280824Y118053D01*
X281372Y119376D01*
X282243Y120512D01*
X282902Y121018D01*
X283350Y120797D01*
Y120555D01*
X288559D01*
X288894Y120555D01*
X289394Y120555D01*
X290400D01*
Y120016D01*
X290237Y119922D01*
X289724Y119409D01*
X289361Y118780D01*
X289173Y118079D01*
Y117354D01*
X289361Y116653D01*
X289724Y116024D01*
X290237Y115511D01*
X290865Y115148D01*
X291566Y114961D01*
X292292D01*
X292993Y115148D01*
X293621Y115511D01*
X294134Y116024D01*
X294497Y116653D01*
X294685Y117354D01*
Y118079D01*
X294497Y118780D01*
X294134Y119409D01*
X293621Y119922D01*
X293459Y120016D01*
Y120555D01*
X294602D01*
Y126689D01*
X289394D01*
X289059Y126689D01*
X288559Y126689D01*
X283350D01*
Y126689D01*
X282850Y126573D01*
X282231Y127380D01*
X281783Y128463D01*
X281637Y129572D01*
X281647Y129626D01*
Y131087D01*
X289484D01*
Y133412D01*
X289946Y133603D01*
X290125Y133424D01*
X290978Y132932D01*
X291929Y132677D01*
X292914D01*
X293865Y132932D01*
X294718Y133424D01*
X295414Y134121D01*
X295906Y134974D01*
X296161Y135925D01*
Y136910D01*
X295906Y137861D01*
X295414Y138714D01*
X294718Y139410D01*
X293865Y139903D01*
X292914Y140157D01*
X291929D01*
X290978Y139903D01*
X290125Y139410D01*
X289428Y138714D01*
X288936Y137861D01*
X288681Y136910D01*
Y135925D01*
X288618Y135843D01*
X281647D01*
Y139862D01*
X281640Y139901D01*
X281768Y140871D01*
X282157Y141811D01*
X282776Y142618D01*
X283141Y142898D01*
X289484D01*
Y145223D01*
X289946Y145414D01*
X290125Y145236D01*
X290978Y144743D01*
X291929Y144488D01*
X292914D01*
X293865Y144743D01*
X294718Y145236D01*
X295414Y145932D01*
X295906Y146785D01*
X296161Y147736D01*
Y148721D01*
X295906Y149672D01*
X295414Y150525D01*
X294718Y151221D01*
X293865Y151714D01*
X292914Y151969D01*
X291929D01*
X290978Y151714D01*
X290125Y151221D01*
X289946Y151043D01*
X289484Y151234D01*
Y153559D01*
X281579D01*
Y151889D01*
X280024Y151058D01*
X278521Y149825D01*
X277288Y148323D01*
X276372Y146609D01*
X275808Y144749D01*
X275618Y142815D01*
X275636D01*
Y109843D01*
X275641Y109817D01*
X275529Y108962D01*
X275189Y108142D01*
X274648Y107438D01*
X273944Y106898D01*
X273124Y106558D01*
X272270Y106446D01*
X272244Y106451D01*
X242578D01*
X242520Y106527D01*
Y107253D01*
X242332Y107954D01*
X241969Y108582D01*
X241456Y109095D01*
X241293Y109189D01*
Y114606D01*
X241299D01*
X241157Y116411D01*
X240735Y118171D01*
X240042Y119843D01*
X239096Y121387D01*
X237921Y122763D01*
X236544Y123939D01*
X235001Y124885D01*
X233329Y125577D01*
X231568Y126000D01*
X229764Y126142D01*
X229642Y126591D01*
Y127673D01*
X224098D01*
Y127673D01*
X223933D01*
Y127673D01*
X222691D01*
Y139213D01*
X222697D01*
X222555Y141017D01*
X222132Y142777D01*
X221440Y144450D01*
X220494Y145993D01*
X219318Y147370D01*
X217942Y148545D01*
X216399Y149491D01*
X214726Y150184D01*
X212966Y150606D01*
X211161Y150748D01*
Y150742D01*
X187864D01*
X187417Y150870D01*
Y152014D01*
X187992D01*
Y152000D01*
X189309Y152173D01*
X190535Y152681D01*
X191589Y153490D01*
X192397Y154543D01*
X192906Y155770D01*
X193079Y157087D01*
X193065D01*
Y158071D01*
X193071D01*
X192928Y159523D01*
X192505Y160919D01*
X191817Y162205D01*
X190892Y163333D01*
X189764Y164258D01*
X188478Y164946D01*
X188201Y165030D01*
X188198Y165040D01*
X187835Y165668D01*
X187322Y166182D01*
X186694Y166544D01*
X185993Y166732D01*
X185267D01*
X184566Y166544D01*
X183938Y166182D01*
X183425Y165668D01*
X183062Y165040D01*
X182874Y164339D01*
Y163614D01*
X183062Y162913D01*
X183425Y162284D01*
X183874Y161835D01*
X183827Y161574D01*
X183694Y161335D01*
X182496D01*
Y161335D01*
X181254D01*
Y162008D01*
X181254D01*
X181135Y162913D01*
X180786Y163757D01*
X180512Y164114D01*
Y164339D01*
X180324Y165040D01*
X179961Y165668D01*
X179448Y166182D01*
X178820Y166544D01*
X178119Y166732D01*
X177393D01*
X176692Y166544D01*
X176064Y166182D01*
X175551Y165668D01*
X175188Y165040D01*
X175000Y164339D01*
Y163614D01*
X175188Y162913D01*
X175551Y162284D01*
X176064Y161771D01*
X176515Y161511D01*
X176524Y161506D01*
X176524Y161506D01*
X176692Y161408D01*
X176953Y161335D01*
X176953Y161335D01*
Y160109D01*
X176777Y160074D01*
X176281Y159743D01*
X172779Y156241D01*
X172331Y156463D01*
X172413Y157087D01*
X172396D01*
Y161677D01*
X172558Y161771D01*
X173071Y162284D01*
X173434Y162913D01*
X173622Y163614D01*
Y164339D01*
X173434Y165040D01*
X173071Y165668D01*
X172558Y166182D01*
X171930Y166544D01*
X171229Y166732D01*
X170503D01*
X169802Y166544D01*
X169174Y166182D01*
X168661Y165668D01*
X168298Y165040D01*
X168110Y164339D01*
Y163614D01*
X168298Y162913D01*
X168661Y162284D01*
X169174Y161771D01*
X169337Y161677D01*
Y161161D01*
X168888Y160940D01*
X168678Y161101D01*
X167835Y161450D01*
X166929Y161569D01*
Y161569D01*
X166640Y161622D01*
X166500Y161925D01*
X166448Y162155D01*
X166820Y162799D01*
X167027Y163575D01*
Y164378D01*
X166820Y165154D01*
X166418Y165850D01*
X165850Y166418D01*
X165154Y166820D01*
X164378Y167027D01*
X163575D01*
X162799Y166820D01*
X162103Y166418D01*
X161535Y165850D01*
X161133Y165154D01*
X160925Y164378D01*
Y163575D01*
X161133Y162799D01*
X161535Y162103D01*
X162103Y161535D01*
X162799Y161133D01*
X162890Y161109D01*
X163040Y160747D01*
X163753Y159816D01*
X164677Y159108D01*
X164680Y159086D01*
X164571Y158608D01*
X161516D01*
X160933Y158492D01*
X160440Y158162D01*
X160110Y157669D01*
X159994Y157087D01*
X160110Y156504D01*
X160379Y156102D01*
X160110Y155700D01*
X159994Y155118D01*
X160110Y154536D01*
X160379Y154134D01*
X160110Y153732D01*
X159994Y153150D01*
X160110Y152567D01*
X160379Y152165D01*
X160110Y151763D01*
X159994Y151181D01*
X160110Y150599D01*
X160379Y150197D01*
X160110Y149795D01*
X159994Y149213D01*
X160110Y148630D01*
X160379Y148228D01*
X160110Y147826D01*
X159994Y147244D01*
X160110Y146662D01*
X160379Y146260D01*
X160110Y145858D01*
X159994Y145276D01*
X160110Y144693D01*
X160379Y144291D01*
X160110Y143889D01*
X159994Y143307D01*
X160110Y142725D01*
X160379Y142323D01*
X160110Y141921D01*
X159994Y141339D01*
X160110Y140756D01*
X160379Y140354D01*
X160110Y139952D01*
X159994Y139370D01*
X160110Y138788D01*
X160379Y138386D01*
X160110Y137984D01*
X159994Y137402D01*
X160110Y136819D01*
X160379Y136417D01*
X160110Y136015D01*
X159994Y135433D01*
X160110Y134851D01*
X160379Y134449D01*
X160110Y134047D01*
X159994Y133465D01*
X160110Y132882D01*
X160379Y132480D01*
X160110Y132078D01*
X159994Y131496D01*
X160110Y130914D01*
X160379Y130512D01*
X160110Y130110D01*
X159994Y129527D01*
X160110Y128945D01*
X160379Y128543D01*
X160110Y128141D01*
X159994Y127559D01*
X160110Y126977D01*
X160440Y126483D01*
X160933Y126154D01*
X161516Y126038D01*
X164034D01*
X164075Y126030D01*
X166929D01*
X166995Y126043D01*
X167860Y125871D01*
X168650Y125343D01*
X169178Y124553D01*
X169350Y123688D01*
X169337Y123622D01*
Y108546D01*
X168993Y108347D01*
X168425Y107779D01*
X168331Y107616D01*
X167690Y107882D01*
X167043Y108378D01*
Y113598D01*
X165971D01*
X165840Y114930D01*
X165332Y116604D01*
X164507Y118147D01*
X163398Y119500D01*
X162045Y120610D01*
X160502Y121434D01*
X158828Y121942D01*
X158608Y121964D01*
Y123130D01*
X158492Y123712D01*
X158162Y124206D01*
X157669Y124535D01*
X157087Y124651D01*
X156504Y124535D01*
X156102Y124267D01*
X155700Y124535D01*
X155118Y124651D01*
X154536Y124535D01*
X154134Y124267D01*
X153732Y124535D01*
X153150Y124651D01*
X152567Y124535D01*
X152165Y124267D01*
X151763Y124535D01*
X151181Y124651D01*
X150599Y124535D01*
X150197Y124267D01*
X149795Y124535D01*
X149213Y124651D01*
X148630Y124535D01*
X148228Y124267D01*
X147826Y124535D01*
X147244Y124651D01*
X146662Y124535D01*
X146260Y124267D01*
X145858Y124535D01*
X145276Y124651D01*
X144693Y124535D01*
X144291Y124267D01*
X143889Y124535D01*
X143307Y124651D01*
X142725Y124535D01*
X142323Y124267D01*
X141921Y124535D01*
X141339Y124651D01*
X140756Y124535D01*
X140354Y124267D01*
X139952Y124535D01*
X139370Y124651D01*
X138788Y124535D01*
X138386Y124267D01*
X137984Y124535D01*
X137402Y124651D01*
X136819Y124535D01*
X136417Y124267D01*
X136015Y124535D01*
X135433Y124651D01*
X134851Y124535D01*
X134449Y124267D01*
X134047Y124535D01*
X133465Y124651D01*
X132882Y124535D01*
X132480Y124267D01*
X132078Y124535D01*
X131496Y124651D01*
X130914Y124535D01*
X130512Y124267D01*
X130110Y124535D01*
X129528Y124651D01*
X128945Y124535D01*
X128543Y124267D01*
X128141Y124535D01*
X127559Y124651D01*
X126977Y124535D01*
X126483Y124206D01*
X126154Y123712D01*
X126038Y123130D01*
Y118012D01*
X126154Y117430D01*
X126483Y116936D01*
X126977Y116606D01*
X127559Y116490D01*
X128141Y116606D01*
X128543Y116875D01*
X128945Y116606D01*
X129528Y116490D01*
X130110Y116606D01*
X130512Y116875D01*
X130914Y116606D01*
X131496Y116490D01*
X132078Y116606D01*
X132480Y116875D01*
X132882Y116606D01*
X133465Y116490D01*
X134047Y116606D01*
X134449Y116875D01*
X134851Y116606D01*
X135433Y116490D01*
X136015Y116606D01*
X136417Y116875D01*
X136819Y116606D01*
X137402Y116490D01*
X137984Y116606D01*
X138386Y116875D01*
X138788Y116606D01*
X139370Y116490D01*
X139952Y116606D01*
X140354Y116875D01*
X140756Y116606D01*
X141339Y116490D01*
X141921Y116606D01*
X142323Y116875D01*
X142725Y116606D01*
X143307Y116490D01*
X143889Y116606D01*
X144291Y116875D01*
X144693Y116606D01*
X145276Y116490D01*
X145858Y116606D01*
X146260Y116875D01*
X146662Y116606D01*
X147244Y116490D01*
X147297Y116501D01*
X147683Y116184D01*
Y111969D01*
X147677D01*
X147819Y110164D01*
X148242Y108404D01*
X148934Y106731D01*
X149880Y105188D01*
X151056Y103812D01*
X152432Y102636D01*
X153976Y101690D01*
X155648Y100997D01*
X157408Y100575D01*
X158361Y100500D01*
X158341Y100000D01*
X109015D01*
X107083Y100384D01*
X105263Y101138D01*
X103625Y102233D01*
X102233Y103625D01*
X101138Y105263D01*
X100384Y107083D01*
X100000Y109015D01*
Y110000D01*
Y129528D01*
Y286850D01*
Y287835D01*
X100384Y289767D01*
X101138Y291587D01*
X102233Y293225D01*
X103625Y294618D01*
X105263Y295712D01*
X107083Y296466D01*
X109015Y296850D01*
X287835D01*
X289767Y296466D01*
D02*
G37*
G36*
X172008Y130793D02*
X175969D01*
Y127976D01*
X179860D01*
X180519Y127173D01*
X181623Y126267D01*
X182292Y125909D01*
X182167Y125409D01*
X178232D01*
Y124047D01*
X177732Y123840D01*
X171345Y130227D01*
X171499Y130781D01*
X171742Y130846D01*
X172008Y130793D01*
D02*
G37*
G36*
X199802Y135455D02*
X199854Y135065D01*
X199849Y135039D01*
Y127165D01*
X199864Y127088D01*
X199690Y125771D01*
X199153Y124472D01*
X198297Y123357D01*
X197567Y122797D01*
X197260Y122949D01*
Y122949D01*
X194481D01*
X194464Y122961D01*
X193716Y123271D01*
X192956Y123371D01*
X192913Y123380D01*
X191059D01*
Y125181D01*
X191212Y125196D01*
X192793Y125676D01*
X194251Y126455D01*
X195528Y127503D01*
X196576Y128781D01*
X197356Y130238D01*
X197835Y131820D01*
X197870Y132169D01*
X199228D01*
Y135251D01*
X199728Y135508D01*
X199802Y135455D01*
D02*
G37*
G36*
X231420Y122934D02*
X233013Y122451D01*
X234481Y121666D01*
X235768Y120610D01*
X236824Y119324D01*
X237608Y117856D01*
X238091Y116263D01*
X238248Y114674D01*
X238234Y114606D01*
Y109189D01*
X238072Y109095D01*
X237559Y108582D01*
X237196Y107954D01*
X237008Y107253D01*
Y106527D01*
X237196Y105826D01*
X237559Y105198D01*
X238072Y104684D01*
X238700Y104322D01*
X239328Y104153D01*
X239446Y104059D01*
X239483Y103998D01*
X239202Y103498D01*
X173427D01*
X173235Y103960D01*
X173308Y104032D01*
X173336Y104081D01*
X173721Y104361D01*
X175520Y104538D01*
X177249Y105063D01*
X178844Y105915D01*
X180241Y107062D01*
X181388Y108459D01*
X181557Y108777D01*
X182048Y108874D01*
X182647Y108382D01*
X183729Y107804D01*
X184902Y107448D01*
X186122Y107328D01*
Y107329D01*
X188189D01*
Y107320D01*
X189718Y107471D01*
X191188Y107917D01*
X192543Y108641D01*
X193730Y109616D01*
X194705Y110803D01*
X195429Y112158D01*
X195528Y112484D01*
X196896D01*
Y111221D01*
X196877D01*
X197070Y109750D01*
X197638Y108379D01*
X198541Y107202D01*
X199718Y106299D01*
X199942Y106207D01*
X199991Y106023D01*
X200354Y105394D01*
X200867Y104881D01*
X201495Y104518D01*
X202196Y104331D01*
X202922D01*
X203623Y104518D01*
X204251Y104881D01*
X204764Y105394D01*
X205127Y106023D01*
X205315Y106724D01*
Y107449D01*
X205127Y108150D01*
X204764Y108779D01*
X204251Y109292D01*
X204191Y109327D01*
X204278Y109827D01*
X205921D01*
Y115764D01*
X204088D01*
Y120374D01*
X204087Y120382D01*
X204178Y121074D01*
X204448Y121727D01*
X204531Y121835D01*
X210253D01*
X210319Y120991D01*
X210742Y119231D01*
X211434Y117558D01*
X212380Y116015D01*
X213556Y114638D01*
X214932Y113463D01*
X216476Y112517D01*
X218148Y111824D01*
X219908Y111402D01*
X221713Y111260D01*
Y111266D01*
X228331D01*
Y109827D01*
X235055D01*
Y115764D01*
X228331D01*
Y115243D01*
X228141Y115102D01*
X227831Y114994D01*
X226444Y115735D01*
X225157Y116791D01*
X224101Y118078D01*
X223317Y119546D01*
X222864Y121039D01*
X223031Y121390D01*
X223166Y121539D01*
X223933D01*
Y121539D01*
X224098D01*
Y121539D01*
X229642D01*
Y122668D01*
X230142Y123060D01*
X231420Y122934D01*
D02*
G37*
G36*
X152567Y116606D02*
X153150Y116490D01*
X153202Y116501D01*
X153589Y116184D01*
Y115256D01*
X153590Y115249D01*
X153704Y114094D01*
X154043Y112976D01*
X154594Y111946D01*
X155334Y111043D01*
X156237Y110302D01*
X156972Y109909D01*
Y108055D01*
X158050D01*
X158162Y107204D01*
X158610Y106121D01*
X159324Y105190D01*
X159806Y104821D01*
X159932Y104350D01*
X160135Y103998D01*
X159846Y103498D01*
X159213D01*
X159144Y103484D01*
X157556Y103641D01*
X155963Y104124D01*
X154495Y104909D01*
X153209Y105965D01*
X152153Y107251D01*
X151368Y108719D01*
X150885Y110312D01*
X150728Y111900D01*
X150742Y111969D01*
Y116184D01*
X151128Y116501D01*
X151181Y116490D01*
X151763Y116606D01*
X152165Y116875D01*
X152567Y116606D01*
D02*
G37*
G36*
X176478Y120769D02*
X176974Y120437D01*
X177559Y120321D01*
X178232D01*
Y118291D01*
X184563D01*
X184563Y118291D01*
X184728D01*
Y118291D01*
X185063Y118291D01*
X191059D01*
Y120321D01*
X191717D01*
Y117602D01*
Y112484D01*
X191717D01*
X191876Y112161D01*
X191576Y111770D01*
X191507Y111718D01*
X191059Y111939D01*
Y117142D01*
X184728D01*
X184728Y117142D01*
X184563D01*
Y117142D01*
X184228Y117142D01*
X178232D01*
Y110024D01*
X178232D01*
X178413Y109642D01*
X178074Y109229D01*
X177141Y108464D01*
X176077Y107895D01*
X174922Y107544D01*
X173751Y107429D01*
X173721Y107435D01*
X173506D01*
X173308Y107779D01*
X172740Y108347D01*
X172396Y108546D01*
Y123622D01*
X172413D01*
X172331Y124246D01*
X172779Y124467D01*
X176478Y120769D01*
D02*
G37*
%LPC*%
G36*
X142598Y295594D02*
X141772Y295485D01*
X141002Y295166D01*
X140341Y294659D01*
X139833Y293998D01*
X139515Y293228D01*
X139406Y292402D01*
Y286496D01*
X139515Y285670D01*
X139833Y284900D01*
X140341Y284239D01*
X141002Y283731D01*
X141772Y283412D01*
X142598Y283303D01*
X143425Y283412D01*
X144195Y283731D01*
X144856Y284239D01*
X145363Y284900D01*
X145682Y285670D01*
X145791Y286496D01*
Y292402D01*
X145682Y293228D01*
X145363Y293998D01*
X144856Y294659D01*
X144195Y295166D01*
X143425Y295485D01*
X142598Y295594D01*
D02*
G37*
G36*
X108583D02*
X107756Y295485D01*
X106986Y295166D01*
X106325Y294659D01*
X105818Y293998D01*
X105499Y293228D01*
X105390Y292402D01*
Y286496D01*
X105499Y285670D01*
X105818Y284900D01*
X106325Y284239D01*
X106986Y283731D01*
X107756Y283412D01*
X108583Y283303D01*
X109409Y283412D01*
X110179Y283731D01*
X110840Y284239D01*
X111348Y284900D01*
X111667Y285670D01*
X111775Y286496D01*
Y292402D01*
X111667Y293228D01*
X111348Y293998D01*
X110840Y294659D01*
X110179Y295166D01*
X109409Y295485D01*
X108583Y295594D01*
D02*
G37*
G36*
X262402Y291987D02*
X254528D01*
X253239Y291818D01*
X252038Y291320D01*
X251006Y290529D01*
X250215Y289498D01*
X249718Y288297D01*
X249548Y287008D01*
X249718Y285719D01*
X250215Y284518D01*
X251006Y283487D01*
X252038Y282695D01*
X253239Y282198D01*
X254528Y282028D01*
X262402D01*
X263690Y282198D01*
X264891Y282695D01*
X265923Y283487D01*
X266714Y284518D01*
X267212Y285719D01*
X267381Y287008D01*
X267212Y288297D01*
X266714Y289498D01*
X265923Y290529D01*
X264891Y291320D01*
X263690Y291818D01*
X262402Y291987D01*
D02*
G37*
G36*
X287590Y292913D02*
X286426D01*
X285285Y292686D01*
X284211Y292241D01*
X283243Y291595D01*
X282421Y290772D01*
X281774Y289805D01*
X281329Y288730D01*
X281102Y287590D01*
Y286426D01*
X281329Y285285D01*
X281774Y284211D01*
X282421Y283243D01*
X283243Y282421D01*
X284211Y281774D01*
X285285Y281329D01*
X286426Y281102D01*
X287590D01*
X288730Y281329D01*
X289805Y281774D01*
X290772Y282421D01*
X291595Y283243D01*
X292241Y284211D01*
X292686Y285285D01*
X292913Y286426D01*
Y287590D01*
X292686Y288730D01*
X292241Y289805D01*
X291595Y290772D01*
X290772Y291595D01*
X289805Y292241D01*
X288730Y292686D01*
X287590Y292913D01*
D02*
G37*
G36*
X127559Y282632D02*
X120669D01*
X120084Y282515D01*
X119588Y282184D01*
X117619Y280215D01*
X117288Y279719D01*
X117171Y279134D01*
Y276181D01*
X117288Y275596D01*
X117619Y275100D01*
X118029Y274690D01*
X117837Y274228D01*
X110417D01*
Y273495D01*
X109917Y273188D01*
X109409Y273399D01*
X108583Y273508D01*
X107756Y273399D01*
X106986Y273080D01*
X106325Y272572D01*
X105818Y271911D01*
X105499Y271141D01*
X105390Y270315D01*
Y266378D01*
X105499Y265552D01*
X105818Y264782D01*
X106325Y264120D01*
X106986Y263613D01*
X107756Y263294D01*
X108583Y263185D01*
X109409Y263294D01*
X110179Y263613D01*
X110840Y264120D01*
X111348Y264782D01*
X111667Y265552D01*
X111689Y265722D01*
X112189Y265689D01*
Y264354D01*
X118156D01*
Y256496D01*
X118147D01*
X118300Y255334D01*
X118748Y254251D01*
X119462Y253320D01*
X119669Y253161D01*
Y250476D01*
Y244571D01*
X121305D01*
Y243671D01*
X120876Y243414D01*
X120261Y243742D01*
X119014Y244121D01*
X117717Y244249D01*
Y244246D01*
X113001D01*
X112643Y244866D01*
X111992Y245517D01*
X111194Y245978D01*
X110303Y246217D01*
X109382D01*
X108492Y245978D01*
X107694Y245517D01*
X107042Y244866D01*
X106581Y244068D01*
X106342Y243177D01*
Y242256D01*
X106581Y241366D01*
X107042Y240567D01*
X107694Y239916D01*
X108492Y239455D01*
X109382Y239216D01*
X110303D01*
X111194Y239455D01*
X111992Y239916D01*
X112643Y240567D01*
X113001Y241187D01*
X117717D01*
X117747Y241193D01*
X118648Y241075D01*
X119516Y240715D01*
X119827Y240476D01*
X119658Y239976D01*
X119276D01*
Y239128D01*
X115945D01*
Y239130D01*
X114988Y239004D01*
X114096Y238635D01*
X113408Y238106D01*
X111008D01*
Y232760D01*
Y231416D01*
X110947Y231397D01*
X109934Y230856D01*
X109046Y230127D01*
X108317Y229239D01*
X108241Y229096D01*
X107636Y228934D01*
X106915Y228517D01*
X106325Y227928D01*
X105909Y227206D01*
X105693Y226401D01*
Y225568D01*
X105909Y224763D01*
X106325Y224041D01*
X106915Y223451D01*
X107636Y223035D01*
X108441Y222819D01*
X109275D01*
X110080Y223035D01*
X110802Y223451D01*
X111391Y224041D01*
X111808Y224763D01*
X112024Y225568D01*
Y226401D01*
X111825Y227142D01*
X111985Y227518D01*
X112056Y227642D01*
X112796D01*
X113401Y226511D01*
X114252Y225473D01*
X115290Y224621D01*
X116474Y223988D01*
X117759Y223599D01*
X119095Y223467D01*
Y223471D01*
X133071D01*
Y223456D01*
X134870Y223633D01*
X136600Y224158D01*
X138194Y225010D01*
X139592Y226157D01*
X140739Y227554D01*
X141591Y229148D01*
X141850Y230004D01*
X143520D01*
X143746Y229598D01*
Y214331D01*
X143760Y214263D01*
X143603Y212674D01*
X143120Y211081D01*
X142335Y209613D01*
X141280Y208327D01*
X139993Y207271D01*
X138525Y206486D01*
X136932Y206003D01*
X135344Y205847D01*
X135276Y205860D01*
X133284D01*
X133045Y206274D01*
X132455Y206864D01*
X131734Y207280D01*
X130929Y207496D01*
X130095D01*
X129290Y207280D01*
X128568Y206864D01*
X127979Y206274D01*
X127562Y205553D01*
X127347Y204747D01*
Y203914D01*
X127562Y203109D01*
X127979Y202387D01*
X128568Y201798D01*
X129290Y201381D01*
X130095Y201165D01*
X130929D01*
X131734Y201381D01*
X132455Y201798D01*
X133045Y202387D01*
X133284Y202801D01*
X135276D01*
Y202795D01*
X137080Y202937D01*
X138840Y203360D01*
X140513Y204052D01*
X142056Y204998D01*
X143432Y206174D01*
X144608Y207550D01*
X145554Y209094D01*
X146247Y210766D01*
X146669Y212526D01*
X146811Y214331D01*
X146805D01*
Y238779D01*
X146814D01*
X146759Y239194D01*
X147233Y239428D01*
X154057Y232604D01*
Y210507D01*
X107261Y163711D01*
X106930Y163215D01*
X106813Y162629D01*
Y137765D01*
X106930Y137179D01*
X107261Y136683D01*
X111561Y132383D01*
X112057Y132052D01*
X112643Y131935D01*
X116184D01*
X116501Y131549D01*
X116490Y131496D01*
X116501Y131443D01*
X116184Y131057D01*
X113583D01*
X113565Y131053D01*
X112729Y130943D01*
X111962Y130626D01*
X108843D01*
Y130073D01*
X108677Y129642D01*
X107435D01*
Y130181D01*
X107598Y130275D01*
X108111Y130788D01*
X108474Y131417D01*
X108661Y132117D01*
Y132843D01*
X108474Y133544D01*
X108111Y134172D01*
X107598Y134686D01*
X106969Y135048D01*
X106268Y135236D01*
X105543D01*
X104842Y135048D01*
X104213Y134686D01*
X103700Y134172D01*
X103337Y133544D01*
X103150Y132843D01*
Y132117D01*
X103337Y131417D01*
X103700Y130788D01*
X104213Y130275D01*
X104376Y130181D01*
Y129642D01*
X103134D01*
Y124492D01*
Y119571D01*
X108677D01*
X108843Y119139D01*
Y118587D01*
X114779D01*
Y118812D01*
X115208Y119069D01*
X115891Y118704D01*
X117004Y117791D01*
X117917Y116678D01*
X118596Y115409D01*
X119014Y114031D01*
X119150Y112648D01*
X119140Y112598D01*
Y110173D01*
X118977Y110079D01*
X118464Y109566D01*
X118101Y108938D01*
X117913Y108237D01*
Y107511D01*
X118101Y106810D01*
X118464Y106182D01*
X118977Y105669D01*
X119606Y105306D01*
X120307Y105118D01*
X121032D01*
X121733Y105306D01*
X122361Y105669D01*
X122875Y106182D01*
X123237Y106810D01*
X123425Y107511D01*
Y108237D01*
X123237Y108938D01*
X122875Y109566D01*
X122361Y110079D01*
X122199Y110173D01*
Y112598D01*
X122201D01*
X122073Y114224D01*
X121693Y115809D01*
X121069Y117315D01*
X120217Y118706D01*
X119158Y119946D01*
X117918Y121004D01*
X117394Y121326D01*
X117303Y121817D01*
X117644Y122261D01*
X118113Y123392D01*
X118272Y124606D01*
X118272D01*
X118348Y125075D01*
X118364Y125154D01*
X118674Y125618D01*
X119138Y125928D01*
X119668Y126033D01*
X119685Y126030D01*
X120571D01*
X120611Y126038D01*
X123130D01*
X123712Y126154D01*
X124206Y126483D01*
X124536Y126977D01*
X124651Y127559D01*
X124536Y128141D01*
X124267Y128543D01*
X124536Y128945D01*
X124651Y129527D01*
X124536Y130110D01*
X124267Y130512D01*
X124536Y130914D01*
X124651Y131496D01*
X124536Y132078D01*
X124267Y132480D01*
X124536Y132882D01*
X124651Y133465D01*
X124536Y134047D01*
X124267Y134449D01*
X124536Y134851D01*
X124651Y135433D01*
X124536Y136015D01*
X124267Y136417D01*
X124536Y136819D01*
X124651Y137402D01*
X124536Y137984D01*
X124267Y138386D01*
X124536Y138788D01*
X124651Y139370D01*
X124536Y139952D01*
X124267Y140354D01*
X124536Y140756D01*
X124651Y141339D01*
X124536Y141921D01*
X124267Y142323D01*
X124536Y142725D01*
X124651Y143307D01*
X124536Y143889D01*
X124267Y144291D01*
X124536Y144693D01*
X124651Y145276D01*
X124536Y145858D01*
X124267Y146260D01*
X124536Y146662D01*
X124651Y147244D01*
X124536Y147826D01*
X124267Y148228D01*
X124536Y148630D01*
X124651Y149213D01*
X124536Y149795D01*
X124267Y150197D01*
X124536Y150599D01*
X124651Y151181D01*
X124536Y151763D01*
X124267Y152165D01*
X124536Y152567D01*
X124651Y153150D01*
X124536Y153732D01*
X124267Y154134D01*
X124536Y154536D01*
X124651Y155118D01*
X124536Y155700D01*
X124267Y156102D01*
X124536Y156504D01*
X124651Y157087D01*
X124536Y157669D01*
X124206Y158162D01*
X123712Y158492D01*
X123130Y158608D01*
X118012D01*
X117430Y158492D01*
X116936Y158162D01*
X116606Y157669D01*
X116490Y157087D01*
X116606Y156504D01*
X116875Y156102D01*
X116606Y155700D01*
X116490Y155118D01*
X116606Y154536D01*
X116875Y154134D01*
X116606Y153732D01*
X116490Y153150D01*
X116606Y152567D01*
X116875Y152165D01*
X116606Y151763D01*
X116490Y151181D01*
X116606Y150599D01*
X116875Y150197D01*
X116606Y149795D01*
X116490Y149213D01*
X116606Y148630D01*
X116875Y148228D01*
X116606Y147826D01*
X116490Y147244D01*
X116606Y146662D01*
X116875Y146260D01*
X116606Y145858D01*
X116490Y145276D01*
X116606Y144693D01*
X116875Y144291D01*
X116606Y143889D01*
X116490Y143307D01*
X116606Y142725D01*
X116875Y142323D01*
X116606Y141921D01*
X116490Y141339D01*
X116606Y140756D01*
X116875Y140354D01*
X116606Y139952D01*
X116490Y139370D01*
X116606Y138788D01*
X116875Y138386D01*
X116606Y137984D01*
X116490Y137402D01*
X116501Y137349D01*
X116184Y136962D01*
X113429D01*
X111372Y139019D01*
Y161374D01*
X126983Y176985D01*
X127445Y176794D01*
Y175359D01*
X127195Y175167D01*
X126560Y174340D01*
X126161Y173376D01*
X126025Y172343D01*
X126030D01*
Y164075D01*
X126038Y164034D01*
Y161516D01*
X126154Y160933D01*
X126483Y160440D01*
X126977Y160110D01*
X127559Y159994D01*
X128141Y160110D01*
X128543Y160379D01*
X128945Y160110D01*
X129528Y159994D01*
X130110Y160110D01*
X130512Y160379D01*
X130914Y160110D01*
X131496Y159994D01*
X132078Y160110D01*
X132480Y160379D01*
X132882Y160110D01*
X133465Y159994D01*
X134047Y160110D01*
X134449Y160379D01*
X134851Y160110D01*
X135433Y159994D01*
X136015Y160110D01*
X136417Y160379D01*
X136819Y160110D01*
X137402Y159994D01*
X137984Y160110D01*
X138386Y160379D01*
X138788Y160110D01*
X139370Y159994D01*
X139952Y160110D01*
X140354Y160379D01*
X140756Y160110D01*
X141339Y159994D01*
X141921Y160110D01*
X142323Y160379D01*
X142725Y160110D01*
X143307Y159994D01*
X143889Y160110D01*
X144291Y160379D01*
X144693Y160110D01*
X145276Y159994D01*
X145858Y160110D01*
X146260Y160379D01*
X146662Y160110D01*
X147244Y159994D01*
X147826Y160110D01*
X148228Y160379D01*
X148630Y160110D01*
X149213Y159994D01*
X149795Y160110D01*
X150197Y160379D01*
X150599Y160110D01*
X151181Y159994D01*
X151763Y160110D01*
X152165Y160379D01*
X152567Y160110D01*
X153150Y159994D01*
X153732Y160110D01*
X154134Y160379D01*
X154536Y160110D01*
X155118Y159994D01*
X155700Y160110D01*
X156102Y160379D01*
X156504Y160110D01*
X157087Y159994D01*
X157669Y160110D01*
X158162Y160440D01*
X158492Y160933D01*
X158608Y161516D01*
Y166634D01*
X158492Y167216D01*
X158162Y167710D01*
X157669Y168039D01*
X157087Y168155D01*
X157034Y168145D01*
X156648Y168462D01*
Y171047D01*
X159169D01*
Y176591D01*
X159601Y176756D01*
X160153D01*
Y178195D01*
X161677D01*
X161771Y178032D01*
X162284Y177519D01*
X162913Y177156D01*
X163614Y176969D01*
X164339D01*
X165040Y177156D01*
X165668Y177519D01*
X166182Y178032D01*
X166544Y178661D01*
X166670Y179130D01*
X167188D01*
X167314Y178661D01*
X167677Y178032D01*
X168190Y177519D01*
X168818Y177156D01*
X169519Y176969D01*
X170245D01*
X170946Y177156D01*
X171574Y177519D01*
X172087Y178032D01*
X172450Y178661D01*
X172638Y179362D01*
Y180087D01*
X172450Y180788D01*
X172087Y181417D01*
X171574Y181930D01*
X170946Y182292D01*
X170856Y182317D01*
X170326Y183309D01*
X169523Y184287D01*
X168545Y185089D01*
X167430Y185686D01*
X166219Y186053D01*
X164961Y186177D01*
Y186175D01*
X155905D01*
Y186177D01*
X154647Y186053D01*
X153436Y185686D01*
X152321Y185089D01*
X151343Y184287D01*
X150541Y183309D01*
X150211Y182693D01*
X148114D01*
Y176756D01*
X148667D01*
X149098Y176591D01*
Y171047D01*
X151620D01*
Y168462D01*
X151234Y168145D01*
X151181Y168155D01*
X150599Y168039D01*
X150197Y167771D01*
X149795Y168039D01*
X149213Y168155D01*
X148630Y168039D01*
X148228Y167771D01*
X147826Y168039D01*
X147244Y168155D01*
X146662Y168039D01*
X146260Y167771D01*
X145858Y168039D01*
X145276Y168155D01*
X144693Y168039D01*
X144291Y167771D01*
X143889Y168039D01*
X143307Y168155D01*
X142725Y168039D01*
X142323Y167771D01*
X141921Y168039D01*
X141339Y168155D01*
X140756Y168039D01*
X140354Y167771D01*
X139952Y168039D01*
X139902Y168559D01*
X140078Y168661D01*
X140591Y169174D01*
X140954Y169802D01*
X141142Y170503D01*
Y171229D01*
X140954Y171930D01*
X140591Y172558D01*
X140078Y173071D01*
X139450Y173434D01*
X139431Y173439D01*
X139260Y173852D01*
X138468Y174885D01*
X137865Y175347D01*
Y175509D01*
X137884Y175566D01*
X138362Y175984D01*
X138749D01*
X139450Y176172D01*
X140078Y176535D01*
X140591Y177048D01*
X140954Y177676D01*
X141142Y178377D01*
Y179103D01*
X140954Y179804D01*
X140591Y180432D01*
X140078Y180945D01*
X139450Y181308D01*
X138749Y181496D01*
X138023D01*
X137322Y181308D01*
X136694Y180945D01*
X136181Y180432D01*
X136087Y180270D01*
X133957D01*
Y180287D01*
X132537Y180100D01*
X131215Y179552D01*
X130079Y178681D01*
X129230Y177575D01*
X128226D01*
X128034Y178037D01*
X158168Y208171D01*
X158500Y208667D01*
X158616Y209252D01*
Y233858D01*
X158500Y234443D01*
X158168Y234940D01*
X135909Y257198D01*
X135993Y257475D01*
X136138Y257677D01*
X136780D01*
X137481Y257865D01*
X138110Y258228D01*
X138623Y258741D01*
X138985Y259369D01*
X139173Y260070D01*
Y260796D01*
X138985Y261497D01*
X138623Y262125D01*
X138110Y262638D01*
X137481Y263001D01*
X136780Y263189D01*
X136055D01*
X135873Y263140D01*
X135530Y263483D01*
X135034Y263814D01*
X134834Y263854D01*
X134883Y264354D01*
X138992D01*
Y265689D01*
X139492Y265722D01*
X139515Y265552D01*
X139833Y264782D01*
X140341Y264120D01*
X141002Y263613D01*
X141772Y263294D01*
X142598Y263185D01*
X143425Y263294D01*
X144195Y263613D01*
X144856Y264120D01*
X145363Y264782D01*
X145682Y265552D01*
X145791Y266378D01*
Y270315D01*
X145682Y271141D01*
X145363Y271911D01*
X144856Y272572D01*
X144195Y273080D01*
X143425Y273399D01*
X142598Y273508D01*
X141772Y273399D01*
X141264Y273188D01*
X140764Y273495D01*
Y274228D01*
X132041D01*
Y278150D01*
X131925Y278735D01*
X131593Y279231D01*
X128640Y282184D01*
X128144Y282515D01*
X127559Y282632D01*
D02*
G37*
G36*
X179390Y282102D02*
X178090D01*
X176835Y281766D01*
X175709Y281116D01*
X174790Y280197D01*
X174140Y279071D01*
X173803Y277815D01*
Y276515D01*
X174140Y275260D01*
X174790Y274134D01*
X175709Y273215D01*
X176835Y272565D01*
X178090Y272228D01*
X179390D01*
X180646Y272565D01*
X181772Y273215D01*
X182691Y274134D01*
X183341Y275260D01*
X183677Y276515D01*
Y277815D01*
X183341Y279071D01*
X182691Y280197D01*
X181772Y281116D01*
X180646Y281766D01*
X179390Y282102D01*
D02*
G37*
G36*
X159705D02*
X158405D01*
X157150Y281766D01*
X156024Y281116D01*
X155104Y280197D01*
X154455Y279071D01*
X154118Y277815D01*
Y276515D01*
X154455Y275260D01*
X155104Y274134D01*
X156024Y273215D01*
X157150Y272565D01*
X158405Y272228D01*
X159705D01*
X160961Y272565D01*
X162086Y273215D01*
X163006Y274134D01*
X163656Y275260D01*
X163992Y276515D01*
Y277815D01*
X163656Y279071D01*
X163006Y280197D01*
X162086Y281116D01*
X160961Y281766D01*
X159705Y282102D01*
D02*
G37*
G36*
X220729Y282102D02*
X219429D01*
X218173Y281766D01*
X217047Y281116D01*
X216128Y280197D01*
X215478Y279071D01*
X215142Y277815D01*
Y276515D01*
X215478Y275260D01*
X216128Y274134D01*
X217047Y273215D01*
X218173Y272565D01*
X219429Y272228D01*
X220729D01*
X221984Y272565D01*
X223110Y273215D01*
X224029Y274134D01*
X224679Y275260D01*
X225016Y276515D01*
Y277815D01*
X224679Y279071D01*
X224029Y280197D01*
X223110Y281116D01*
X221984Y281766D01*
X220729Y282102D01*
D02*
G37*
G36*
X201044D02*
X199744D01*
X198488Y281766D01*
X197362Y281116D01*
X196443Y280197D01*
X195793Y279071D01*
X195457Y277815D01*
Y276515D01*
X195793Y275260D01*
X196443Y274134D01*
X197362Y273215D01*
X198488Y272565D01*
X199744Y272228D01*
X201044D01*
X202299Y272565D01*
X203425Y273215D01*
X204344Y274134D01*
X204994Y275260D01*
X205331Y276515D01*
Y277815D01*
X204994Y279071D01*
X204344Y280197D01*
X203425Y281116D01*
X202299Y281766D01*
X201044Y282102D01*
D02*
G37*
G36*
X239567Y283129D02*
X238278Y282960D01*
X237077Y282462D01*
X236046Y281671D01*
X235255Y280639D01*
X234757Y279438D01*
X234587Y278150D01*
Y270276D01*
X234757Y268987D01*
X235255Y267786D01*
X236046Y266755D01*
X237077Y265963D01*
X238278Y265466D01*
X239567Y265296D01*
X240856Y265466D01*
X242057Y265963D01*
X243088Y266755D01*
X243879Y267786D01*
X244377Y268987D01*
X244547Y270276D01*
Y278150D01*
X244377Y279438D01*
X243879Y280639D01*
X243088Y281671D01*
X242057Y282462D01*
X240856Y282960D01*
X239567Y283129D01*
D02*
G37*
G36*
X285827Y269340D02*
X258465D01*
X257111Y269207D01*
X255809Y268812D01*
X254609Y268171D01*
X253647Y267381D01*
X253543D01*
X252255Y267212D01*
X251054Y266714D01*
X250022Y265923D01*
X249231Y264891D01*
X248733Y263690D01*
X248564Y262402D01*
X248733Y261113D01*
X249231Y259912D01*
X250022Y258880D01*
X251054Y258089D01*
X252255Y257592D01*
X253543Y257422D01*
X253647D01*
X254609Y256632D01*
X255809Y255991D01*
X257111Y255596D01*
X258465Y255463D01*
X285827D01*
X287180Y255596D01*
X288482Y255991D01*
X289682Y256632D01*
X290552Y257347D01*
X293224D01*
Y267063D01*
X290934D01*
X290733Y267308D01*
X289682Y268171D01*
X288482Y268812D01*
X287180Y269207D01*
X285827Y269340D01*
D02*
G37*
G36*
X179390Y262417D02*
X178090D01*
X176835Y262081D01*
X175709Y261431D01*
X174790Y260512D01*
X174140Y259386D01*
X173803Y258130D01*
Y256830D01*
X174140Y255575D01*
X174790Y254449D01*
X175709Y253530D01*
X176835Y252880D01*
X178090Y252543D01*
X179390D01*
X180646Y252880D01*
X181772Y253530D01*
X182691Y254449D01*
X183341Y255575D01*
X183677Y256830D01*
Y258130D01*
X183341Y259386D01*
X182691Y260512D01*
X181772Y261431D01*
X180646Y262081D01*
X179390Y262417D01*
D02*
G37*
G36*
X159705D02*
X158405D01*
X157150Y262081D01*
X156024Y261431D01*
X155104Y260512D01*
X154455Y259386D01*
X154118Y258130D01*
Y256830D01*
X154455Y255575D01*
X155104Y254449D01*
X156024Y253530D01*
X157150Y252880D01*
X158405Y252543D01*
X159705D01*
X160961Y252880D01*
X162086Y253530D01*
X163006Y254449D01*
X163656Y255575D01*
X163992Y256830D01*
Y258130D01*
X163656Y259386D01*
X163006Y260512D01*
X162086Y261431D01*
X160961Y262081D01*
X159705Y262417D01*
D02*
G37*
G36*
X220729Y262417D02*
X219429D01*
X218173Y262081D01*
X217047Y261431D01*
X216128Y260512D01*
X215478Y259386D01*
X215142Y258130D01*
Y256830D01*
X215478Y255575D01*
X216128Y254449D01*
X217047Y253530D01*
X218173Y252880D01*
X219429Y252543D01*
X220729D01*
X221984Y252880D01*
X223110Y253530D01*
X224029Y254449D01*
X224679Y255575D01*
X225016Y256830D01*
Y258130D01*
X224679Y259386D01*
X224029Y260512D01*
X223110Y261431D01*
X221984Y262081D01*
X220729Y262417D01*
D02*
G37*
G36*
X201044D02*
X199744D01*
X198488Y262081D01*
X197362Y261431D01*
X196443Y260512D01*
X195793Y259386D01*
X195457Y258130D01*
Y256830D01*
X195793Y255575D01*
X196443Y254449D01*
X197362Y253530D01*
X198488Y252880D01*
X199744Y252543D01*
X201044D01*
X202299Y252880D01*
X203425Y253530D01*
X204344Y254449D01*
X204994Y255575D01*
X205331Y256830D01*
Y258130D01*
X204994Y259386D01*
X204344Y260512D01*
X203425Y261431D01*
X202299Y262081D01*
X201044Y262417D01*
D02*
G37*
G36*
X111408Y260433D02*
X110245D01*
X109104Y260206D01*
X108029Y259761D01*
X107062Y259115D01*
X106240Y258292D01*
X105593Y257325D01*
X105148Y256250D01*
X104921Y255109D01*
Y253946D01*
X105148Y252805D01*
X105593Y251730D01*
X106240Y250763D01*
X107062Y249940D01*
X108029Y249294D01*
X109104Y248849D01*
X110245Y248622D01*
X111408D01*
X112549Y248849D01*
X113624Y249294D01*
X114591Y249940D01*
X115414Y250763D01*
X116060Y251730D01*
X116505Y252805D01*
X116732Y253946D01*
Y255109D01*
X116505Y256250D01*
X116060Y257325D01*
X115414Y258292D01*
X114591Y259115D01*
X113624Y259761D01*
X112549Y260206D01*
X111408Y260433D01*
D02*
G37*
G36*
X229617Y235842D02*
X228257D01*
X226923Y235577D01*
X225666Y235057D01*
X224535Y234301D01*
X223573Y233339D01*
X222817Y232208D01*
X222297Y230951D01*
X222031Y229617D01*
Y228257D01*
X222297Y226923D01*
X222817Y225666D01*
X223573Y224535D01*
X224535Y223573D01*
X225666Y222817D01*
X226923Y222297D01*
X228257Y222031D01*
X229617D01*
X230951Y222297D01*
X232208Y222817D01*
X233339Y223573D01*
X234301Y224535D01*
X235057Y225666D01*
X235577Y226923D01*
X235842Y228257D01*
Y229617D01*
X235577Y230951D01*
X235057Y232208D01*
X234301Y233339D01*
X233339Y234301D01*
X232208Y235057D01*
X230951Y235577D01*
X229617Y235842D01*
D02*
G37*
G36*
X168594D02*
X167233D01*
X165899Y235577D01*
X164642Y235057D01*
X163511Y234301D01*
X162549Y233339D01*
X161794Y232208D01*
X161273Y230951D01*
X161008Y229617D01*
Y228257D01*
X161273Y226923D01*
X161794Y225666D01*
X162549Y224535D01*
X163511Y223573D01*
X164642Y222817D01*
X165899Y222297D01*
X167233Y222031D01*
X168594D01*
X169928Y222297D01*
X171184Y222817D01*
X172315Y223573D01*
X173277Y224535D01*
X174033Y225666D01*
X174554Y226923D01*
X174819Y228257D01*
Y229617D01*
X174554Y230951D01*
X174033Y232208D01*
X173277Y233339D01*
X172315Y234301D01*
X171184Y235057D01*
X169928Y235577D01*
X168594Y235842D01*
D02*
G37*
G36*
X110369Y212268D02*
X109316D01*
X108299Y211995D01*
X107387Y211469D01*
X106642Y210724D01*
X106115Y209812D01*
X105842Y208794D01*
Y207741D01*
X106115Y206724D01*
X106642Y205812D01*
X107387Y205067D01*
X108299Y204540D01*
X109316Y204268D01*
X110369D01*
X111387Y204540D01*
X112299Y205067D01*
X113043Y205812D01*
X113570Y206724D01*
X113842Y207741D01*
Y208794D01*
X113570Y209812D01*
X113043Y210724D01*
X112299Y211469D01*
X111387Y211995D01*
X110369Y212268D01*
D02*
G37*
G36*
X286024Y249852D02*
X284670Y249719D01*
X283368Y249324D01*
X282169Y248683D01*
X281117Y247820D01*
X281077Y247772D01*
X278823D01*
Y238055D01*
X279085D01*
Y214331D01*
X279089Y214289D01*
X278990Y213536D01*
X278683Y212795D01*
X278195Y212159D01*
X277559Y211671D01*
X276818Y211365D01*
X276097Y211270D01*
X167913D01*
X167574Y211236D01*
X167233D01*
X166899Y211170D01*
X166560Y211136D01*
X166233Y211037D01*
X165899Y210971D01*
X165584Y210840D01*
X165258Y210741D01*
X164957Y210581D01*
X164642Y210450D01*
X164359Y210261D01*
X164058Y210100D01*
X163795Y209884D01*
X163511Y209695D01*
X163270Y209454D01*
X163007Y209237D01*
X162791Y208974D01*
X162549Y208733D01*
X162360Y208449D01*
X162144Y208186D01*
X161983Y207885D01*
X161794Y207602D01*
X161663Y207287D01*
X161503Y206986D01*
X161404Y206660D01*
X161273Y206345D01*
X161207Y206011D01*
X161108Y205684D01*
X161074Y205345D01*
X161008Y205011D01*
Y204670D01*
X160975Y204331D01*
X161008Y203992D01*
Y203651D01*
X161074Y203316D01*
X161108Y202977D01*
X161207Y202651D01*
X161273Y202316D01*
X161404Y202002D01*
X161503Y201675D01*
X161663Y201375D01*
X161794Y201060D01*
X161983Y200776D01*
X162144Y200476D01*
X162360Y200212D01*
X162549Y199929D01*
X162791Y199688D01*
X163007Y199424D01*
X163270Y199208D01*
X163511Y198967D01*
X163795Y198777D01*
X164058Y198561D01*
X164359Y198400D01*
X164642Y198211D01*
X164957Y198081D01*
X165258Y197920D01*
X165584Y197821D01*
X165899Y197691D01*
X166233Y197624D01*
X166560Y197525D01*
X166899Y197492D01*
X167233Y197425D01*
X167574D01*
X167913Y197392D01*
X276024D01*
Y197389D01*
X276067Y197392D01*
X285039D01*
Y197387D01*
X286586Y197539D01*
X288073Y197991D01*
X289444Y198723D01*
X290645Y199709D01*
X291631Y200910D01*
X292364Y202281D01*
X292815Y203768D01*
X292872Y204348D01*
X292929Y204635D01*
Y204927D01*
X292967Y205315D01*
X292963D01*
X292929Y205654D01*
Y205995D01*
X292863Y206329D01*
X292829Y206669D01*
X292730Y206995D01*
X292664Y207329D01*
X292533Y207644D01*
X292434Y207970D01*
X292274Y208271D01*
X292143Y208586D01*
X292000Y208801D01*
X292388Y209946D01*
X292821Y212119D01*
X292965Y214331D01*
X292963D01*
Y238055D01*
X293224D01*
Y247772D01*
X290970D01*
X290930Y247820D01*
X289879Y248683D01*
X288679Y249324D01*
X287377Y249719D01*
X286024Y249852D01*
D02*
G37*
G36*
X110369Y202425D02*
X109316D01*
X108299Y202153D01*
X107387Y201626D01*
X106642Y200881D01*
X106115Y199969D01*
X105842Y198952D01*
Y197899D01*
X106115Y196881D01*
X106642Y195969D01*
X107387Y195224D01*
X108299Y194698D01*
X109316Y194425D01*
X110369D01*
X111387Y194698D01*
X112299Y195224D01*
X113043Y195969D01*
X113570Y196881D01*
X113842Y197899D01*
Y198952D01*
X113570Y199969D01*
X113043Y200881D01*
X112299Y201626D01*
X111387Y202153D01*
X110369Y202425D01*
D02*
G37*
G36*
Y192583D02*
X109316D01*
X108299Y192310D01*
X107387Y191783D01*
X106642Y191039D01*
X106115Y190127D01*
X105842Y189109D01*
Y188056D01*
X106115Y187039D01*
X106642Y186127D01*
X107387Y185382D01*
X108299Y184855D01*
X109316Y184583D01*
X110369D01*
X111387Y184855D01*
X112299Y185382D01*
X113043Y186127D01*
X113570Y187039D01*
X113842Y188056D01*
Y189109D01*
X113570Y190127D01*
X113043Y191039D01*
X112299Y191783D01*
X111387Y192310D01*
X110369Y192583D01*
D02*
G37*
G36*
X117193Y184209D02*
X116271D01*
X115381Y183970D01*
X114583Y183509D01*
X113932Y182858D01*
X113471Y182060D01*
X113232Y181169D01*
Y180248D01*
X113471Y179358D01*
X113932Y178560D01*
X114583Y177908D01*
X115381Y177447D01*
X116271Y177209D01*
X117193D01*
X118083Y177447D01*
X118881Y177908D01*
X119533Y178560D01*
X119994Y179358D01*
X120232Y180248D01*
Y181169D01*
X119994Y182060D01*
X119533Y182858D01*
X118881Y183509D01*
X118083Y183970D01*
X117193Y184209D01*
D02*
G37*
G36*
X238256Y175350D02*
X237334D01*
X236444Y175112D01*
X235646Y174651D01*
X234995Y173999D01*
X234534Y173201D01*
X234295Y172311D01*
Y171390D01*
X234534Y170499D01*
X234995Y169701D01*
X235646Y169050D01*
X236444Y168589D01*
X237334Y168350D01*
X238256D01*
X239146Y168589D01*
X239944Y169050D01*
X240596Y169701D01*
X241057Y170499D01*
X241295Y171390D01*
Y172311D01*
X241057Y173201D01*
X240596Y173999D01*
X239944Y174651D01*
X239146Y175112D01*
X238256Y175350D01*
D02*
G37*
G36*
X177232D02*
X176311D01*
X175421Y175112D01*
X174623Y174651D01*
X173971Y173999D01*
X173510Y173201D01*
X173272Y172311D01*
Y171390D01*
X173510Y170499D01*
X173971Y169701D01*
X174623Y169050D01*
X175421Y168589D01*
X176311Y168350D01*
X177232D01*
X178123Y168589D01*
X178921Y169050D01*
X179572Y169701D01*
X180033Y170499D01*
X180272Y171390D01*
Y172311D01*
X180033Y173201D01*
X179572Y173999D01*
X178921Y174651D01*
X178123Y175112D01*
X177232Y175350D01*
D02*
G37*
G36*
X289437Y166492D02*
X288516D01*
X287625Y166254D01*
X286827Y165793D01*
X286176Y165141D01*
X285715Y164343D01*
X285476Y163453D01*
Y162531D01*
X285715Y161641D01*
X286176Y160843D01*
X286827Y160191D01*
X287625Y159731D01*
X288516Y159492D01*
X289437D01*
X290327Y159731D01*
X291125Y160191D01*
X291777Y160843D01*
X292238Y161641D01*
X292476Y162531D01*
Y163453D01*
X292238Y164343D01*
X291777Y165141D01*
X291125Y165793D01*
X290327Y166254D01*
X289437Y166492D01*
D02*
G37*
G36*
X229617Y162024D02*
X228257D01*
X226923Y161758D01*
X225666Y161238D01*
X224535Y160482D01*
X223573Y159520D01*
X222817Y158389D01*
X222297Y157132D01*
X222031Y155798D01*
Y154438D01*
X222297Y153104D01*
X222817Y151847D01*
X222987Y151593D01*
Y144252D01*
X222967D01*
X223163Y141754D01*
X223748Y139317D01*
X224707Y137002D01*
X226017Y134865D01*
X227644Y132959D01*
X229550Y131332D01*
X231687Y130022D01*
X234002Y129063D01*
X236439Y128478D01*
X238937Y128281D01*
Y128302D01*
X267323D01*
X268484Y128416D01*
X269600Y128755D01*
X270628Y129305D01*
X270737Y129394D01*
X274524D01*
Y139110D01*
X270737D01*
X270628Y139199D01*
X269600Y139749D01*
X268484Y140088D01*
X267323Y140202D01*
X238937D01*
X238879Y140196D01*
X237885Y140327D01*
X236905Y140733D01*
X236064Y141379D01*
X235418Y142220D01*
X235012Y143200D01*
X234881Y144194D01*
X234887Y144252D01*
Y151593D01*
X235057Y151847D01*
X235577Y153104D01*
X235842Y154438D01*
Y155798D01*
X235577Y157132D01*
X235057Y158389D01*
X234301Y159520D01*
X233339Y160482D01*
X232208Y161238D01*
X230951Y161758D01*
X229617Y162024D01*
D02*
G37*
G36*
X251625Y121669D02*
X250265D01*
X248931Y121404D01*
X247674Y120883D01*
X246543Y120128D01*
X245581Y119166D01*
X244825Y118035D01*
X244305Y116778D01*
X244039Y115444D01*
Y114084D01*
X244305Y112750D01*
X244825Y111493D01*
X245581Y110362D01*
X246543Y109400D01*
X247674Y108644D01*
X248931Y108124D01*
X250265Y107858D01*
X251625D01*
X252959Y108124D01*
X254216Y108644D01*
X254764Y109011D01*
X267323D01*
X268484Y109125D01*
X269600Y109464D01*
X270628Y110013D01*
X270737Y110102D01*
X274524D01*
Y119819D01*
X270737D01*
X270628Y119908D01*
X269600Y120458D01*
X268484Y120796D01*
X267323Y120911D01*
X254150D01*
X252959Y121404D01*
X251625Y121669D01*
D02*
G37*
G36*
X110424Y115748D02*
X109261D01*
X108120Y115521D01*
X107045Y115076D01*
X106078Y114430D01*
X105255Y113607D01*
X104609Y112640D01*
X104164Y111565D01*
X103937Y110424D01*
Y109261D01*
X104164Y108120D01*
X104609Y107045D01*
X105255Y106078D01*
X106078Y105255D01*
X107045Y104609D01*
X108120Y104164D01*
X109261Y103937D01*
X110424D01*
X111565Y104164D01*
X112640Y104609D01*
X113607Y105255D01*
X114430Y106078D01*
X115076Y107045D01*
X115521Y108120D01*
X115748Y109261D01*
Y110424D01*
X115521Y111565D01*
X115076Y112640D01*
X114430Y113607D01*
X113607Y114430D01*
X112640Y115076D01*
X111565Y115521D01*
X110424Y115748D01*
D02*
G37*
%LPD*%
G36*
X121930Y259212D02*
X122558Y258849D01*
X123259Y258661D01*
X123985D01*
X124686Y258849D01*
X125314Y259212D01*
X125530Y259427D01*
X126030Y259220D01*
Y258465D01*
X126146Y257879D01*
X126478Y257383D01*
X130415Y253446D01*
X130911Y253115D01*
X131496Y252998D01*
X133662D01*
X142971Y243690D01*
X142737Y243216D01*
X142323Y243271D01*
Y243262D01*
X136417D01*
Y243281D01*
X134947Y243087D01*
X133576Y242520D01*
X132399Y241617D01*
X131496Y240440D01*
X131304Y239976D01*
X128724D01*
Y238195D01*
X128224Y238025D01*
X128121Y238160D01*
X127437Y238685D01*
X126641Y239014D01*
X126394Y239047D01*
Y239976D01*
X124364D01*
Y244571D01*
X125606D01*
Y250476D01*
Y256610D01*
X121214D01*
Y259220D01*
X121714Y259427D01*
X121930Y259212D01*
D02*
G37*
G36*
X137977Y230004D02*
X138103D01*
X138361Y229575D01*
X138190Y229257D01*
X137425Y228324D01*
X136492Y227558D01*
X136203Y227404D01*
X135843Y227778D01*
Y232496D01*
X129088D01*
Y235221D01*
X135843D01*
Y236069D01*
X137977D01*
Y230004D01*
D02*
G37*
G36*
X119024Y230249D02*
X119276Y230134D01*
Y227740D01*
X126394D01*
Y228670D01*
X126641Y228702D01*
X127437Y229032D01*
X128121Y229556D01*
X128224Y229692D01*
X128724Y229522D01*
Y227740D01*
X135354D01*
X135759Y227240D01*
X135742Y227157D01*
X135427Y226989D01*
X134272Y226639D01*
X133101Y226523D01*
X133071Y226529D01*
X119095D01*
X119059Y226522D01*
X118112Y226647D01*
X117196Y227026D01*
X116872Y227275D01*
X116551Y227642D01*
Y228842D01*
X116944Y228894D01*
X117692Y229204D01*
X118335Y229697D01*
X118776Y230271D01*
X119024Y230249D01*
D02*
G37*
D10*
X163976Y162992D02*
G03*
X166929Y160039I2953J0D01*
G01*
X179724Y162008D02*
G03*
X177756Y163976I-1969J0D01*
G01*
X191535Y158071D02*
G03*
X185630Y163976I-5906J0D01*
G01*
X187992Y153543D02*
G03*
X191535Y157087I0J3543D01*
G01*
X166929Y153150D02*
G03*
X170866Y157087I0J3937D01*
G01*
X168898Y158071D02*
G03*
X166929Y160039I-1969J0D01*
G01*
X166929Y155118D02*
G03*
X168898Y157087I0J1969D01*
G01*
X239764Y106890D02*
G03*
X241732Y104921I1969J0D01*
G01*
X285531Y151181D02*
G03*
X277165Y142815I0J-8366D01*
G01*
X272244Y104921D02*
G03*
X277165Y109843I0J4921D01*
G01*
X239764Y114606D02*
G03*
X229764Y124606I-10000J0D01*
G01*
X157283Y179724D02*
G03*
X156595Y179035I0J-689D01*
G01*
Y173819D02*
G03*
X155118Y172343I0J-1476D01*
G01*
X138386Y171358D02*
G03*
X134941Y174803I-3445J0D01*
G01*
X169882Y179724D02*
G03*
X164961Y184646I-4921J0D01*
G01*
X151673Y179035D02*
G03*
X150984Y179724I-689J0D01*
G01*
X155905Y184646D02*
G03*
X150984Y179724I0J-4921D01*
G01*
X130020Y174803D02*
G03*
X127559Y172343I0J-2461D01*
G01*
X133957Y178740D02*
G03*
X130020Y174803I0J-3937D01*
G01*
X132480Y169882D02*
G03*
X134941Y172343I0J2461D01*
G01*
X159547Y108366D02*
G03*
X162500Y105413I2953J0D01*
G01*
X170866Y123622D02*
G03*
X166929Y127559I-3937J0D01*
G01*
X111811Y121457D02*
G03*
X111122Y122146I-689J0D01*
G01*
X113583Y121457D02*
G03*
X116732Y124606I0J3150D01*
G01*
X120669Y112598D02*
G03*
X111811Y121457I-8858J0D01*
G01*
X155118Y115256D02*
G03*
X159547Y110827I4429J0D01*
G01*
X164469Y113189D02*
G03*
X157087Y120571I-7382J0D01*
G01*
X181398Y113583D02*
G03*
X186122Y108858I4724J0D01*
G01*
X173721Y105905D02*
G03*
X181398Y113583I0J7677D01*
G01*
X164469Y110827D02*
G03*
X169390Y105905I4921J0D01*
G01*
X179921Y132323D02*
G03*
X185669Y126575I5748J0D01*
G01*
X177756Y149213D02*
G03*
X169882Y141339I0J-7874D01*
G01*
X167913Y139370D02*
G03*
X169882Y141339I0J1969D01*
G01*
X196457Y139961D02*
G03*
X194095Y142323I-2362J-0D01*
G01*
X201378Y135039D02*
G03*
X196457Y139961I-4921J0D01*
G01*
X194488Y120276D02*
G03*
X192913Y121850I-1575J0D01*
G01*
X198425Y116339D02*
G03*
X194488Y120276I-3937J0D01*
G01*
D02*
G03*
X201378Y127165I0J6890D01*
G01*
X198425Y111221D02*
G03*
X202559Y107087I4134J0D01*
G01*
X149213Y111969D02*
G03*
X159213Y101969I10000J0D01*
G01*
X271260D02*
G03*
X279134Y109843I0J7874D01*
G01*
X291929Y123524D02*
G03*
X291831Y123622I-98J0D01*
G01*
X145276Y238779D02*
G03*
X142323Y241732I-2953J0D01*
G01*
X136417D02*
G03*
X132283Y237598I0J-4134D01*
G01*
X135276Y204331D02*
G03*
X145276Y214331I0J10000D01*
G01*
X113779Y230315D02*
G03*
X119095Y225000I5315J0D01*
G01*
X113189Y230315D02*
G03*
X108858Y225984I0J-4331D01*
G01*
X280118Y129626D02*
G03*
X286122Y123622I6004J0D01*
G01*
D02*
G03*
X279134Y116634I0J-6988D01*
G01*
X285531Y145276D02*
G03*
X280118Y139862I0J-5413D01*
G01*
X122835Y237598D02*
G03*
X117717Y242717I-5118J0D01*
G01*
X119685Y256496D02*
G03*
X122638Y253543I2953J0D01*
G01*
X122835Y247441D02*
G03*
X122638Y247638I-197J0D01*
G01*
X133071Y225000D02*
G03*
X140748Y232677I0J7677D01*
G01*
X116142Y230315D02*
G03*
X117717Y231890I0J1575D01*
G01*
X127559Y235827D02*
G03*
X125787Y237598I-1772J0D01*
G01*
X125787Y230118D02*
G03*
X127559Y231890I0J1772D01*
G01*
X115945Y237598D02*
G03*
X113779Y235433I0J-2165D01*
G01*
X140551Y237598D02*
G03*
X140748Y237795I0J197D01*
G01*
X119685Y233858D02*
G03*
X117717Y231890I0J-1969D01*
G01*
X221161Y139213D02*
G03*
X211161Y149213I-10000J0D01*
G01*
X206791Y124606D02*
G03*
X202559Y120374I0J-4232D01*
G01*
X221161Y122795D02*
G03*
X231161Y112795I10000J0D01*
G01*
X211713Y122795D02*
G03*
X221713Y112795I10000J0D01*
G01*
X153150Y172343D02*
G03*
X151673Y173819I-1476J0D01*
G01*
X132480Y169882D02*
G03*
X129528Y166929I0J-2953D01*
G01*
X119685Y127559D02*
G03*
X116732Y124606I0J-2953D01*
G01*
X111122Y127067D02*
G03*
X111811Y127756I0J689D01*
G01*
X113583Y129527D02*
G03*
X111811Y127756I0J-1772D01*
G01*
X188189Y108858D02*
G03*
X194488Y115157I0J6299D01*
G01*
X189567Y126575D02*
G03*
X196457Y133465I0J6890D01*
G01*
X163976Y162992D02*
Y163976D01*
X179724Y158661D02*
Y162008D01*
X191535Y157087D02*
Y158071D01*
X184646Y153543D02*
X187992D01*
X184646Y158661D02*
X184646Y158661D01*
X179724Y158661D02*
X184646D01*
Y153543D02*
X184646Y153543D01*
X179724Y153543D02*
X184646D01*
X177362Y158661D02*
X179724D01*
X169882Y151181D02*
X177362Y158661D01*
X164075Y151181D02*
X169882D01*
X176181Y153543D02*
X179724D01*
X171850Y149213D02*
X176181Y153543D01*
X164075Y149213D02*
X171850D01*
X170866Y157087D02*
Y163976D01*
X164075Y153150D02*
X166929D01*
X168898Y157087D02*
Y158071D01*
X164075Y155118D02*
X166929D01*
X239764Y106890D02*
Y114606D01*
X241732Y104921D02*
X272244D01*
X277165Y109843D02*
Y142815D01*
X226870Y124606D02*
X229764D01*
X157283Y179724D02*
X163976D01*
X156595Y173819D02*
Y179035D01*
X155118Y164075D02*
Y172343D01*
X138386Y170866D02*
Y171358D01*
X151673Y173819D02*
Y179035D01*
X155905Y184646D02*
X164961D01*
X133957Y178740D02*
X138386D01*
X134941Y172343D02*
Y174803D01*
X164075Y127559D02*
X166929D01*
X170866Y105905D02*
Y123622D01*
X105905Y127067D02*
X111122D01*
X105905D02*
Y132480D01*
X111811Y121457D02*
X113583D01*
X120669Y107874D02*
Y112598D01*
X105905Y122146D02*
X111122D01*
X159547Y108366D02*
Y110827D01*
X169390Y105905D02*
X170866D01*
X173721D01*
X164469Y110827D02*
Y113189D01*
X172008Y132323D02*
X179921D01*
X170866Y133465D02*
X172008Y132323D01*
X177559Y121850D02*
X181398D01*
X167913Y131496D02*
X177559Y121850D01*
X164075Y131496D02*
X167913D01*
X174803Y142323D02*
X179921D01*
X167913Y135433D02*
X174803Y142323D01*
X164075Y135433D02*
X167913D01*
X177756Y149213D02*
X211161D01*
X164075Y139370D02*
X167913D01*
X201378Y127165D02*
Y135039D01*
X202559Y107087D02*
Y112795D01*
X198425Y111221D02*
Y116339D01*
X202559Y112795D02*
Y120374D01*
X279134Y109843D02*
Y116634D01*
X159213Y101969D02*
X271260D01*
X291929Y117717D02*
Y123524D01*
X145276Y214331D02*
Y238779D01*
X132283Y237598D02*
X140551D01*
X136417Y241732D02*
X142323D01*
X130512Y204331D02*
X135276D01*
X113189Y230315D02*
X113779D01*
X116142D01*
X149213Y111969D02*
Y120571D01*
X280118Y129626D02*
Y139862D01*
X155118Y115256D02*
Y120571D01*
X115945Y237598D02*
X122835D01*
Y247441D01*
Y237598D02*
X125787D01*
X109843Y242717D02*
X117717D01*
X119685Y256496D02*
Y266732D01*
X119095Y225000D02*
X133071D01*
X127559Y231890D02*
Y235827D01*
X122835Y230118D02*
X125787D01*
X119685Y233858D02*
X122835D01*
X130512Y271850D02*
Y278150D01*
X127559Y281102D02*
X130512Y278150D01*
X120669Y281102D02*
X127559D01*
X118701Y279134D02*
X120669Y281102D01*
X118701Y276181D02*
Y279134D01*
Y276181D02*
X120669Y274213D01*
Y271850D02*
Y274213D01*
X122638Y271850D02*
Y277165D01*
X122638Y271850D02*
X122638Y271850D01*
X134449Y262402D02*
X136417Y260433D01*
X130512Y262402D02*
X134449D01*
X129527Y263386D02*
X130512Y262402D01*
X129527Y263386D02*
Y266732D01*
X221161Y122795D02*
Y124606D01*
Y139213D01*
X211713Y122795D02*
Y124606D01*
X231161Y112795D02*
X231693D01*
X221713D02*
X231161D01*
X153150Y164075D02*
Y172343D01*
X127559Y164075D02*
Y172343D01*
X129528Y164075D02*
Y166929D01*
X119685Y127559D02*
X120571D01*
X113583Y129527D02*
X120571D01*
X186122Y108858D02*
X188189D01*
X187894Y121850D02*
X192913D01*
X188583Y142323D02*
X194095D01*
X185669Y126575D02*
X189567D01*
X196457Y133465D02*
Y134843D01*
X123622Y261417D02*
X123622Y261417D01*
X123622Y261417D02*
Y266732D01*
X127559Y258465D02*
Y266732D01*
X134296Y254528D02*
X155587Y233237D01*
Y209873D02*
Y233237D01*
X108343Y162629D02*
X155587Y209873D01*
X157087Y209252D02*
Y233858D01*
X132480Y258465D02*
X157087Y233858D01*
X109843Y162008D02*
X157087Y209252D01*
X108343Y137765D02*
Y162629D01*
Y137765D02*
X112643Y133465D01*
X120571D01*
X112795Y135433D02*
X120571D01*
X109843Y138386D02*
X112795Y135433D01*
X109843Y138386D02*
Y162008D01*
X127559Y258465D02*
X131496Y254528D01*
X134296D01*
X113386Y271850D02*
X113779Y271457D01*
Y266732D02*
Y271457D01*
X112087Y271850D02*
X113386D01*
X108583Y268347D02*
X112087Y271850D01*
X139094D02*
X142598Y268347D01*
X137795Y271850D02*
X139094D01*
X137402Y271457D02*
X137795Y271850D01*
X137402Y266732D02*
Y271457D01*
X120579Y271760D02*
X120669Y271850D01*
X120579Y269939D02*
Y271760D01*
X119685Y269045D02*
X120579Y269939D01*
X119685Y266732D02*
Y269045D01*
X130512Y271850D02*
X130602Y271760D01*
Y269939D02*
Y271760D01*
Y269939D02*
X131496Y269045D01*
Y266732D02*
Y269045D01*
X124606Y269685D02*
X127559Y266732D01*
X124606Y269685D02*
Y271850D01*
D17*
X157283Y179724D02*
D03*
X150984D02*
D03*
D18*
X151673Y173819D02*
D03*
X156595D02*
D03*
X211713Y124606D02*
D03*
X206791D02*
D03*
X164469Y110827D02*
D03*
X159547D02*
D03*
X134941Y174803D02*
D03*
X130020D02*
D03*
D19*
X113386Y271850D02*
D03*
X137795D02*
D03*
D20*
X116732D02*
D03*
X118701D02*
D03*
X132480D02*
D03*
X134449D02*
D03*
X130512D02*
D03*
X128543D02*
D03*
X120669D02*
D03*
X122638D02*
D03*
X124606D02*
D03*
X126575D02*
D03*
X113779Y266732D02*
D03*
X115748D02*
D03*
X117717D02*
D03*
X119685D02*
D03*
X121653D02*
D03*
X123622D02*
D03*
X127559D02*
D03*
X129527D02*
D03*
X131496D02*
D03*
X133465D02*
D03*
X135433D02*
D03*
X137402D02*
D03*
D21*
X285531Y151181D02*
D03*
Y145276D02*
D03*
Y133465D02*
D03*
D22*
X286122Y123622D02*
D03*
X291831D02*
D03*
X221161Y124606D02*
D03*
X226870D02*
D03*
D23*
X267323Y134252D02*
D03*
Y114961D02*
D03*
X286024Y262205D02*
D03*
Y242913D02*
D03*
D24*
X196457Y139961D02*
D03*
Y134843D02*
D03*
X194488Y115157D02*
D03*
Y120276D02*
D03*
X140748Y232677D02*
D03*
Y237795D02*
D03*
X113779Y235433D02*
D03*
Y230315D02*
D03*
X184646Y158661D02*
D03*
Y153543D02*
D03*
X179724Y158661D02*
D03*
Y153543D02*
D03*
D25*
X202559Y112795D02*
D03*
X231693D02*
D03*
D26*
X179921Y132323D02*
D03*
Y142323D02*
D03*
X188583D02*
D03*
Y132323D02*
D03*
D27*
X181398Y113583D02*
D03*
Y121850D02*
D03*
X187894D02*
D03*
Y113583D02*
D03*
D28*
X105905Y122146D02*
D03*
Y127067D02*
D03*
D29*
X111811Y127756D02*
D03*
Y121457D02*
D03*
D30*
X157087Y120571D02*
D03*
X155118D02*
D03*
X153150D02*
D03*
X151181D02*
D03*
X149213D02*
D03*
X147244D02*
D03*
X145276D02*
D03*
X143307D02*
D03*
X141339D02*
D03*
X139370D02*
D03*
X137402D02*
D03*
X135433D02*
D03*
X133465D02*
D03*
X131496D02*
D03*
X129528D02*
D03*
X127559D02*
D03*
Y164075D02*
D03*
X129528D02*
D03*
X131496D02*
D03*
X133465D02*
D03*
X135433D02*
D03*
X137402D02*
D03*
X139370D02*
D03*
X141339D02*
D03*
X143307D02*
D03*
X145276D02*
D03*
X147244D02*
D03*
X149213D02*
D03*
X151181D02*
D03*
X153150D02*
D03*
X155118D02*
D03*
X157087D02*
D03*
D31*
X120571Y127559D02*
D03*
Y129527D02*
D03*
Y131496D02*
D03*
Y133465D02*
D03*
Y135433D02*
D03*
Y137402D02*
D03*
Y139370D02*
D03*
Y141339D02*
D03*
Y143307D02*
D03*
Y145276D02*
D03*
Y147244D02*
D03*
Y149213D02*
D03*
Y151181D02*
D03*
Y153150D02*
D03*
Y155118D02*
D03*
Y157087D02*
D03*
X164075D02*
D03*
Y155118D02*
D03*
Y153150D02*
D03*
Y151181D02*
D03*
Y149213D02*
D03*
Y147244D02*
D03*
Y145276D02*
D03*
Y143307D02*
D03*
Y141339D02*
D03*
Y139370D02*
D03*
Y137402D02*
D03*
Y135433D02*
D03*
Y133465D02*
D03*
Y131496D02*
D03*
Y129527D02*
D03*
Y127559D02*
D03*
D32*
X122638Y253543D02*
D03*
Y247638D02*
D03*
D33*
X132283Y237598D02*
D03*
Y230118D02*
D03*
X122835D02*
D03*
Y233858D02*
D03*
Y237598D02*
D03*
D64*
X228937Y144252D02*
G03*
X238937Y134252I10000J0D01*
G01*
X251142Y114961D02*
G03*
X250945Y114764I0J-197D01*
G01*
X286024Y262205D02*
G03*
X285827Y262402I-197J0D01*
G01*
X228937Y144252D02*
Y155118D01*
X238937Y134252D02*
X267323D01*
X251142Y114961D02*
X267323D01*
D65*
X276024Y204331D02*
G03*
X286024Y214331I0J10000D01*
G01*
X285039Y204331D02*
G03*
X286024Y205315I0J984D01*
G01*
X276024Y204331D02*
X285039D01*
X228937D02*
X276024D01*
X167913D02*
X228937D01*
X286024Y214331D02*
Y242913D01*
X258465Y262402D02*
X285827D01*
D66*
X142598Y268347D02*
D03*
X108583D02*
D03*
D67*
Y289449D02*
D03*
X142598D02*
D03*
D68*
X292421Y148228D02*
D03*
Y136417D02*
D03*
D69*
X109843Y188583D02*
D03*
Y198425D02*
D03*
Y208268D02*
D03*
D70*
X239567Y274213D02*
D03*
D71*
X258465Y287008D02*
D03*
D72*
Y262402D02*
D03*
D73*
X200394Y257480D02*
D03*
X220079D02*
D03*
Y277165D02*
D03*
X200394D02*
D03*
X159055Y257480D02*
D03*
X178740D02*
D03*
Y277165D02*
D03*
X159055D02*
D03*
X110827Y254528D02*
D03*
X109843Y109843D02*
D03*
X287008D02*
D03*
Y287008D02*
D03*
D74*
X163976Y163976D02*
D03*
X170866Y105905D02*
D03*
D75*
Y163976D02*
D03*
X177756D02*
D03*
X185630D02*
D03*
X239764Y106890D02*
D03*
X169882Y179724D02*
D03*
X163976D02*
D03*
X138386Y178740D02*
D03*
Y170866D02*
D03*
X105905Y132480D02*
D03*
X120669Y107874D02*
D03*
X162500Y105413D02*
D03*
X170866Y133465D02*
D03*
X202559Y107087D02*
D03*
X291929Y117717D02*
D03*
X122638Y277165D02*
D03*
X126575Y276181D02*
D03*
X136417Y260433D02*
D03*
X123622Y261417D02*
D03*
X132480Y258465D02*
D03*
D76*
X130512Y204331D02*
D03*
X108858Y225984D02*
D03*
D77*
X109843Y242717D02*
D03*
X116732Y180709D02*
D03*
X176772Y171850D02*
D03*
X237795D02*
D03*
X288976Y162992D02*
D03*
D78*
X228937Y155118D02*
D03*
X250945Y114764D02*
D03*
X228937Y204331D02*
D03*
X167913D02*
D03*
Y228937D02*
D03*
X228937D02*
D03*
X286024Y205315D02*
D03*
M02*
