G04*
G04 #@! TF.GenerationSoftware,Altium Limited,CircuitMaker,2.3.0 (2.3.0.3)*
G04*
G04 Layer_Color=128*
%FSLAX25Y25*%
%MOIN*%
G70*
G04*
G04 #@! TF.SameCoordinates,16FC6845-B66D-4252-ADF8-C3080C0A7A4D*
G04*
G04*
G04 #@! TF.FilePolarity,Positive*
G04*
G01*
G75*
%ADD15C,0.00200*%
D15*
X141417Y268347D02*
X143780D01*
X142598Y267165D02*
Y269528D01*
X107402Y268347D02*
X109764D01*
X108583Y267165D02*
Y269528D01*
X107402Y289449D02*
X109764D01*
X108583Y288268D02*
Y290630D01*
X141417Y289449D02*
X143780D01*
X142598Y288268D02*
Y290630D01*
X290650Y148228D02*
X294193D01*
X292421Y146457D02*
Y150000D01*
X290650Y136417D02*
X294193D01*
X292421Y134646D02*
Y138189D01*
X108343Y188583D02*
X111343D01*
X109843Y187083D02*
Y190083D01*
X108343Y198425D02*
X111343D01*
X109843Y196925D02*
Y199925D01*
X108343Y208268D02*
X111343D01*
X109843Y206768D02*
Y209768D01*
X237992Y274213D02*
X241142D01*
X239567Y272638D02*
Y275787D01*
X256890Y287008D02*
X260039D01*
X258465Y285433D02*
Y288583D01*
X256890Y262402D02*
X260039D01*
X258465Y260827D02*
Y263976D01*
X198425Y257480D02*
X202362D01*
X200394Y255512D02*
Y259449D01*
X218110Y257480D02*
X222047D01*
X220079Y255512D02*
Y259449D01*
X218110Y277165D02*
X222047D01*
X220079Y275197D02*
Y279134D01*
X198425Y277165D02*
X202362D01*
X200394Y275197D02*
Y279134D01*
X157087Y257480D02*
X161024D01*
X159055Y255512D02*
Y259449D01*
X176772Y257480D02*
X180709D01*
X178740Y255512D02*
Y259449D01*
X176772Y277165D02*
X180709D01*
X178740Y275197D02*
Y279134D01*
X157087Y277165D02*
X161024D01*
X159055Y275197D02*
Y279134D01*
X106890Y254528D02*
X114764D01*
X110827Y250590D02*
Y258465D01*
X105905Y109843D02*
X113779D01*
X109843Y105905D02*
Y113779D01*
X283071Y109843D02*
X290945D01*
X287008Y105905D02*
Y113779D01*
X283071Y287008D02*
X290945D01*
X287008Y283071D02*
Y290945D01*
X162894Y163976D02*
X165059D01*
X163976Y162894D02*
Y165059D01*
X170079Y163976D02*
X171653D01*
X170866Y163189D02*
Y164764D01*
X176969Y163976D02*
X178543D01*
X177756Y163189D02*
Y164764D01*
X184843Y163976D02*
X186417D01*
X185630Y163189D02*
Y164764D01*
X238976Y106890D02*
X240551D01*
X239764Y106102D02*
Y107677D01*
X169095Y179724D02*
X170669D01*
X169882Y178937D02*
Y180512D01*
X163189Y179724D02*
X164764D01*
X163976Y178937D02*
Y180512D01*
X137598Y178740D02*
X139173D01*
X138386Y177953D02*
Y179528D01*
X137598Y170866D02*
X139173D01*
X138386Y170079D02*
Y171653D01*
X105118Y132480D02*
X106693D01*
X105905Y131693D02*
Y133268D01*
X119882Y107874D02*
X121457D01*
X120669Y107087D02*
Y108661D01*
X161713Y105413D02*
X163287D01*
X162500Y104626D02*
Y106201D01*
X169783Y105905D02*
X171949D01*
X170866Y104823D02*
Y106988D01*
X170079Y133465D02*
X171653D01*
X170866Y132677D02*
Y134252D01*
X201772Y107087D02*
X203346D01*
X202559Y106299D02*
Y107874D01*
X291142Y117717D02*
X292717D01*
X291929Y116929D02*
Y118504D01*
X129331Y204331D02*
X131693D01*
X130512Y203150D02*
Y205512D01*
X107677Y225984D02*
X110039D01*
X108858Y224803D02*
Y227165D01*
X108442Y242717D02*
X111242D01*
X109843Y241317D02*
Y244116D01*
X121850Y277165D02*
X123425D01*
X122638Y276378D02*
Y277953D01*
X125787Y276181D02*
X127362D01*
X126575Y275394D02*
Y276969D01*
X135630Y260433D02*
X137205D01*
X136417Y259646D02*
Y261221D01*
X122835Y261417D02*
X124409D01*
X123622Y260630D02*
Y262205D01*
X131693Y258465D02*
X133268D01*
X132480Y257677D02*
Y259252D01*
X115332Y180709D02*
X118132D01*
X116732Y179309D02*
Y182109D01*
X225000Y155118D02*
X232874D01*
X228937Y151181D02*
Y159055D01*
X247008Y114764D02*
X254882D01*
X250945Y110827D02*
Y118701D01*
X225000Y204331D02*
X232874D01*
X228937Y200394D02*
Y208268D01*
X163976Y204331D02*
X171850D01*
X167913Y200394D02*
Y208268D01*
X175372Y171850D02*
X178172D01*
X176772Y170450D02*
Y173250D01*
X236395Y171850D02*
X239195D01*
X237795Y170450D02*
Y173250D01*
X287576Y162992D02*
X290376D01*
X288976Y161592D02*
Y164392D01*
X163976Y228937D02*
X171850D01*
X167913Y225000D02*
Y232874D01*
X225000Y228937D02*
X232874D01*
X228937Y225000D02*
Y232874D01*
X282087Y205315D02*
X289961D01*
X286024Y201378D02*
Y209252D01*
M02*
