G04*
G04 #@! TF.GenerationSoftware,Altium Limited,CircuitMaker,2.3.0 (2.3.0.3)*
G04*
G04 Layer_Color=16770453*
%FSLAX25Y25*%
%MOIN*%
G70*
G04*
G04 #@! TF.SameCoordinates,16FC6845-B66D-4252-ADF8-C3080C0A7A4D*
G04*
G04*
G04 #@! TF.FilePolarity,Positive*
G04*
G01*
G75*
%ADD95R,0.05000X0.05800*%
%ADD96R,0.06102X0.06102*%
%ADD97R,0.03543X0.06496*%
%ADD98R,0.06496X0.03543*%
%ADD99R,0.11811X0.19685*%
%ADD100R,0.05315X0.03937*%
%ADD101R,0.42323X0.37205*%
%ADD102R,0.03937X0.14961*%
D95*
X161614Y171850D02*
D03*
X144650D02*
D03*
X222638D02*
D03*
X205673D02*
D03*
X283661D02*
D03*
X266697D02*
D03*
D96*
X132185D02*
D03*
X124902D02*
D03*
X193209D02*
D03*
X185925D02*
D03*
X255217D02*
D03*
X247933D02*
D03*
D97*
X173524Y189567D02*
D03*
X162303D02*
D03*
X234547D02*
D03*
X223327D02*
D03*
D98*
X287992Y183957D02*
D03*
Y195177D02*
D03*
D99*
X155905Y136417D02*
D03*
X118898D02*
D03*
X179921D02*
D03*
X216929D02*
D03*
X277953D02*
D03*
X240945D02*
D03*
D100*
X133465Y290551D02*
D03*
Y283465D02*
D03*
X117717Y283465D02*
D03*
Y290551D02*
D03*
D101*
X137402Y228937D02*
D03*
X198425Y228937D02*
D03*
X259449D02*
D03*
D102*
X150787Y189567D02*
D03*
X144095D02*
D03*
X137402D02*
D03*
X130709D02*
D03*
X124016D02*
D03*
X211811Y189567D02*
D03*
X205118D02*
D03*
X198425D02*
D03*
X191732D02*
D03*
X185039D02*
D03*
X272835D02*
D03*
X266142D02*
D03*
X259449D02*
D03*
X252756D02*
D03*
X246063D02*
D03*
M02*
