G04*
G04 #@! TF.GenerationSoftware,Altium Limited,CircuitMaker,2.3.0 (2.3.0.3)*
G04*
G04 Layer_Color=2752767*
%FSLAX25Y25*%
%MOIN*%
G70*
G04*
G04 #@! TF.SameCoordinates,16FC6845-B66D-4252-ADF8-C3080C0A7A4D*
G04*
G04*
G04 #@! TF.FilePolarity,Positive*
G04*
G01*
G75*
%ADD15C,0.00200*%
%ADD111C,0.00267*%
%ADD112C,0.00133*%
D15*
X141798Y267547D02*
Y269146D01*
X143398D01*
Y267547D01*
X141798D01*
X107783D02*
Y269146D01*
X109383D01*
Y267547D01*
X107783D01*
X292421Y147428D02*
X291621Y149028D01*
X293221D01*
X292421Y147428D01*
Y135617D02*
X291621Y137217D01*
X293221D01*
X292421Y135617D01*
X109843Y187783D02*
X110242Y188183D01*
X110643D01*
X110242Y188583D01*
X110643Y188983D01*
X110242D01*
X109843Y189383D01*
X109442Y188983D01*
X109043D01*
X109442Y188583D01*
X109043Y188183D01*
X109442D01*
X109843Y187783D01*
Y197625D02*
X110242Y198025D01*
X110643D01*
X110242Y198425D01*
X110643Y198825D01*
X110242D01*
X109843Y199225D01*
X109442Y198825D01*
X109043D01*
X109442Y198425D01*
X109043Y198025D01*
X109442D01*
X109843Y197625D01*
Y207468D02*
X110242Y207868D01*
X110643D01*
X110242Y208268D01*
X110643Y208668D01*
X110242D01*
X109843Y209068D01*
X109442Y208668D01*
X109043D01*
X109442Y208268D01*
X109043Y207868D01*
X109442D01*
X109843Y207468D01*
X238767Y273413D02*
X239167Y274213D01*
X238767Y275013D01*
X239567Y274613D01*
X240367Y275013D01*
X239967Y274213D01*
X240367Y273413D01*
X239567Y273813D01*
X238767Y273413D01*
X257665Y286208D02*
X258065Y287008D01*
X257665Y287808D01*
X258465Y287408D01*
X259265Y287808D01*
X258865Y287008D01*
X259265Y286208D01*
X258465Y286608D01*
X257665Y286208D01*
X258065Y262002D02*
Y261602D01*
X258865D01*
Y262002D01*
X259265D01*
Y262802D01*
X258865D01*
Y263202D01*
X258065D01*
Y262802D01*
X257665D01*
Y262002D01*
X258065D01*
X199594Y256680D02*
X199994D01*
X200394Y257080D01*
X200794Y256680D01*
X201194D01*
Y257080D01*
X200794Y257480D01*
X201194Y257880D01*
Y258280D01*
X200794D01*
X200394Y257880D01*
X199994Y258280D01*
X199594D01*
Y257880D01*
X199994Y257480D01*
X199594Y257080D01*
Y256680D01*
X219279D02*
X219679D01*
X220079Y257080D01*
X220479Y256680D01*
X220879D01*
Y257080D01*
X220479Y257480D01*
X220879Y257880D01*
Y258280D01*
X220479D01*
X220079Y257880D01*
X219679Y258280D01*
X219279D01*
Y257880D01*
X219679Y257480D01*
X219279Y257080D01*
Y256680D01*
Y276365D02*
X219679D01*
X220079Y276765D01*
X220479Y276365D01*
X220879D01*
Y276765D01*
X220479Y277165D01*
X220879Y277565D01*
Y277965D01*
X220479D01*
X220079Y277565D01*
X219679Y277965D01*
X219279D01*
Y277565D01*
X219679Y277165D01*
X219279Y276765D01*
Y276365D01*
X199594D02*
X199994D01*
X200394Y276765D01*
X200794Y276365D01*
X201194D01*
Y276765D01*
X200794Y277165D01*
X201194Y277565D01*
Y277965D01*
X200794D01*
X200394Y277565D01*
X199994Y277965D01*
X199594D01*
Y277565D01*
X199994Y277165D01*
X199594Y276765D01*
Y276365D01*
X158255Y256680D02*
X158655D01*
X159055Y257080D01*
X159455Y256680D01*
X159855D01*
Y257080D01*
X159455Y257480D01*
X159855Y257880D01*
Y258280D01*
X159455D01*
X159055Y257880D01*
X158655Y258280D01*
X158255D01*
Y257880D01*
X158655Y257480D01*
X158255Y257080D01*
Y256680D01*
X177940D02*
X178340D01*
X178740Y257080D01*
X179140Y256680D01*
X179540D01*
Y257080D01*
X179140Y257480D01*
X179540Y257880D01*
Y258280D01*
X179140D01*
X178740Y257880D01*
X178340Y258280D01*
X177940D01*
Y257880D01*
X178340Y257480D01*
X177940Y257080D01*
Y256680D01*
Y276365D02*
X178340D01*
X178740Y276765D01*
X179140Y276365D01*
X179540D01*
Y276765D01*
X179140Y277165D01*
X179540Y277565D01*
Y277965D01*
X179140D01*
X178740Y277565D01*
X178340Y277965D01*
X177940D01*
Y277565D01*
X178340Y277165D01*
X177940Y276765D01*
Y276365D01*
X158255D02*
X158655D01*
X159055Y276765D01*
X159455Y276365D01*
X159855D01*
Y276765D01*
X159455Y277165D01*
X159855Y277565D01*
Y277965D01*
X159455D01*
X159055Y277565D01*
X158655Y277965D01*
X158255D01*
Y277565D01*
X158655Y277165D01*
X158255Y276765D01*
Y276365D01*
X110027Y254528D02*
X110827Y255328D01*
X111627Y254528D01*
X110827Y253728D01*
X110027Y254528D01*
X109043Y109843D02*
X109843Y110643D01*
X110643Y109843D01*
X109843Y109043D01*
X109043Y109843D01*
X286208D02*
X287008Y110643D01*
X287808Y109843D01*
X287008Y109043D01*
X286208Y109843D01*
Y287008D02*
X287008Y287808D01*
X287808Y287008D01*
X287008Y286208D01*
X286208Y287008D01*
X163176Y163176D02*
Y164776D01*
X164776D01*
Y163176D01*
X163176D01*
X163576Y163576D02*
Y164376D01*
X164376D01*
Y163576D01*
X163576D01*
X170066Y105105D02*
Y106705D01*
X171666D01*
Y105105D01*
X170066D01*
X170466Y105506D02*
Y106306D01*
X171266D01*
Y105506D01*
X170466D01*
X130512Y203531D02*
X129712Y205131D01*
X131312D01*
X130512Y203531D01*
Y203931D02*
X130112Y204731D01*
X130912D01*
X130512Y203931D01*
X108858Y225184D02*
X108058Y226784D01*
X109658D01*
X108858Y225184D01*
Y225584D02*
X108458Y226384D01*
X109258D01*
X108858Y225584D01*
X109843Y241916D02*
X110242Y242317D01*
X110643D01*
X110242Y242717D01*
X110643Y243116D01*
X110242D01*
X109843Y243516D01*
X109442Y243116D01*
X109043D01*
X109442Y242717D01*
X109043Y242317D01*
X109442D01*
X109843Y241916D01*
Y242317D02*
X110043Y242516D01*
X110242D01*
X110043Y242717D01*
X110242Y242916D01*
X110043D01*
X109843Y243116D01*
X109643Y242916D01*
X109442D01*
X109643Y242717D01*
X109442Y242516D01*
X109643D01*
X109843Y242317D01*
X116732Y179909D02*
X117132Y180309D01*
X117532D01*
X117132Y180709D01*
X117532Y181109D01*
X117132D01*
X116732Y181509D01*
X116332Y181109D01*
X115932D01*
X116332Y180709D01*
X115932Y180309D01*
X116332D01*
X116732Y179909D01*
Y180309D02*
X116932Y180509D01*
X117132D01*
X116932Y180709D01*
X117132Y180909D01*
X116932D01*
X116732Y181109D01*
X116532Y180909D01*
X116332D01*
X116532Y180709D01*
X116332Y180509D01*
X116532D01*
X116732Y180309D01*
X228137Y155118D02*
X228937Y155918D01*
X229737Y155118D01*
X228937Y154318D01*
X228137Y155118D01*
X250145Y114764D02*
X250945Y115564D01*
X251745Y114764D01*
X250945Y113964D01*
X250145Y114764D01*
X228137Y204331D02*
X228937Y205131D01*
X229737Y204331D01*
X228937Y203531D01*
X228137Y204331D01*
X167113D02*
X167913Y205131D01*
X168713Y204331D01*
X167913Y203531D01*
X167113Y204331D01*
X176772Y171050D02*
X177172Y171450D01*
X177572D01*
X177172Y171850D01*
X177572Y172250D01*
X177172D01*
X176772Y172650D01*
X176372Y172250D01*
X175972D01*
X176372Y171850D01*
X175972Y171450D01*
X176372D01*
X176772Y171050D01*
Y171450D02*
X176972Y171650D01*
X177172D01*
X176972Y171850D01*
X177172Y172050D01*
X176972D01*
X176772Y172250D01*
X176572Y172050D01*
X176372D01*
X176572Y171850D01*
X176372Y171650D01*
X176572D01*
X176772Y171450D01*
X237795Y171050D02*
X238195Y171450D01*
X238595D01*
X238195Y171850D01*
X238595Y172250D01*
X238195D01*
X237795Y172650D01*
X237395Y172250D01*
X236995D01*
X237395Y171850D01*
X236995Y171450D01*
X237395D01*
X237795Y171050D01*
Y171450D02*
X237995Y171650D01*
X238195D01*
X237995Y171850D01*
X238195Y172050D01*
X237995D01*
X237795Y172250D01*
X237595Y172050D01*
X237395D01*
X237595Y171850D01*
X237395Y171650D01*
X237595D01*
X237795Y171450D01*
X288976Y162192D02*
X289376Y162592D01*
X289776D01*
X289376Y162992D01*
X289776Y163392D01*
X289376D01*
X288976Y163792D01*
X288576Y163392D01*
X288176D01*
X288576Y162992D01*
X288176Y162592D01*
X288576D01*
X288976Y162192D01*
Y162592D02*
X289176Y162792D01*
X289376D01*
X289176Y162992D01*
X289376Y163192D01*
X289176D01*
X288976Y163392D01*
X288776Y163192D01*
X288576D01*
X288776Y162992D01*
X288576Y162792D01*
X288776D01*
X288976Y162592D01*
X167113Y228937D02*
X167913Y229737D01*
X168713Y228937D01*
X167913Y228137D01*
X167113Y228937D01*
X228137D02*
X228937Y229737D01*
X229737Y228937D01*
X228937Y228137D01*
X228137Y228937D01*
X285224Y205315D02*
X286024Y206115D01*
X286824Y205315D01*
X286024Y204515D01*
X285224Y205315D01*
D111*
X109383Y289449D02*
G03*
X109383Y289449I-800J0D01*
G01*
X143398D02*
G03*
X143398Y289449I-800J0D01*
G01*
X171666Y163976D02*
G03*
X171666Y163976I-800J0D01*
G01*
X178556D02*
G03*
X178556Y163976I-800J0D01*
G01*
X186430D02*
G03*
X186430Y163976I-800J0D01*
G01*
X240564Y106890D02*
G03*
X240564Y106890I-800J0D01*
G01*
X170682Y179724D02*
G03*
X170682Y179724I-800J0D01*
G01*
X164776D02*
G03*
X164776Y179724I-800J0D01*
G01*
X139186Y178740D02*
G03*
X139186Y178740I-800J0D01*
G01*
Y170866D02*
G03*
X139186Y170866I-800J0D01*
G01*
X106705Y132480D02*
G03*
X106705Y132480I-800J0D01*
G01*
X121469Y107874D02*
G03*
X121469Y107874I-800J0D01*
G01*
X163300Y105413D02*
G03*
X163300Y105413I-800J0D01*
G01*
X171666Y133465D02*
G03*
X171666Y133465I-800J0D01*
G01*
X203359Y107087D02*
G03*
X203359Y107087I-800J0D01*
G01*
X292729Y117717D02*
G03*
X292729Y117717I-800J0D01*
G01*
X123438Y277165D02*
G03*
X123438Y277165I-800J0D01*
G01*
X127375Y276181D02*
G03*
X127375Y276181I-800J0D01*
G01*
X137217Y260433D02*
G03*
X137217Y260433I-800J0D01*
G01*
X124422Y261417D02*
G03*
X124422Y261417I-800J0D01*
G01*
X133280Y258465D02*
G03*
X133280Y258465I-800J0D01*
G01*
D112*
X171266Y163976D02*
G03*
X171266Y163976I-400J0D01*
G01*
X178156D02*
G03*
X178156Y163976I-400J0D01*
G01*
X186030D02*
G03*
X186030Y163976I-400J0D01*
G01*
X240164Y106890D02*
G03*
X240164Y106890I-400J0D01*
G01*
X170282Y179724D02*
G03*
X170282Y179724I-400J0D01*
G01*
X164376D02*
G03*
X164376Y179724I-400J0D01*
G01*
X138786Y178740D02*
G03*
X138786Y178740I-400J0D01*
G01*
Y170866D02*
G03*
X138786Y170866I-400J0D01*
G01*
X106306Y132480D02*
G03*
X106306Y132480I-400J0D01*
G01*
X121069Y107874D02*
G03*
X121069Y107874I-400J0D01*
G01*
X162900Y105413D02*
G03*
X162900Y105413I-400J0D01*
G01*
X171266Y133465D02*
G03*
X171266Y133465I-400J0D01*
G01*
X202959Y107087D02*
G03*
X202959Y107087I-400J0D01*
G01*
X292329Y117717D02*
G03*
X292329Y117717I-400J0D01*
G01*
X123038Y277165D02*
G03*
X123038Y277165I-400J0D01*
G01*
X126975Y276181D02*
G03*
X126975Y276181I-400J0D01*
G01*
X136817Y260433D02*
G03*
X136817Y260433I-400J0D01*
G01*
X124022Y261417D02*
G03*
X124022Y261417I-400J0D01*
G01*
X132880Y258465D02*
G03*
X132880Y258465I-400J0D01*
G01*
M02*
