M48
;Layer_Color=6321
;FILE_FORMAT=2:4
INCH,TZ
;TYPE=PLATED
T1F00S00C0.0157
T2F00S00C0.0217
T3F00S00C0.0236
T5F00S00C0.0280
T6F00S00C0.0300
T8F00S00C0.0394
T9F00S00C0.0787
%
T01
X12067Y10787
X10591Y13248
X17087Y13346
X16250Y10541
X20256Y10709
X23976Y10689
X29193Y11772
X18563Y16398
X17776
X17087
X16988Y17972
X16398
X13839Y17874
Y17087
X13642Y26043
X13248Y25846
X12362Y26142
X12264Y27717
X12657Y27618
T02
X17087Y10591
X16398Y16398
T03
X13051Y20433
X10886Y22598
T05
X17677Y17185
X23780
X28898Y16299
X11673Y18071
X10984Y24272
T06
X10984Y18858
Y19843
Y20827
T08
X15906Y25748
X17874
Y27717
X15906
X20039Y27717
Y25748
X22008
Y27717
T09
X10984Y10984
X25094Y11476
X28701Y10984
X22894Y15512
Y20433
Y22894
X16791
Y20433
X28602Y20531
X28701Y28701
X11083Y25453
M30
