G04*
G04 #@! TF.GenerationSoftware,Altium Limited,CircuitMaker,2.3.0 (2.3.0.3)*
G04*
G04 Layer_Physical_Order=3*
G04 Layer_Color=16765976*
%FSLAX25Y25*%
%MOIN*%
G70*
G04*
G04 #@! TF.SameCoordinates,16FC6845-B66D-4252-ADF8-C3080C0A7A4D*
G04*
G04*
G04 #@! TF.FilePolarity,Positive*
G04*
G01*
G75*
%ADD10C,0.01000*%
%ADD69C,0.06000*%
%ADD73C,0.07874*%
%ADD75C,0.02362*%
%ADD77C,0.05000*%
%ADD78C,0.11811*%
%ADD88C,0.23622*%
%ADD89C,0.01968*%
G36*
X289767Y296466D02*
X291587Y295712D01*
X293225Y294618D01*
X294618Y293225D01*
X295712Y291587D01*
X296466Y289767D01*
X296850Y287835D01*
Y286850D01*
Y110000D01*
Y109015D01*
X296466Y107083D01*
X295712Y105263D01*
X294618Y103625D01*
X293225Y102233D01*
X291587Y101138D01*
X289767Y100384D01*
X287835Y100000D01*
X109015D01*
X107083Y100384D01*
X105263Y101138D01*
X103625Y102233D01*
X102233Y103625D01*
X101138Y105263D01*
X100384Y107083D01*
X100000Y109015D01*
Y110000D01*
Y174803D01*
Y286850D01*
Y287835D01*
X100384Y289767D01*
X101138Y291587D01*
X102233Y293225D01*
X103625Y294618D01*
X105263Y295712D01*
X107083Y296466D01*
X109015Y296850D01*
X287835D01*
X289767Y296466D01*
D02*
G37*
%LPC*%
G36*
X142598Y295594D02*
X141772Y295485D01*
X141002Y295166D01*
X140341Y294659D01*
X139833Y293998D01*
X139515Y293228D01*
X139406Y292402D01*
Y286496D01*
X139515Y285670D01*
X139833Y284900D01*
X140341Y284239D01*
X141002Y283731D01*
X141772Y283412D01*
X142598Y283303D01*
X143425Y283412D01*
X144195Y283731D01*
X144856Y284239D01*
X145363Y284900D01*
X145682Y285670D01*
X145791Y286496D01*
Y292402D01*
X145682Y293228D01*
X145363Y293998D01*
X144856Y294659D01*
X144195Y295166D01*
X143425Y295485D01*
X142598Y295594D01*
D02*
G37*
G36*
X108583D02*
X107756Y295485D01*
X106986Y295166D01*
X106325Y294659D01*
X105818Y293998D01*
X105499Y293228D01*
X105390Y292402D01*
Y286496D01*
X105499Y285670D01*
X105818Y284900D01*
X106325Y284239D01*
X106986Y283731D01*
X107756Y283412D01*
X108583Y283303D01*
X109409Y283412D01*
X110179Y283731D01*
X110840Y284239D01*
X111348Y284900D01*
X111667Y285670D01*
X111775Y286496D01*
Y292402D01*
X111667Y293228D01*
X111348Y293998D01*
X110840Y294659D01*
X110179Y295166D01*
X109409Y295485D01*
X108583Y295594D01*
D02*
G37*
G36*
X262402Y291987D02*
X254528D01*
X253239Y291818D01*
X252038Y291320D01*
X251006Y290529D01*
X250215Y289498D01*
X249718Y288297D01*
X249548Y287008D01*
X249718Y285719D01*
X250215Y284518D01*
X251006Y283487D01*
X252038Y282695D01*
X253239Y282198D01*
X254528Y282028D01*
X262402D01*
X263690Y282198D01*
X264891Y282695D01*
X265923Y283487D01*
X266714Y284518D01*
X267212Y285719D01*
X267381Y287008D01*
X267212Y288297D01*
X266714Y289498D01*
X265923Y290529D01*
X264891Y291320D01*
X263690Y291818D01*
X262402Y291987D01*
D02*
G37*
G36*
X287590Y292913D02*
X286426D01*
X285285Y292686D01*
X284211Y292241D01*
X283243Y291595D01*
X282421Y290772D01*
X281774Y289805D01*
X281329Y288730D01*
X281102Y287590D01*
Y286426D01*
X281329Y285285D01*
X281774Y284211D01*
X282421Y283243D01*
X283243Y282421D01*
X284211Y281774D01*
X285285Y281329D01*
X286426Y281102D01*
X287590D01*
X288730Y281329D01*
X289805Y281774D01*
X290772Y282421D01*
X291595Y283243D01*
X292241Y284211D01*
X292686Y285285D01*
X292913Y286426D01*
Y287590D01*
X292686Y288730D01*
X292241Y289805D01*
X291595Y290772D01*
X290772Y291595D01*
X289805Y292241D01*
X288730Y292686D01*
X287590Y292913D01*
D02*
G37*
G36*
X123001Y279921D02*
X122275D01*
X121574Y279733D01*
X120946Y279371D01*
X120432Y278857D01*
X120070Y278229D01*
X119882Y277528D01*
Y276802D01*
X120070Y276102D01*
X120432Y275473D01*
X120946Y274960D01*
X121574Y274597D01*
X122275Y274410D01*
X123001D01*
X123702Y274597D01*
X124156Y274859D01*
X124370Y274489D01*
X124883Y273976D01*
X125511Y273613D01*
X126212Y273425D01*
X126938D01*
X127638Y273613D01*
X128267Y273976D01*
X128780Y274489D01*
X129143Y275117D01*
X129331Y275818D01*
Y276544D01*
X129143Y277245D01*
X128780Y277873D01*
X128267Y278386D01*
X127638Y278749D01*
X126938Y278937D01*
X126212D01*
X125511Y278749D01*
X125057Y278487D01*
X124843Y278857D01*
X124330Y279371D01*
X123702Y279733D01*
X123001Y279921D01*
D02*
G37*
G36*
X179390Y282102D02*
X178090D01*
X176835Y281766D01*
X175709Y281116D01*
X174790Y280197D01*
X174140Y279071D01*
X173803Y277815D01*
Y276515D01*
X174140Y275260D01*
X174790Y274134D01*
X175709Y273215D01*
X176835Y272565D01*
X178090Y272228D01*
X179390D01*
X180646Y272565D01*
X181772Y273215D01*
X182691Y274134D01*
X183341Y275260D01*
X183677Y276515D01*
Y277815D01*
X183341Y279071D01*
X182691Y280197D01*
X181772Y281116D01*
X180646Y281766D01*
X179390Y282102D01*
D02*
G37*
G36*
X159705D02*
X158405D01*
X157150Y281766D01*
X156024Y281116D01*
X155104Y280197D01*
X154455Y279071D01*
X154118Y277815D01*
Y276515D01*
X154455Y275260D01*
X155104Y274134D01*
X156024Y273215D01*
X157150Y272565D01*
X158405Y272228D01*
X159705D01*
X160961Y272565D01*
X162086Y273215D01*
X163006Y274134D01*
X163656Y275260D01*
X163992Y276515D01*
Y277815D01*
X163656Y279071D01*
X163006Y280197D01*
X162086Y281116D01*
X160961Y281766D01*
X159705Y282102D01*
D02*
G37*
G36*
X220729Y282102D02*
X219429D01*
X218173Y281766D01*
X217047Y281116D01*
X216128Y280197D01*
X215478Y279071D01*
X215142Y277815D01*
Y276515D01*
X215478Y275260D01*
X216128Y274134D01*
X217047Y273215D01*
X218173Y272565D01*
X219429Y272228D01*
X220729D01*
X221984Y272565D01*
X223110Y273215D01*
X224029Y274134D01*
X224679Y275260D01*
X225016Y276515D01*
Y277815D01*
X224679Y279071D01*
X224029Y280197D01*
X223110Y281116D01*
X221984Y281766D01*
X220729Y282102D01*
D02*
G37*
G36*
X239567Y283129D02*
X238278Y282960D01*
X237077Y282462D01*
X236046Y281671D01*
X235255Y280639D01*
X234757Y279438D01*
X234587Y278150D01*
Y270276D01*
X234757Y268987D01*
X235255Y267786D01*
X236046Y266755D01*
X237077Y265963D01*
X238278Y265466D01*
X239567Y265296D01*
X240856Y265466D01*
X242057Y265963D01*
X243088Y266755D01*
X243879Y267786D01*
X244377Y268987D01*
X244547Y270276D01*
Y278150D01*
X244377Y279438D01*
X243879Y280639D01*
X243088Y281671D01*
X242057Y282462D01*
X240856Y282960D01*
X239567Y283129D01*
D02*
G37*
G36*
X142598Y273508D02*
X141772Y273399D01*
X141002Y273080D01*
X140341Y272572D01*
X139833Y271911D01*
X139515Y271141D01*
X139406Y270315D01*
Y266378D01*
X139515Y265552D01*
X139833Y264782D01*
X140341Y264120D01*
X141002Y263613D01*
X141772Y263294D01*
X142598Y263185D01*
X143425Y263294D01*
X144195Y263613D01*
X144856Y264120D01*
X145363Y264782D01*
X145682Y265552D01*
X145791Y266378D01*
Y270315D01*
X145682Y271141D01*
X145363Y271911D01*
X144856Y272572D01*
X144195Y273080D01*
X143425Y273399D01*
X142598Y273508D01*
D02*
G37*
G36*
X108583D02*
X107756Y273399D01*
X106986Y273080D01*
X106325Y272572D01*
X105818Y271911D01*
X105499Y271141D01*
X105390Y270315D01*
Y266378D01*
X105499Y265552D01*
X105818Y264782D01*
X106325Y264120D01*
X106986Y263613D01*
X107756Y263294D01*
X108583Y263185D01*
X109409Y263294D01*
X110179Y263613D01*
X110840Y264120D01*
X111348Y264782D01*
X111667Y265552D01*
X111775Y266378D01*
Y270315D01*
X111667Y271141D01*
X111348Y271911D01*
X110840Y272572D01*
X110179Y273080D01*
X109409Y273399D01*
X108583Y273508D01*
D02*
G37*
G36*
X136780Y263189D02*
X136055D01*
X135354Y263001D01*
X134725Y262638D01*
X134212Y262125D01*
X133849Y261497D01*
X133823Y261401D01*
X133230Y261117D01*
X132843Y261221D01*
X132117D01*
X131417Y261033D01*
X130788Y260670D01*
X130275Y260157D01*
X129912Y259528D01*
X129724Y258827D01*
Y258102D01*
X129912Y257401D01*
X130275Y256772D01*
X130788Y256259D01*
X131417Y255896D01*
X132117Y255709D01*
X132843D01*
X133544Y255896D01*
X134172Y256259D01*
X134686Y256772D01*
X135048Y257401D01*
X135074Y257497D01*
X135668Y257781D01*
X136055Y257677D01*
X136780D01*
X137481Y257865D01*
X138110Y258228D01*
X138623Y258741D01*
X138985Y259369D01*
X139173Y260070D01*
Y260796D01*
X138985Y261497D01*
X138623Y262125D01*
X138110Y262638D01*
X137481Y263001D01*
X136780Y263189D01*
D02*
G37*
G36*
X123985Y264173D02*
X123259D01*
X122558Y263985D01*
X121930Y263623D01*
X121417Y263109D01*
X121054Y262481D01*
X120866Y261780D01*
Y261054D01*
X121054Y260354D01*
X121417Y259725D01*
X121930Y259212D01*
X122558Y258849D01*
X123259Y258661D01*
X123985D01*
X124686Y258849D01*
X125314Y259212D01*
X125827Y259725D01*
X126190Y260354D01*
X126378Y261054D01*
Y261780D01*
X126190Y262481D01*
X125827Y263109D01*
X125314Y263623D01*
X124686Y263985D01*
X123985Y264173D01*
D02*
G37*
G36*
X263386Y267381D02*
X253543D01*
X252255Y267212D01*
X251054Y266714D01*
X250022Y265923D01*
X249231Y264891D01*
X248733Y263690D01*
X248564Y262402D01*
X248733Y261113D01*
X249231Y259912D01*
X250022Y258880D01*
X251054Y258089D01*
X252255Y257592D01*
X253543Y257422D01*
X263386D01*
X264675Y257592D01*
X265876Y258089D01*
X266907Y258880D01*
X267698Y259912D01*
X268196Y261113D01*
X268365Y262402D01*
X268196Y263690D01*
X267698Y264891D01*
X266907Y265923D01*
X265876Y266714D01*
X264675Y267212D01*
X263386Y267381D01*
D02*
G37*
G36*
X179390Y262417D02*
X178090D01*
X176835Y262081D01*
X175709Y261431D01*
X174790Y260512D01*
X174140Y259386D01*
X173803Y258130D01*
Y256830D01*
X174140Y255575D01*
X174790Y254449D01*
X175709Y253530D01*
X176835Y252880D01*
X178090Y252543D01*
X179390D01*
X180646Y252880D01*
X181772Y253530D01*
X182691Y254449D01*
X183341Y255575D01*
X183677Y256830D01*
Y258130D01*
X183341Y259386D01*
X182691Y260512D01*
X181772Y261431D01*
X180646Y262081D01*
X179390Y262417D01*
D02*
G37*
G36*
X159705D02*
X158405D01*
X157150Y262081D01*
X156024Y261431D01*
X155104Y260512D01*
X154455Y259386D01*
X154118Y258130D01*
Y256830D01*
X154455Y255575D01*
X155104Y254449D01*
X156024Y253530D01*
X157150Y252880D01*
X158405Y252543D01*
X159705D01*
X160961Y252880D01*
X162086Y253530D01*
X163006Y254449D01*
X163656Y255575D01*
X163992Y256830D01*
Y258130D01*
X163656Y259386D01*
X163006Y260512D01*
X162086Y261431D01*
X160961Y262081D01*
X159705Y262417D01*
D02*
G37*
G36*
X220729Y262417D02*
X219429D01*
X218173Y262081D01*
X217047Y261431D01*
X216128Y260512D01*
X215478Y259386D01*
X215142Y258130D01*
Y256830D01*
X215478Y255575D01*
X216128Y254449D01*
X217047Y253530D01*
X218173Y252880D01*
X219429Y252543D01*
X220729D01*
X221984Y252880D01*
X223110Y253530D01*
X224029Y254449D01*
X224679Y255575D01*
X225016Y256830D01*
Y258130D01*
X224679Y259386D01*
X224029Y260512D01*
X223110Y261431D01*
X221984Y262081D01*
X220729Y262417D01*
D02*
G37*
G36*
X111408Y260433D02*
X110245D01*
X109104Y260206D01*
X108029Y259761D01*
X107062Y259115D01*
X106240Y258292D01*
X105593Y257325D01*
X105148Y256250D01*
X104921Y255109D01*
Y253946D01*
X105148Y252805D01*
X105593Y251730D01*
X106240Y250763D01*
X107062Y249940D01*
X108029Y249294D01*
X109104Y248849D01*
X110245Y248622D01*
X111408D01*
X112549Y248849D01*
X113624Y249294D01*
X114591Y249940D01*
X115414Y250763D01*
X116060Y251730D01*
X116505Y252805D01*
X116732Y253946D01*
Y255109D01*
X116505Y256250D01*
X116060Y257325D01*
X115414Y258292D01*
X114591Y259115D01*
X113624Y259761D01*
X112549Y260206D01*
X111408Y260433D01*
D02*
G37*
G36*
X200394Y290016D02*
X198383Y289858D01*
X196423Y289387D01*
X194560Y288615D01*
X192840Y287562D01*
X191307Y286252D01*
X189997Y284719D01*
X188944Y282999D01*
X188172Y281136D01*
X187701Y279176D01*
X187543Y277165D01*
Y257480D01*
X187701Y255470D01*
X187791Y255098D01*
X187701Y254727D01*
X187543Y252716D01*
Y244740D01*
X112716D01*
X112643Y244866D01*
X111992Y245517D01*
X111194Y245978D01*
X110303Y246217D01*
X109382D01*
X108492Y245978D01*
X107694Y245517D01*
X107042Y244866D01*
X106581Y244068D01*
X106342Y243177D01*
Y242256D01*
X106581Y241366D01*
X107042Y240567D01*
X107694Y239916D01*
X108492Y239455D01*
X109382Y239216D01*
X110303D01*
X111194Y239455D01*
X111992Y239916D01*
X112643Y240567D01*
X112716Y240693D01*
X187543D01*
Y166631D01*
X187043Y166343D01*
X186694Y166544D01*
X185993Y166732D01*
X185267D01*
X184566Y166544D01*
X183938Y166182D01*
X183425Y165668D01*
X183062Y165040D01*
X182874Y164339D01*
Y163614D01*
X183062Y162913D01*
X183425Y162284D01*
X183938Y161771D01*
X184566Y161408D01*
X185267Y161221D01*
X185993D01*
X186694Y161408D01*
X187295Y161755D01*
X187326Y161770D01*
X187839Y161581D01*
X188313Y159202D01*
X189274Y156370D01*
X190596Y153688D01*
X192258Y151202D01*
X194229Y148954D01*
X196477Y146982D01*
X198964Y145321D01*
X201646Y143998D01*
X204477Y143037D01*
X207410Y142454D01*
X210394Y142258D01*
Y142268D01*
X228937D01*
X230947Y142426D01*
X232908Y142896D01*
X234771Y143668D01*
X236490Y144722D01*
X238024Y146031D01*
X239333Y147565D01*
X240387Y149284D01*
X241159Y151147D01*
X241629Y153108D01*
X241788Y155118D01*
X241629Y157128D01*
X241159Y159089D01*
X240387Y160952D01*
X239333Y162671D01*
X238024Y164205D01*
X236490Y165515D01*
X234771Y166568D01*
X232908Y167340D01*
X230947Y167810D01*
X228937Y167969D01*
X213244D01*
Y252716D01*
X213086Y254727D01*
X212997Y255098D01*
X213086Y255470D01*
X213244Y257480D01*
Y277165D01*
X213086Y279176D01*
X212615Y281136D01*
X211844Y282999D01*
X210790Y284719D01*
X209481Y286252D01*
X207947Y287562D01*
X206228Y288615D01*
X204365Y289387D01*
X202404Y289858D01*
X200394Y290016D01*
D02*
G37*
G36*
X109275Y229150D02*
X108441D01*
X107636Y228934D01*
X106915Y228517D01*
X106325Y227928D01*
X105909Y227206D01*
X105693Y226401D01*
Y225568D01*
X105909Y224763D01*
X106325Y224041D01*
X106915Y223451D01*
X107636Y223035D01*
X108441Y222819D01*
X109275D01*
X110080Y223035D01*
X110802Y223451D01*
X111391Y224041D01*
X111808Y224763D01*
X112024Y225568D01*
Y226401D01*
X111808Y227206D01*
X111391Y227928D01*
X110802Y228517D01*
X110080Y228934D01*
X109275Y229150D01*
D02*
G37*
G36*
X229617Y235842D02*
X228257D01*
X226923Y235577D01*
X225666Y235057D01*
X224535Y234301D01*
X223573Y233339D01*
X222817Y232208D01*
X222297Y230951D01*
X222031Y229617D01*
Y228257D01*
X222297Y226923D01*
X222817Y225666D01*
X223573Y224535D01*
X224535Y223573D01*
X225666Y222817D01*
X226923Y222297D01*
X228257Y222031D01*
X229617D01*
X230951Y222297D01*
X232208Y222817D01*
X233339Y223573D01*
X234301Y224535D01*
X235057Y225666D01*
X235577Y226923D01*
X235842Y228257D01*
Y229617D01*
X235577Y230951D01*
X235057Y232208D01*
X234301Y233339D01*
X233339Y234301D01*
X232208Y235057D01*
X230951Y235577D01*
X229617Y235842D01*
D02*
G37*
G36*
X168594D02*
X167233D01*
X165899Y235577D01*
X164642Y235057D01*
X163511Y234301D01*
X162549Y233339D01*
X161794Y232208D01*
X161273Y230951D01*
X161008Y229617D01*
Y228257D01*
X161273Y226923D01*
X161794Y225666D01*
X162549Y224535D01*
X163511Y223573D01*
X164642Y222817D01*
X165899Y222297D01*
X167233Y222031D01*
X168594D01*
X169928Y222297D01*
X171184Y222817D01*
X172315Y223573D01*
X173277Y224535D01*
X174033Y225666D01*
X174554Y226923D01*
X174819Y228257D01*
Y229617D01*
X174554Y230951D01*
X174033Y232208D01*
X173277Y233339D01*
X172315Y234301D01*
X171184Y235057D01*
X169928Y235577D01*
X168594Y235842D01*
D02*
G37*
G36*
X130929Y207496D02*
X130095D01*
X129290Y207280D01*
X128568Y206864D01*
X127979Y206274D01*
X127562Y205553D01*
X127347Y204747D01*
Y203914D01*
X127562Y203109D01*
X127979Y202387D01*
X128568Y201798D01*
X129290Y201381D01*
X130095Y201165D01*
X130929D01*
X131734Y201381D01*
X132455Y201798D01*
X133045Y202387D01*
X133461Y203109D01*
X133677Y203914D01*
Y204747D01*
X133461Y205553D01*
X133045Y206274D01*
X132455Y206864D01*
X131734Y207280D01*
X130929Y207496D01*
D02*
G37*
G36*
X286704Y212221D02*
X285344D01*
X284009Y211955D01*
X282753Y211435D01*
X281622Y210679D01*
X280660Y209717D01*
X279904Y208586D01*
X279383Y207329D01*
X279118Y205995D01*
Y204635D01*
X279383Y203301D01*
X279904Y202044D01*
X280660Y200913D01*
X281622Y199951D01*
X282753Y199195D01*
X284009Y198675D01*
X285344Y198409D01*
X286704D01*
X288038Y198675D01*
X289295Y199195D01*
X290426Y199951D01*
X291388Y200913D01*
X292143Y202044D01*
X292664Y203301D01*
X292929Y204635D01*
Y205995D01*
X292664Y207329D01*
X292143Y208586D01*
X291388Y209717D01*
X290426Y210679D01*
X289295Y211435D01*
X288038Y211955D01*
X286704Y212221D01*
D02*
G37*
G36*
X229617Y211236D02*
X228257D01*
X226923Y210971D01*
X225666Y210450D01*
X224535Y209695D01*
X223573Y208733D01*
X222817Y207602D01*
X222297Y206345D01*
X222031Y205011D01*
Y203651D01*
X222297Y202316D01*
X222817Y201060D01*
X223573Y199929D01*
X224535Y198967D01*
X225666Y198211D01*
X226923Y197691D01*
X228257Y197425D01*
X229617D01*
X230951Y197691D01*
X232208Y198211D01*
X233339Y198967D01*
X234301Y199929D01*
X235057Y201060D01*
X235577Y202316D01*
X235842Y203651D01*
Y205011D01*
X235577Y206345D01*
X235057Y207602D01*
X234301Y208733D01*
X233339Y209695D01*
X232208Y210450D01*
X230951Y210971D01*
X229617Y211236D01*
D02*
G37*
G36*
X168594D02*
X167233D01*
X165899Y210971D01*
X164642Y210450D01*
X163511Y209695D01*
X162549Y208733D01*
X161794Y207602D01*
X161273Y206345D01*
X161008Y205011D01*
Y203651D01*
X161273Y202316D01*
X161794Y201060D01*
X162549Y199929D01*
X163511Y198967D01*
X164642Y198211D01*
X165899Y197691D01*
X167233Y197425D01*
X168594D01*
X169928Y197691D01*
X171184Y198211D01*
X172315Y198967D01*
X173277Y199929D01*
X174033Y201060D01*
X174554Y202316D01*
X174819Y203651D01*
Y205011D01*
X174554Y206345D01*
X174033Y207602D01*
X173277Y208733D01*
X172315Y209695D01*
X171184Y210450D01*
X169928Y210971D01*
X168594Y211236D01*
D02*
G37*
G36*
X110369Y202425D02*
X109316D01*
X108299Y202153D01*
X107387Y201626D01*
X106642Y200881D01*
X106115Y199969D01*
X105842Y198952D01*
Y197899D01*
X106115Y196881D01*
X106642Y195969D01*
X107387Y195224D01*
X108299Y194698D01*
X109316Y194425D01*
X110369D01*
X111387Y194698D01*
X112299Y195224D01*
X113043Y195969D01*
X113570Y196881D01*
X113842Y197899D01*
Y198952D01*
X113570Y199969D01*
X113043Y200881D01*
X112299Y201626D01*
X111387Y202153D01*
X110369Y202425D01*
D02*
G37*
G36*
Y192583D02*
X109316D01*
X108299Y192310D01*
X107387Y191783D01*
X106642Y191039D01*
X106115Y190127D01*
X105842Y189109D01*
Y188056D01*
X106115Y187039D01*
X106642Y186127D01*
X107387Y185382D01*
X108299Y184855D01*
X109316Y184583D01*
X110369D01*
X111387Y184855D01*
X112299Y185382D01*
X113043Y186127D01*
X113570Y187039D01*
X113842Y188056D01*
Y189109D01*
X113570Y190127D01*
X113043Y191039D01*
X112299Y191783D01*
X111387Y192310D01*
X110369Y192583D01*
D02*
G37*
G36*
X170245Y182480D02*
X169519D01*
X168818Y182292D01*
X168190Y181930D01*
X167677Y181417D01*
X167314Y180788D01*
X167188Y180318D01*
X166670D01*
X166544Y180788D01*
X166182Y181417D01*
X165668Y181930D01*
X165040Y182292D01*
X164339Y182480D01*
X163614D01*
X162913Y182292D01*
X162284Y181930D01*
X161771Y181417D01*
X161408Y180788D01*
X161221Y180087D01*
Y179362D01*
X161408Y178661D01*
X161771Y178032D01*
X162284Y177519D01*
X162913Y177156D01*
X163614Y176969D01*
X164339D01*
X165040Y177156D01*
X165668Y177519D01*
X166182Y178032D01*
X166544Y178661D01*
X166670Y179130D01*
X167188D01*
X167314Y178661D01*
X167677Y178032D01*
X168190Y177519D01*
X168818Y177156D01*
X169519Y176969D01*
X170245D01*
X170946Y177156D01*
X171574Y177519D01*
X172087Y178032D01*
X172450Y178661D01*
X172638Y179362D01*
Y180087D01*
X172450Y180788D01*
X172087Y181417D01*
X171574Y181930D01*
X170946Y182292D01*
X170245Y182480D01*
D02*
G37*
G36*
X117193Y184209D02*
X116271D01*
X115381Y183970D01*
X114583Y183509D01*
X113932Y182858D01*
X113471Y182060D01*
X113232Y181169D01*
Y180248D01*
X113471Y179358D01*
X113932Y178560D01*
X114583Y177908D01*
X115381Y177447D01*
X116271Y177209D01*
X117193D01*
X118083Y177447D01*
X118881Y177908D01*
X119533Y178560D01*
X119994Y179358D01*
X120232Y180248D01*
Y181169D01*
X119994Y182060D01*
X119533Y182858D01*
X118881Y183509D01*
X118083Y183970D01*
X117193Y184209D01*
D02*
G37*
G36*
X138749Y181496D02*
X138023D01*
X137322Y181308D01*
X136694Y180945D01*
X136181Y180432D01*
X135818Y179804D01*
X135630Y179103D01*
Y178377D01*
X135818Y177676D01*
X136181Y177048D01*
X136694Y176535D01*
X137322Y176172D01*
X138023Y175984D01*
X138749D01*
X139450Y176172D01*
X140078Y176535D01*
X140591Y177048D01*
X140954Y177676D01*
X141142Y178377D01*
Y179103D01*
X140954Y179804D01*
X140591Y180432D01*
X140078Y180945D01*
X139450Y181308D01*
X138749Y181496D01*
D02*
G37*
G36*
X238256Y175350D02*
X237334D01*
X236444Y175112D01*
X235646Y174651D01*
X234995Y173999D01*
X234534Y173201D01*
X234295Y172311D01*
Y171390D01*
X234534Y170499D01*
X234995Y169701D01*
X235646Y169050D01*
X236444Y168589D01*
X237334Y168350D01*
X238256D01*
X239146Y168589D01*
X239944Y169050D01*
X240596Y169701D01*
X241057Y170499D01*
X241295Y171390D01*
Y172311D01*
X241057Y173201D01*
X240596Y173999D01*
X239944Y174651D01*
X239146Y175112D01*
X238256Y175350D01*
D02*
G37*
G36*
X177232D02*
X176311D01*
X175421Y175112D01*
X174623Y174651D01*
X173971Y173999D01*
X173510Y173201D01*
X173272Y172311D01*
Y171390D01*
X173510Y170499D01*
X173971Y169701D01*
X174623Y169050D01*
X175421Y168589D01*
X176311Y168350D01*
X177232D01*
X178123Y168589D01*
X178921Y169050D01*
X179572Y169701D01*
X180033Y170499D01*
X180272Y171390D01*
Y172311D01*
X180033Y173201D01*
X179572Y173999D01*
X178921Y174651D01*
X178123Y175112D01*
X177232Y175350D01*
D02*
G37*
G36*
X138749Y173622D02*
X138023D01*
X137322Y173434D01*
X136694Y173071D01*
X136181Y172558D01*
X135818Y171930D01*
X135630Y171229D01*
Y170503D01*
X135818Y169802D01*
X136181Y169174D01*
X136694Y168661D01*
X137322Y168298D01*
X138023Y168110D01*
X138749D01*
X139450Y168298D01*
X140078Y168661D01*
X140591Y169174D01*
X140954Y169802D01*
X141142Y170503D01*
Y171229D01*
X140954Y171930D01*
X140591Y172558D01*
X140078Y173071D01*
X139450Y173434D01*
X138749Y173622D01*
D02*
G37*
G36*
X178119Y166732D02*
X177393D01*
X176692Y166544D01*
X176064Y166182D01*
X175551Y165668D01*
X175188Y165040D01*
X175000Y164339D01*
Y163614D01*
X175188Y162913D01*
X175551Y162284D01*
X176064Y161771D01*
X176692Y161408D01*
X177393Y161221D01*
X178119D01*
X178820Y161408D01*
X179448Y161771D01*
X179961Y162284D01*
X180324Y162913D01*
X180512Y163614D01*
Y164339D01*
X180324Y165040D01*
X179961Y165668D01*
X179448Y166182D01*
X178820Y166544D01*
X178119Y166732D01*
D02*
G37*
G36*
X110369Y212268D02*
X109316D01*
X108299Y211995D01*
X107387Y211469D01*
X106642Y210724D01*
X106115Y209812D01*
X105842Y208794D01*
Y207741D01*
X106115Y206724D01*
X106642Y205812D01*
X107387Y205067D01*
X108299Y204540D01*
X109316Y204268D01*
X110369D01*
X111387Y204540D01*
X112299Y205067D01*
X113043Y205812D01*
X113570Y206724D01*
X113574Y206738D01*
X113779D01*
X113831Y206749D01*
X114917Y206606D01*
X115976Y206167D01*
X116886Y205469D01*
X117584Y204559D01*
X118023Y203499D01*
X118109Y202847D01*
X118144Y202362D01*
X118145D01*
X118306Y200717D01*
X118786Y199136D01*
X119565Y197678D01*
X120614Y196401D01*
X121891Y195353D01*
X123349Y194574D01*
X124930Y194094D01*
X126575Y193932D01*
Y193943D01*
X136417D01*
X136483Y193956D01*
X138043Y193802D01*
X139606Y193328D01*
X141047Y192558D01*
X142309Y191522D01*
X143346Y190259D01*
X144116Y188819D01*
X144590Y187256D01*
X144744Y185696D01*
X144730Y185630D01*
Y182677D01*
X144725D01*
X144865Y180897D01*
X145282Y179161D01*
X145965Y177512D01*
X146898Y175990D01*
X148057Y174632D01*
X149415Y173472D01*
X150937Y172540D01*
X152586Y171856D01*
X154323Y171440D01*
X156102Y171300D01*
Y171305D01*
X162008D01*
X162057Y171315D01*
X163441Y171179D01*
X164818Y170761D01*
X166088Y170082D01*
X167201Y169169D01*
X168114Y168056D01*
X168792Y166787D01*
X169022Y166030D01*
X168661Y165668D01*
X168298Y165040D01*
X168110Y164339D01*
Y163614D01*
X168298Y162913D01*
X168661Y162284D01*
X169174Y161771D01*
X169802Y161408D01*
X170503Y161221D01*
X171229D01*
X171930Y161408D01*
X172558Y161771D01*
X173071Y162284D01*
X173434Y162913D01*
X173622Y163614D01*
Y164339D01*
X173434Y165040D01*
X173071Y165668D01*
X172558Y166182D01*
X172062Y166468D01*
X171890Y167187D01*
X171266Y168693D01*
X170414Y170084D01*
X169355Y171323D01*
X168115Y172382D01*
X166725Y173234D01*
X165219Y173858D01*
X163633Y174239D01*
X162008Y174367D01*
Y174364D01*
X156102D01*
X156037Y174351D01*
X154477Y174505D01*
X152914Y174979D01*
X151473Y175749D01*
X150210Y176785D01*
X149174Y178048D01*
X148404Y179488D01*
X147930Y181052D01*
X147776Y182612D01*
X147789Y182677D01*
Y185630D01*
X147795D01*
X147655Y187410D01*
X147238Y189146D01*
X146555Y190795D01*
X145622Y192317D01*
X144463Y193675D01*
X143105Y194835D01*
X141583Y195767D01*
X139933Y196451D01*
X138197Y196867D01*
X136417Y197008D01*
Y197002D01*
X126575D01*
X126498Y196986D01*
X125181Y197160D01*
X123882Y197698D01*
X122766Y198554D01*
X121911Y199669D01*
X121372Y200968D01*
X121253Y201875D01*
X121221Y202362D01*
X121221D01*
X121078Y203814D01*
X120654Y205210D01*
X119967Y206496D01*
X119041Y207624D01*
X117914Y208549D01*
X116627Y209237D01*
X115231Y209661D01*
X113779Y209804D01*
X113403Y210101D01*
X113043Y210724D01*
X112299Y211469D01*
X111387Y211995D01*
X110369Y212268D01*
D02*
G37*
G36*
X164378Y167027D02*
X163575D01*
X162799Y166820D01*
X162103Y166418D01*
X161535Y165850D01*
X161133Y165154D01*
X160925Y164378D01*
Y163575D01*
X161133Y162799D01*
X161535Y162103D01*
X162103Y161535D01*
X162799Y161133D01*
X163575Y160925D01*
X164378D01*
X165154Y161133D01*
X165850Y161535D01*
X166418Y162103D01*
X166820Y162799D01*
X167027Y163575D01*
Y164378D01*
X166820Y165154D01*
X166418Y165850D01*
X165850Y166418D01*
X165154Y166820D01*
X164378Y167027D01*
D02*
G37*
G36*
X289437Y166492D02*
X288516D01*
X287625Y166254D01*
X286827Y165793D01*
X286176Y165141D01*
X285715Y164343D01*
X285476Y163453D01*
Y162531D01*
X285715Y161641D01*
X286176Y160843D01*
X286827Y160191D01*
X287625Y159731D01*
X288516Y159492D01*
X289437D01*
X290327Y159731D01*
X291125Y160191D01*
X291777Y160843D01*
X292238Y161641D01*
X292476Y162531D01*
Y163453D01*
X292238Y164343D01*
X291777Y165141D01*
X291125Y165793D01*
X290327Y166254D01*
X289437Y166492D01*
D02*
G37*
G36*
X292914Y151969D02*
X291929D01*
X290978Y151714D01*
X290125Y151221D01*
X289428Y150525D01*
X288936Y149672D01*
X288681Y148721D01*
Y147736D01*
X288936Y146785D01*
X289428Y145932D01*
X290125Y145236D01*
X290978Y144743D01*
X291929Y144488D01*
X292914D01*
X293865Y144743D01*
X294718Y145236D01*
X295414Y145932D01*
X295906Y146785D01*
X296161Y147736D01*
Y148721D01*
X295906Y149672D01*
X295414Y150525D01*
X294718Y151221D01*
X293865Y151714D01*
X292914Y151969D01*
D02*
G37*
G36*
Y140157D02*
X291929D01*
X290978Y139903D01*
X290125Y139410D01*
X289428Y138714D01*
X288936Y137861D01*
X288681Y136910D01*
Y135925D01*
X288936Y134974D01*
X289428Y134121D01*
X290125Y133424D01*
X290978Y132932D01*
X291929Y132677D01*
X292914D01*
X293865Y132932D01*
X294718Y133424D01*
X295414Y134121D01*
X295906Y134974D01*
X296161Y135925D01*
Y136910D01*
X295906Y137861D01*
X295414Y138714D01*
X294718Y139410D01*
X293865Y139903D01*
X292914Y140157D01*
D02*
G37*
G36*
X171229Y136221D02*
X170503D01*
X169802Y136033D01*
X169174Y135670D01*
X168661Y135157D01*
X168298Y134528D01*
X168110Y133827D01*
Y133102D01*
X168298Y132401D01*
X168661Y131772D01*
X169174Y131259D01*
X169802Y130896D01*
X170503Y130709D01*
X171229D01*
X171930Y130896D01*
X172558Y131259D01*
X173071Y131772D01*
X173434Y132401D01*
X173622Y133102D01*
Y133827D01*
X173434Y134528D01*
X173071Y135157D01*
X172558Y135670D01*
X171930Y136033D01*
X171229Y136221D01*
D02*
G37*
G36*
X106268Y135236D02*
X105543D01*
X104842Y135048D01*
X104213Y134686D01*
X103700Y134172D01*
X103337Y133544D01*
X103150Y132843D01*
Y132117D01*
X103337Y131417D01*
X103700Y130788D01*
X104213Y130275D01*
X104842Y129912D01*
X105543Y129724D01*
X106268D01*
X106969Y129912D01*
X107598Y130275D01*
X108111Y130788D01*
X108474Y131417D01*
X108661Y132117D01*
Y132843D01*
X108474Y133544D01*
X108111Y134172D01*
X107598Y134686D01*
X106969Y135048D01*
X106268Y135236D01*
D02*
G37*
G36*
X292292Y120472D02*
X291566D01*
X290865Y120285D01*
X290237Y119922D01*
X289724Y119409D01*
X289361Y118780D01*
X289173Y118079D01*
Y117354D01*
X289361Y116653D01*
X289724Y116024D01*
X290237Y115511D01*
X290865Y115148D01*
X291566Y114961D01*
X292292D01*
X292993Y115148D01*
X293621Y115511D01*
X294134Y116024D01*
X294497Y116653D01*
X294685Y117354D01*
Y118079D01*
X294497Y118780D01*
X294134Y119409D01*
X293621Y119922D01*
X292993Y120285D01*
X292292Y120472D01*
D02*
G37*
G36*
X251625Y121669D02*
X250265D01*
X248931Y121404D01*
X247674Y120883D01*
X246543Y120128D01*
X245581Y119166D01*
X244825Y118035D01*
X244305Y116778D01*
X244039Y115444D01*
Y114084D01*
X244305Y112750D01*
X244825Y111493D01*
X245581Y110362D01*
X246543Y109400D01*
X247674Y108644D01*
X248931Y108124D01*
X250265Y107858D01*
X251625D01*
X252959Y108124D01*
X254216Y108644D01*
X255347Y109400D01*
X256309Y110362D01*
X257065Y111493D01*
X257585Y112750D01*
X257850Y114084D01*
Y115444D01*
X257585Y116778D01*
X257065Y118035D01*
X256309Y119166D01*
X255347Y120128D01*
X254216Y120883D01*
X252959Y121404D01*
X251625Y121669D01*
D02*
G37*
G36*
X121032Y110630D02*
X120307D01*
X119606Y110442D01*
X118977Y110079D01*
X118464Y109566D01*
X118101Y108938D01*
X117913Y108237D01*
Y107511D01*
X118101Y106810D01*
X118464Y106182D01*
X118977Y105669D01*
X119606Y105306D01*
X120307Y105118D01*
X121032D01*
X121733Y105306D01*
X122361Y105669D01*
X122875Y106182D01*
X123237Y106810D01*
X123425Y107511D01*
Y108237D01*
X123237Y108938D01*
X122875Y109566D01*
X122361Y110079D01*
X121733Y110442D01*
X121032Y110630D01*
D02*
G37*
G36*
X202922Y109843D02*
X202196D01*
X201495Y109655D01*
X200867Y109292D01*
X200354Y108779D01*
X199991Y108150D01*
X199803Y107449D01*
Y106724D01*
X199991Y106023D01*
X200354Y105394D01*
X200867Y104881D01*
X201495Y104518D01*
X202196Y104331D01*
X202922D01*
X203623Y104518D01*
X204251Y104881D01*
X204764Y105394D01*
X205127Y106023D01*
X205315Y106724D01*
Y107449D01*
X205127Y108150D01*
X204764Y108779D01*
X204251Y109292D01*
X203623Y109655D01*
X202922Y109843D01*
D02*
G37*
G36*
X240127Y109646D02*
X239401D01*
X238700Y109458D01*
X238072Y109095D01*
X237559Y108582D01*
X237196Y107954D01*
X237008Y107253D01*
Y106527D01*
X237196Y105826D01*
X237559Y105198D01*
X238072Y104684D01*
X238700Y104322D01*
X239401Y104134D01*
X240127D01*
X240827Y104322D01*
X241456Y104684D01*
X241969Y105198D01*
X242332Y105826D01*
X242520Y106527D01*
Y107253D01*
X242332Y107954D01*
X241969Y108582D01*
X241456Y109095D01*
X240827Y109458D01*
X240127Y109646D01*
D02*
G37*
G36*
X287590Y115748D02*
X286426D01*
X285285Y115521D01*
X284211Y115076D01*
X283243Y114430D01*
X282421Y113607D01*
X281774Y112640D01*
X281329Y111565D01*
X281102Y110424D01*
Y109261D01*
X281329Y108120D01*
X281774Y107045D01*
X282421Y106078D01*
X283243Y105255D01*
X284211Y104609D01*
X285285Y104164D01*
X286426Y103937D01*
X287590D01*
X288730Y104164D01*
X289805Y104609D01*
X290772Y105255D01*
X291595Y106078D01*
X292241Y107045D01*
X292686Y108120D01*
X292913Y109261D01*
Y110424D01*
X292686Y111565D01*
X292241Y112640D01*
X291595Y113607D01*
X290772Y114430D01*
X289805Y115076D01*
X288730Y115521D01*
X287590Y115748D01*
D02*
G37*
G36*
X110424D02*
X109261D01*
X108120Y115521D01*
X107045Y115076D01*
X106078Y114430D01*
X105255Y113607D01*
X104609Y112640D01*
X104164Y111565D01*
X103937Y110424D01*
Y109261D01*
X104164Y108120D01*
X104609Y107045D01*
X105255Y106078D01*
X106078Y105255D01*
X107045Y104609D01*
X108120Y104164D01*
X109261Y103937D01*
X110424D01*
X111565Y104164D01*
X112640Y104609D01*
X113607Y105255D01*
X114430Y106078D01*
X115076Y107045D01*
X115521Y108120D01*
X115748Y109261D01*
Y110424D01*
X115521Y111565D01*
X115076Y112640D01*
X114430Y113607D01*
X113607Y114430D01*
X112640Y115076D01*
X111565Y115521D01*
X110424Y115748D01*
D02*
G37*
G36*
X171268Y108957D02*
X170465D01*
X169688Y108749D01*
X168993Y108347D01*
X168425Y107779D01*
X168023Y107083D01*
X167815Y106307D01*
Y105504D01*
X168023Y104728D01*
X168425Y104032D01*
X168993Y103464D01*
X169688Y103062D01*
X170465Y102854D01*
X171268D01*
X172044Y103062D01*
X172740Y103464D01*
X173308Y104032D01*
X173709Y104728D01*
X173917Y105504D01*
Y106307D01*
X173709Y107083D01*
X173308Y107779D01*
X172740Y108347D01*
X172044Y108749D01*
X171268Y108957D01*
D02*
G37*
G36*
X162863Y108169D02*
X162137D01*
X161436Y107982D01*
X160808Y107619D01*
X160295Y107106D01*
X159932Y106477D01*
X159744Y105776D01*
Y105051D01*
X159932Y104350D01*
X160295Y103721D01*
X160808Y103208D01*
X161436Y102845D01*
X162137Y102657D01*
X162863D01*
X163564Y102845D01*
X164192Y103208D01*
X164705Y103721D01*
X165068Y104350D01*
X165256Y105051D01*
Y105776D01*
X165068Y106477D01*
X164705Y107106D01*
X164192Y107619D01*
X163564Y107982D01*
X162863Y108169D01*
D02*
G37*
%LPD*%
D10*
X170866Y163976D02*
G03*
X162008Y172835I-8858J0D01*
G01*
X146260Y182677D02*
G03*
X156102Y172835I9843J0D01*
G01*
X119685Y202362D02*
G03*
X113779Y208268I-5906J0D01*
G01*
X119685Y202362D02*
G03*
X126575Y195472I6890J0D01*
G01*
X146260Y185630D02*
G03*
X136417Y195472I-9843J0D01*
G01*
X190394Y242717D02*
G03*
X200394Y252716I0J10000D01*
G01*
X156102Y172835D02*
X162008D01*
X109843Y208268D02*
X113779D01*
X146260Y182677D02*
Y185630D01*
X126575Y195472D02*
X136417D01*
X200394Y252716D02*
Y257480D01*
D69*
X109843Y208268D02*
D03*
D73*
X200394Y257480D02*
D03*
Y277165D02*
D03*
D75*
X170866Y163976D02*
D03*
D77*
X109843Y242717D02*
D03*
D78*
X228937Y155118D02*
D03*
D88*
X200394Y165118D02*
G03*
X210394Y155118I10000J0D01*
G01*
X200394Y165118D02*
Y252716D01*
Y257480D02*
Y277165D01*
X210394Y155118D02*
X228937D01*
D89*
X109843Y242717D02*
X190394D01*
M02*
