G04*
G04 #@! TF.GenerationSoftware,Altium Limited,CircuitMaker,2.3.0 (2.3.0.3)*
G04*
G04 Layer_Color=8150272*
%FSLAX25Y25*%
%MOIN*%
G70*
G04*
G04 #@! TF.SameCoordinates,16FC6845-B66D-4252-ADF8-C3080C0A7A4D*
G04*
G04*
G04 #@! TF.FilePolarity,Negative*
G04*
G01*
G75*
G04:AMPARAMS|DCode=51|XSize=90.68mil|YSize=51.31mil|CornerRadius=25.65mil|HoleSize=0mil|Usage=FLASHONLY|Rotation=270.000|XOffset=0mil|YOffset=0mil|HoleType=Round|Shape=RoundedRectangle|*
%AMROUNDEDRECTD51*
21,1,0.09068,0.00000,0,0,270.0*
21,1,0.03937,0.05131,0,0,270.0*
1,1,0.05131,0.00000,-0.01968*
1,1,0.05131,0.00000,0.01968*
1,1,0.05131,0.00000,0.01968*
1,1,0.05131,0.00000,-0.01968*
%
%ADD51ROUNDEDRECTD51*%
G04:AMPARAMS|DCode=52|XSize=110.36mil|YSize=51.31mil|CornerRadius=25.65mil|HoleSize=0mil|Usage=FLASHONLY|Rotation=270.000|XOffset=0mil|YOffset=0mil|HoleType=Round|Shape=RoundedRectangle|*
%AMROUNDEDRECTD52*
21,1,0.11036,0.00000,0,0,270.0*
21,1,0.05905,0.05131,0,0,270.0*
1,1,0.05131,0.00000,-0.02953*
1,1,0.05131,0.00000,0.02953*
1,1,0.05131,0.00000,0.02953*
1,1,0.05131,0.00000,-0.02953*
%
%ADD52ROUNDEDRECTD52*%
%ADD53C,0.04343*%
%ADD54C,0.06800*%
%ADD55O,0.08674X0.16548*%
%ADD56O,0.16548X0.08674*%
%ADD57O,0.18516X0.08674*%
%ADD58C,0.08674*%
%ADD59C,0.03950*%
%ADD60C,0.03162*%
%ADD61C,0.05131*%
%ADD62C,0.05800*%
%ADD63C,0.12611*%
%ADD103R,0.05800X0.06600*%
%ADD104R,0.06902X0.06902*%
%ADD105R,0.04343X0.07296*%
%ADD106R,0.07296X0.04343*%
%ADD107R,0.12611X0.20485*%
%ADD108R,0.06115X0.04737*%
%ADD109R,0.43123X0.38005*%
%ADD110R,0.04737X0.15761*%
D51*
X142598Y268347D02*
D03*
X108583D02*
D03*
D52*
Y289449D02*
D03*
X142598D02*
D03*
D53*
X292421Y148228D02*
D03*
Y136417D02*
D03*
D54*
X109843Y188583D02*
D03*
Y198425D02*
D03*
Y208268D02*
D03*
D55*
X239567Y274213D02*
D03*
D56*
X258465Y287008D02*
D03*
D57*
Y262402D02*
D03*
D58*
X200394Y257480D02*
D03*
X220079D02*
D03*
Y277165D02*
D03*
X200394D02*
D03*
X159055Y257480D02*
D03*
X178740D02*
D03*
Y277165D02*
D03*
X159055D02*
D03*
X110827Y254528D02*
D03*
X109843Y109843D02*
D03*
X287008D02*
D03*
Y287008D02*
D03*
D59*
X163976Y163976D02*
D03*
X170866Y105905D02*
D03*
D60*
Y163976D02*
D03*
X177756D02*
D03*
X185630D02*
D03*
X239764Y106890D02*
D03*
X169882Y179724D02*
D03*
X163976D02*
D03*
X138386Y178740D02*
D03*
Y170866D02*
D03*
X105905Y132480D02*
D03*
X120669Y107874D02*
D03*
X162500Y105413D02*
D03*
X170866Y133465D02*
D03*
X202559Y107087D02*
D03*
X291929Y117717D02*
D03*
X122638Y277165D02*
D03*
X126575Y276181D02*
D03*
X136417Y260433D02*
D03*
X123622Y261417D02*
D03*
X132480Y258465D02*
D03*
D61*
X130512Y204331D02*
D03*
X108858Y225984D02*
D03*
D62*
X109843Y242717D02*
D03*
X116732Y180709D02*
D03*
X176772Y171850D02*
D03*
X237795D02*
D03*
X288976Y162992D02*
D03*
D63*
X228937Y155118D02*
D03*
X250945Y114764D02*
D03*
X228937Y204331D02*
D03*
X167913D02*
D03*
Y228937D02*
D03*
X228937D02*
D03*
X286024Y205315D02*
D03*
D103*
X161614Y171850D02*
D03*
X144650D02*
D03*
X222638D02*
D03*
X205673D02*
D03*
X283661D02*
D03*
X266697D02*
D03*
D104*
X132185D02*
D03*
X124902D02*
D03*
X193209D02*
D03*
X185925D02*
D03*
X255217D02*
D03*
X247933D02*
D03*
D105*
X173524Y189567D02*
D03*
X162303D02*
D03*
X234547D02*
D03*
X223327D02*
D03*
D106*
X287992Y183957D02*
D03*
Y195177D02*
D03*
D107*
X155905Y136417D02*
D03*
X118898D02*
D03*
X179921D02*
D03*
X216929D02*
D03*
X277953D02*
D03*
X240945D02*
D03*
D108*
X133465Y290551D02*
D03*
Y283465D02*
D03*
X117717Y283465D02*
D03*
Y290551D02*
D03*
D109*
X137402Y228937D02*
D03*
X198425Y228937D02*
D03*
X259449D02*
D03*
D110*
X150787Y189567D02*
D03*
X144095D02*
D03*
X137402D02*
D03*
X130709D02*
D03*
X124016D02*
D03*
X211811Y189567D02*
D03*
X205118D02*
D03*
X198425D02*
D03*
X191732D02*
D03*
X185039D02*
D03*
X272835D02*
D03*
X266142D02*
D03*
X259449D02*
D03*
X252756D02*
D03*
X246063D02*
D03*
M02*
