G04*
G04 #@! TF.GenerationSoftware,Altium Limited,CircuitMaker,2.3.0 (2.3.0.3)*
G04*
G04 Layer_Physical_Order=5*
G04 Layer_Color=553216*
%FSLAX25Y25*%
%MOIN*%
G70*
G04*
G04 #@! TF.SameCoordinates,16FC6845-B66D-4252-ADF8-C3080C0A7A4D*
G04*
G04*
G04 #@! TF.FilePolarity,Negative*
G04*
G01*
G75*
%ADD54C,0.06800*%
%ADD79C,0.04000*%
%ADD80C,0.07543*%
%ADD81C,0.07000*%
%ADD82O,0.17779X0.07150*%
%ADD83C,0.07937*%
%ADD84C,0.11874*%
%ADD85C,0.06165*%
%ADD86C,0.05575*%
%ADD87C,0.06362*%
%ADD90O,0.06362X0.10299*%
%ADD91O,0.06362X0.12268*%
%ADD92O,0.07150X0.15811*%
%ADD93O,0.15811X0.07150*%
D54*
X109843Y242717D02*
D03*
X116732Y180709D02*
D03*
X176772Y171850D02*
D03*
X237795D02*
D03*
X288976Y162992D02*
D03*
D79*
X286850Y100000D02*
G03*
X296850Y110000I0J10000D01*
G01*
Y286850D02*
G03*
X286850Y296850I-10000J0D01*
G01*
X110000D02*
G03*
X100000Y286850I0J-10000D01*
G01*
Y110000D02*
G03*
X110000Y100000I10000J0D01*
G01*
X155118D02*
X286850D01*
X110000D02*
X155118D01*
X100000Y110000D02*
Y286850D01*
X110000Y296850D02*
X286850D01*
X296850Y110000D02*
Y286850D01*
D80*
X292421Y148228D02*
D03*
Y136417D02*
D03*
D81*
X109843Y198425D02*
D03*
Y208268D02*
D03*
D82*
X258465Y262402D02*
D03*
D83*
X200394Y257480D02*
D03*
X220079D02*
D03*
Y277165D02*
D03*
X200394D02*
D03*
X159055Y257480D02*
D03*
X178740D02*
D03*
Y277165D02*
D03*
X159055D02*
D03*
D84*
X110827Y254528D02*
D03*
X109843Y109843D02*
D03*
X287008D02*
D03*
Y287008D02*
D03*
X228937Y155118D02*
D03*
X250945Y114764D02*
D03*
X228937Y204331D02*
D03*
X167913D02*
D03*
Y228937D02*
D03*
X228937D02*
D03*
X286024Y205315D02*
D03*
D85*
X163976Y163976D02*
D03*
D86*
X170866D02*
D03*
X185630D02*
D03*
X163976Y179724D02*
D03*
X138386Y170866D02*
D03*
X105905Y132480D02*
D03*
X162500Y105413D02*
D03*
X202559Y107087D02*
D03*
X291929Y117717D02*
D03*
X122638Y277165D02*
D03*
X126575Y276181D02*
D03*
X136417Y260433D02*
D03*
X123622Y261417D02*
D03*
X132480Y258465D02*
D03*
D87*
X108858Y225984D02*
D03*
D90*
X142598Y268347D02*
D03*
X108583D02*
D03*
D91*
Y289449D02*
D03*
X142598D02*
D03*
D92*
X239567Y274213D02*
D03*
D93*
X258465Y287008D02*
D03*
M02*
