G04*
G04 #@! TF.GenerationSoftware,Altium Limited,CircuitMaker,2.3.0 (2.3.0.3)*
G04*
G04 Layer_Physical_Order=2*
G04 Layer_Color=11993160*
%FSLAX25Y25*%
%MOIN*%
G70*
G04*
G04 #@! TF.SameCoordinates,16FC6845-B66D-4252-ADF8-C3080C0A7A4D*
G04*
G04*
G04 #@! TF.FilePolarity,Negative*
G04*
G01*
G75*
%ADD54C,0.06800*%
%ADD79C,0.04000*%
%ADD80C,0.07543*%
%ADD81C,0.07000*%
%ADD82O,0.17779X0.07150*%
%ADD83C,0.07937*%
%ADD84C,0.11874*%
%ADD85C,0.06165*%
%ADD86C,0.05575*%
%ADD87C,0.06362*%
D54*
X109843Y242717D02*
D03*
D79*
X286850Y100000D02*
G03*
X296850Y110000I0J10000D01*
G01*
Y286850D02*
G03*
X286850Y296850I-10000J0D01*
G01*
X110000D02*
G03*
X100000Y286850I0J-10000D01*
G01*
Y110000D02*
G03*
X110000Y100000I10000J0D01*
G01*
X155118D02*
X286850D01*
X110000D02*
X155118D01*
X100000Y110000D02*
Y286850D01*
X110000Y296850D02*
X286850D01*
X296850Y110000D02*
Y286850D01*
D80*
X292421Y148228D02*
D03*
Y136417D02*
D03*
D81*
X109843Y188583D02*
D03*
Y208268D02*
D03*
D82*
X258465Y262402D02*
D03*
D83*
X200394Y257480D02*
D03*
Y277165D02*
D03*
X159055Y257480D02*
D03*
X178740D02*
D03*
Y277165D02*
D03*
X159055D02*
D03*
D84*
X110827Y254528D02*
D03*
X109843Y109843D02*
D03*
X287008D02*
D03*
Y287008D02*
D03*
X228937Y155118D02*
D03*
X250945Y114764D02*
D03*
X228937Y204331D02*
D03*
X167913D02*
D03*
X286024Y205315D02*
D03*
D85*
X163976Y163976D02*
D03*
X170866Y105905D02*
D03*
D86*
Y163976D02*
D03*
X177756D02*
D03*
X239764Y106890D02*
D03*
X169882Y179724D02*
D03*
X138386Y178740D02*
D03*
X120669Y107874D02*
D03*
X170866Y133465D02*
D03*
X122638Y277165D02*
D03*
X126575Y276181D02*
D03*
X136417Y260433D02*
D03*
X123622Y261417D02*
D03*
X132480Y258465D02*
D03*
D87*
X130512Y204331D02*
D03*
M02*
