G04*
G04 #@! TF.GenerationSoftware,Altium Limited,CircuitMaker,2.3.0 (2.3.0.3)*
G04*
G04 Layer_Physical_Order=6*
G04 Layer_Color=11436288*
%FSLAX25Y25*%
%MOIN*%
G70*
G04*
G04 #@! TF.SameCoordinates,16FC6845-B66D-4252-ADF8-C3080C0A7A4D*
G04*
G04*
G04 #@! TF.FilePolarity,Positive*
G04*
G01*
G75*
%ADD10C,0.01000*%
%ADD64C,0.09842*%
G04:AMPARAMS|DCode=66|XSize=82.68mil|YSize=43.31mil|CornerRadius=21.65mil|HoleSize=0mil|Usage=FLASHONLY|Rotation=270.000|XOffset=0mil|YOffset=0mil|HoleType=Round|Shape=RoundedRectangle|*
%AMROUNDEDRECTD66*
21,1,0.08268,0.00000,0,0,270.0*
21,1,0.03937,0.04331,0,0,270.0*
1,1,0.04331,0.00000,-0.01968*
1,1,0.04331,0.00000,0.01968*
1,1,0.04331,0.00000,0.01968*
1,1,0.04331,0.00000,-0.01968*
%
%ADD66ROUNDEDRECTD66*%
G04:AMPARAMS|DCode=67|XSize=102.36mil|YSize=43.31mil|CornerRadius=21.65mil|HoleSize=0mil|Usage=FLASHONLY|Rotation=270.000|XOffset=0mil|YOffset=0mil|HoleType=Round|Shape=RoundedRectangle|*
%AMROUNDEDRECTD67*
21,1,0.10236,0.00000,0,0,270.0*
21,1,0.05905,0.04331,0,0,270.0*
1,1,0.04331,0.00000,-0.02953*
1,1,0.04331,0.00000,0.02953*
1,1,0.04331,0.00000,0.02953*
1,1,0.04331,0.00000,-0.02953*
%
%ADD67ROUNDEDRECTD67*%
%ADD68C,0.03543*%
%ADD69C,0.06000*%
%ADD70O,0.07874X0.15748*%
%ADD71O,0.15748X0.07874*%
%ADD72O,0.17716X0.07874*%
%ADD73C,0.07874*%
%ADD74C,0.03150*%
%ADD75C,0.02362*%
%ADD76C,0.04331*%
%ADD77C,0.05000*%
%ADD78C,0.11811*%
%ADD89C,0.01968*%
%ADD94C,0.03937*%
%ADD95R,0.05000X0.05800*%
%ADD96R,0.06102X0.06102*%
%ADD97R,0.03543X0.06496*%
%ADD98R,0.06496X0.03543*%
%ADD99R,0.11811X0.19685*%
%ADD100R,0.05315X0.03937*%
%ADD101R,0.42323X0.37205*%
%ADD102R,0.03937X0.14961*%
G36*
X289767Y296466D02*
X291587Y295712D01*
X293225Y294618D01*
X294618Y293225D01*
X295712Y291587D01*
X296466Y289767D01*
X296850Y287835D01*
Y286850D01*
Y110000D01*
Y109015D01*
X296466Y107083D01*
X295712Y105263D01*
X294618Y103625D01*
X293225Y102233D01*
X291587Y101138D01*
X289767Y100384D01*
X287835Y100000D01*
X109015D01*
X107083Y100384D01*
X105263Y101138D01*
X103625Y102233D01*
X102233Y103625D01*
X101138Y105263D01*
X100384Y107083D01*
X100000Y109015D01*
Y110000D01*
Y169882D01*
Y286850D01*
Y287835D01*
X100384Y289767D01*
X101138Y291587D01*
X102233Y293225D01*
X103625Y294618D01*
X105263Y295712D01*
X107083Y296466D01*
X109015Y296850D01*
X287835D01*
X289767Y296466D01*
D02*
G37*
%LPC*%
G36*
X142598Y295594D02*
X141772Y295485D01*
X141002Y295166D01*
X140341Y294659D01*
X139833Y293998D01*
X139515Y293228D01*
X139406Y292402D01*
Y292081D01*
X137122D01*
Y293520D01*
X129807D01*
Y287583D01*
X137122D01*
Y289022D01*
X139406D01*
Y286496D01*
X139515Y285670D01*
X139833Y284900D01*
X140341Y284239D01*
X141002Y283731D01*
X141772Y283412D01*
X142598Y283303D01*
X143425Y283412D01*
X144195Y283731D01*
X144856Y284239D01*
X145363Y284900D01*
X145682Y285670D01*
X145791Y286496D01*
Y292402D01*
X145682Y293228D01*
X145363Y293998D01*
X144856Y294659D01*
X144195Y295166D01*
X143425Y295485D01*
X142598Y295594D01*
D02*
G37*
G36*
X108583D02*
X107756Y295485D01*
X106986Y295166D01*
X106325Y294659D01*
X105818Y293998D01*
X105499Y293228D01*
X105390Y292402D01*
Y286496D01*
X105499Y285670D01*
X105818Y284900D01*
X106325Y284239D01*
X106986Y283731D01*
X107756Y283412D01*
X108583Y283303D01*
X109409Y283412D01*
X110179Y283731D01*
X110840Y284239D01*
X111348Y284900D01*
X111667Y285670D01*
X111775Y286496D01*
Y289022D01*
X114059D01*
Y287583D01*
X121374D01*
Y293520D01*
X114059D01*
Y292081D01*
X111775D01*
Y292402D01*
X111667Y293228D01*
X111348Y293998D01*
X110840Y294659D01*
X110179Y295166D01*
X109409Y295485D01*
X108583Y295594D01*
D02*
G37*
G36*
X262402Y291987D02*
X254528D01*
X253239Y291818D01*
X252038Y291320D01*
X251006Y290529D01*
X250215Y289498D01*
X249718Y288297D01*
X249548Y287008D01*
X249718Y285719D01*
X250215Y284518D01*
X251006Y283487D01*
X252038Y282695D01*
X253239Y282198D01*
X254528Y282028D01*
X262402D01*
X263690Y282198D01*
X264891Y282695D01*
X265923Y283487D01*
X266714Y284518D01*
X267212Y285719D01*
X267381Y287008D01*
X267212Y288297D01*
X266714Y289498D01*
X265923Y290529D01*
X264891Y291320D01*
X263690Y291818D01*
X262402Y291987D01*
D02*
G37*
G36*
X287590Y292913D02*
X286426D01*
X285285Y292686D01*
X284211Y292241D01*
X283243Y291595D01*
X282421Y290772D01*
X281774Y289805D01*
X281329Y288730D01*
X281102Y287590D01*
Y286426D01*
X281329Y285285D01*
X281774Y284211D01*
X282421Y283243D01*
X283243Y282421D01*
X284211Y281774D01*
X285285Y281329D01*
X286426Y281102D01*
X287590D01*
X288730Y281329D01*
X289805Y281774D01*
X290772Y282421D01*
X291595Y283243D01*
X292241Y284211D01*
X292686Y285285D01*
X292913Y286426D01*
Y287590D01*
X292686Y288730D01*
X292241Y289805D01*
X291595Y290772D01*
X290772Y291595D01*
X289805Y292241D01*
X288730Y292686D01*
X287590Y292913D01*
D02*
G37*
G36*
X179390Y282102D02*
X178090D01*
X176835Y281766D01*
X175709Y281116D01*
X174790Y280197D01*
X174140Y279071D01*
X173803Y277815D01*
Y276515D01*
X174140Y275260D01*
X174790Y274134D01*
X175709Y273215D01*
X176835Y272565D01*
X178090Y272228D01*
X179390D01*
X180646Y272565D01*
X181772Y273215D01*
X182691Y274134D01*
X183341Y275260D01*
X183677Y276515D01*
Y277815D01*
X183341Y279071D01*
X182691Y280197D01*
X181772Y281116D01*
X180646Y281766D01*
X179390Y282102D01*
D02*
G37*
G36*
X159705D02*
X158405D01*
X157150Y281766D01*
X156024Y281116D01*
X155104Y280197D01*
X154455Y279071D01*
X154118Y277815D01*
Y276515D01*
X154455Y275260D01*
X155104Y274134D01*
X156024Y273215D01*
X157150Y272565D01*
X158405Y272228D01*
X159705D01*
X160961Y272565D01*
X162086Y273215D01*
X163006Y274134D01*
X163656Y275260D01*
X163992Y276515D01*
Y277815D01*
X163656Y279071D01*
X163006Y280197D01*
X162086Y281116D01*
X160961Y281766D01*
X159705Y282102D01*
D02*
G37*
G36*
X220729Y282102D02*
X219429D01*
X218173Y281766D01*
X217047Y281116D01*
X216128Y280197D01*
X215478Y279071D01*
X215142Y277815D01*
Y276515D01*
X215478Y275260D01*
X216128Y274134D01*
X217047Y273215D01*
X218173Y272565D01*
X219429Y272228D01*
X220729D01*
X221984Y272565D01*
X223110Y273215D01*
X224029Y274134D01*
X224679Y275260D01*
X225016Y276515D01*
Y277815D01*
X224679Y279071D01*
X224029Y280197D01*
X223110Y281116D01*
X221984Y281766D01*
X220729Y282102D01*
D02*
G37*
G36*
X201044D02*
X199744D01*
X198488Y281766D01*
X197362Y281116D01*
X196443Y280197D01*
X195793Y279071D01*
X195457Y277815D01*
Y276515D01*
X195793Y275260D01*
X196443Y274134D01*
X197362Y273215D01*
X198488Y272565D01*
X199744Y272228D01*
X201044D01*
X202299Y272565D01*
X203425Y273215D01*
X204344Y274134D01*
X204994Y275260D01*
X205331Y276515D01*
Y277815D01*
X204994Y279071D01*
X204344Y280197D01*
X203425Y281116D01*
X202299Y281766D01*
X201044Y282102D01*
D02*
G37*
G36*
X239567Y283129D02*
X238278Y282960D01*
X237077Y282462D01*
X236046Y281671D01*
X235255Y280639D01*
X234757Y279438D01*
X234587Y278150D01*
Y270276D01*
X234757Y268987D01*
X235255Y267786D01*
X236046Y266755D01*
X237077Y265963D01*
X238278Y265466D01*
X239567Y265296D01*
X240856Y265466D01*
X242057Y265963D01*
X243088Y266755D01*
X243879Y267786D01*
X244377Y268987D01*
X244547Y270276D01*
Y278150D01*
X244377Y279438D01*
X243879Y280639D01*
X243088Y281671D01*
X242057Y282462D01*
X240856Y282960D01*
X239567Y283129D01*
D02*
G37*
G36*
X121374Y286433D02*
X114059D01*
Y280496D01*
X117144D01*
X119931Y277710D01*
X119882Y277528D01*
Y276802D01*
X120070Y276102D01*
X120432Y275473D01*
X120946Y274960D01*
X121574Y274597D01*
X122275Y274410D01*
X123001D01*
X123702Y274597D01*
X124156Y274859D01*
X124370Y274489D01*
X124883Y273976D01*
X125045Y273882D01*
Y265004D01*
X124166Y264125D01*
X123985Y264173D01*
X123259D01*
X122558Y263985D01*
X121930Y263623D01*
X121417Y263109D01*
X121054Y262481D01*
X120866Y261780D01*
Y261054D01*
X121054Y260354D01*
X121417Y259725D01*
X121930Y259212D01*
X122558Y258849D01*
X123259Y258661D01*
X123985D01*
X124686Y258849D01*
X125314Y259212D01*
X125827Y259725D01*
X125921Y259888D01*
X128894D01*
X129773Y259009D01*
X129724Y258827D01*
Y258102D01*
X129912Y257401D01*
X130275Y256772D01*
X130788Y256259D01*
X131417Y255896D01*
X132117Y255709D01*
X132843D01*
X133544Y255896D01*
X134172Y256259D01*
X134686Y256772D01*
X135048Y257401D01*
X135074Y257497D01*
X135668Y257781D01*
X136055Y257677D01*
X136780D01*
X137481Y257865D01*
X138110Y258228D01*
X138623Y258741D01*
X138985Y259369D01*
X139173Y260070D01*
Y260796D01*
X138985Y261497D01*
X138623Y262125D01*
X138110Y262638D01*
X137481Y263001D01*
X136780Y263189D01*
X136055D01*
X135873Y263140D01*
X134994Y264019D01*
Y280496D01*
X137122D01*
Y286433D01*
X129807D01*
Y280496D01*
X131935D01*
Y263386D01*
X132052Y262801D01*
X132383Y262304D01*
X132988Y261699D01*
X132904Y261423D01*
X132760Y261221D01*
X132117D01*
X131936Y261172D01*
X130609Y262499D01*
X130113Y262830D01*
X129528Y262947D01*
X127976D01*
X127762Y263447D01*
X127988Y263785D01*
X128104Y264370D01*
Y273882D01*
X128267Y273976D01*
X128780Y274489D01*
X129143Y275117D01*
X129331Y275818D01*
Y276544D01*
X129143Y277245D01*
X128780Y277873D01*
X128267Y278386D01*
X127638Y278749D01*
X126938Y278937D01*
X126212D01*
X125511Y278749D01*
X125057Y278487D01*
X124843Y278857D01*
X124330Y279371D01*
X123702Y279733D01*
X123001Y279921D01*
X122275D01*
X122093Y279873D01*
X121374Y280592D01*
Y286433D01*
D02*
G37*
G36*
X142598Y273508D02*
X141772Y273399D01*
X141002Y273080D01*
X140341Y272572D01*
X139833Y271911D01*
X139515Y271141D01*
X139406Y270315D01*
Y266378D01*
X139515Y265552D01*
X139833Y264782D01*
X140341Y264120D01*
X141002Y263613D01*
X141772Y263294D01*
X142598Y263185D01*
X143425Y263294D01*
X144195Y263613D01*
X144856Y264120D01*
X145363Y264782D01*
X145682Y265552D01*
X145791Y266378D01*
Y270315D01*
X145682Y271141D01*
X145363Y271911D01*
X144856Y272572D01*
X144195Y273080D01*
X143425Y273399D01*
X142598Y273508D01*
D02*
G37*
G36*
X108583D02*
X107756Y273399D01*
X106986Y273080D01*
X106325Y272572D01*
X105818Y271911D01*
X105499Y271141D01*
X105390Y270315D01*
Y266378D01*
X105499Y265552D01*
X105818Y264782D01*
X106325Y264120D01*
X106986Y263613D01*
X107756Y263294D01*
X108583Y263185D01*
X109409Y263294D01*
X110179Y263613D01*
X110840Y264120D01*
X111348Y264782D01*
X111667Y265552D01*
X111775Y266378D01*
Y270315D01*
X111667Y271141D01*
X111348Y271911D01*
X110840Y272572D01*
X110179Y273080D01*
X109409Y273399D01*
X108583Y273508D01*
D02*
G37*
G36*
X263386Y267381D02*
X253543D01*
X252255Y267212D01*
X251054Y266714D01*
X250022Y265923D01*
X249231Y264891D01*
X248733Y263690D01*
X248564Y262402D01*
X248733Y261113D01*
X249231Y259912D01*
X250022Y258880D01*
X251054Y258089D01*
X252255Y257592D01*
X253543Y257422D01*
X263386D01*
X264675Y257592D01*
X265876Y258089D01*
X266907Y258880D01*
X267698Y259912D01*
X268196Y261113D01*
X268365Y262402D01*
X268196Y263690D01*
X267698Y264891D01*
X266907Y265923D01*
X265876Y266714D01*
X264675Y267212D01*
X263386Y267381D01*
D02*
G37*
G36*
X179390Y262417D02*
X178090D01*
X176835Y262081D01*
X175709Y261431D01*
X174790Y260512D01*
X174140Y259386D01*
X173803Y258130D01*
Y256830D01*
X174140Y255575D01*
X174790Y254449D01*
X175709Y253530D01*
X176835Y252880D01*
X178090Y252543D01*
X179390D01*
X180646Y252880D01*
X181772Y253530D01*
X182691Y254449D01*
X183341Y255575D01*
X183677Y256830D01*
Y258130D01*
X183341Y259386D01*
X182691Y260512D01*
X181772Y261431D01*
X180646Y262081D01*
X179390Y262417D01*
D02*
G37*
G36*
X159705D02*
X158405D01*
X157150Y262081D01*
X156024Y261431D01*
X155104Y260512D01*
X154455Y259386D01*
X154118Y258130D01*
Y256830D01*
X154455Y255575D01*
X155104Y254449D01*
X156024Y253530D01*
X157150Y252880D01*
X158405Y252543D01*
X159705D01*
X160961Y252880D01*
X162086Y253530D01*
X163006Y254449D01*
X163656Y255575D01*
X163992Y256830D01*
Y258130D01*
X163656Y259386D01*
X163006Y260512D01*
X162086Y261431D01*
X160961Y262081D01*
X159705Y262417D01*
D02*
G37*
G36*
X220729Y262417D02*
X219429D01*
X218173Y262081D01*
X217047Y261431D01*
X216128Y260512D01*
X215478Y259386D01*
X215142Y258130D01*
Y256830D01*
X215478Y255575D01*
X216128Y254449D01*
X217047Y253530D01*
X218173Y252880D01*
X219429Y252543D01*
X220729D01*
X221984Y252880D01*
X223110Y253530D01*
X224029Y254449D01*
X224679Y255575D01*
X225016Y256830D01*
Y258130D01*
X224679Y259386D01*
X224029Y260512D01*
X223110Y261431D01*
X221984Y262081D01*
X220729Y262417D01*
D02*
G37*
G36*
X201044D02*
X199744D01*
X198488Y262081D01*
X197362Y261431D01*
X196443Y260512D01*
X195793Y259386D01*
X195457Y258130D01*
Y256830D01*
X195793Y255575D01*
X196443Y254449D01*
X197362Y253530D01*
X198488Y252880D01*
X199744Y252543D01*
X201044D01*
X202299Y252880D01*
X203425Y253530D01*
X204344Y254449D01*
X204994Y255575D01*
X205331Y256830D01*
Y258130D01*
X204994Y259386D01*
X204344Y260512D01*
X203425Y261431D01*
X202299Y262081D01*
X201044Y262417D01*
D02*
G37*
G36*
X111408Y260433D02*
X110245D01*
X109104Y260206D01*
X108029Y259761D01*
X107062Y259115D01*
X106240Y258292D01*
X105593Y257325D01*
X105148Y256250D01*
X104921Y255109D01*
Y253946D01*
X105148Y252805D01*
X105593Y251730D01*
X106240Y250763D01*
X107062Y249940D01*
X108029Y249294D01*
X109104Y248849D01*
X110245Y248622D01*
X111408D01*
X112549Y248849D01*
X113624Y249294D01*
X114591Y249940D01*
X115414Y250763D01*
X116060Y251730D01*
X116505Y252805D01*
X116732Y253946D01*
Y255109D01*
X116505Y256250D01*
X116060Y257325D01*
X115414Y258292D01*
X114591Y259115D01*
X113624Y259761D01*
X112549Y260206D01*
X111408Y260433D01*
D02*
G37*
G36*
X110303Y246217D02*
X109382D01*
X108492Y245978D01*
X107694Y245517D01*
X107042Y244866D01*
X106581Y244068D01*
X106342Y243177D01*
Y242256D01*
X106581Y241366D01*
X107042Y240567D01*
X107694Y239916D01*
X108492Y239455D01*
X109382Y239216D01*
X110303D01*
X111194Y239455D01*
X111992Y239916D01*
X112643Y240567D01*
X113104Y241366D01*
X113342Y242256D01*
Y243177D01*
X113104Y244068D01*
X112643Y244866D01*
X111992Y245517D01*
X111194Y245978D01*
X110303Y246217D01*
D02*
G37*
G36*
X109275Y229150D02*
X108441D01*
X107636Y228934D01*
X106915Y228517D01*
X106325Y227928D01*
X105909Y227206D01*
X105693Y226401D01*
Y225568D01*
X105909Y224763D01*
X106325Y224041D01*
X106915Y223451D01*
X107636Y223035D01*
X108441Y222819D01*
X109275D01*
X110080Y223035D01*
X110802Y223451D01*
X111391Y224041D01*
X111808Y224763D01*
X112024Y225568D01*
Y226401D01*
X111808Y227206D01*
X111391Y227928D01*
X110802Y228517D01*
X110080Y228934D01*
X109275Y229150D01*
D02*
G37*
G36*
X110369Y212268D02*
X109316D01*
X108299Y211995D01*
X107387Y211469D01*
X106642Y210724D01*
X106115Y209812D01*
X105842Y208794D01*
Y207741D01*
X106115Y206724D01*
X106642Y205812D01*
X107387Y205067D01*
X108299Y204540D01*
X109316Y204268D01*
X110369D01*
X111387Y204540D01*
X112299Y205067D01*
X113043Y205812D01*
X113570Y206724D01*
X113842Y207741D01*
Y208794D01*
X113570Y209812D01*
X113043Y210724D01*
X112299Y211469D01*
X111387Y211995D01*
X110369Y212268D01*
D02*
G37*
G36*
X130929Y207496D02*
X130095D01*
X129290Y207280D01*
X128568Y206864D01*
X127979Y206274D01*
X127562Y205553D01*
X127347Y204747D01*
Y203914D01*
X127562Y203109D01*
X127979Y202387D01*
X128568Y201798D01*
X129290Y201381D01*
X130095Y201165D01*
X130929D01*
X131734Y201381D01*
X132455Y201798D01*
X133045Y202387D01*
X133461Y203109D01*
X133677Y203914D01*
Y204747D01*
X133461Y205553D01*
X133045Y206274D01*
X132455Y206864D01*
X131734Y207280D01*
X130929Y207496D01*
D02*
G37*
G36*
X110369Y202425D02*
X109316D01*
X108299Y202153D01*
X107387Y201626D01*
X106642Y200881D01*
X106115Y199969D01*
X105842Y198952D01*
Y197899D01*
X106115Y196881D01*
X106642Y195969D01*
X107387Y195224D01*
X108299Y194698D01*
X109316Y194425D01*
X110369D01*
X111387Y194698D01*
X112299Y195224D01*
X113043Y195969D01*
X113570Y196881D01*
X113842Y197899D01*
Y198952D01*
X113570Y199969D01*
X113043Y200881D01*
X112299Y201626D01*
X111387Y202153D01*
X110369Y202425D01*
D02*
G37*
G36*
X229617Y211236D02*
X228257D01*
X226923Y210971D01*
X225666Y210450D01*
X224535Y209695D01*
X223573Y208733D01*
X222817Y207602D01*
X222297Y206345D01*
X222031Y205011D01*
Y203829D01*
X221769Y203510D01*
X220973Y202019D01*
X220482Y200402D01*
X220317Y198721D01*
X220333D01*
Y192561D01*
X214779D01*
Y198047D01*
X208842D01*
Y189761D01*
X208817Y189567D01*
X208842Y189372D01*
Y181087D01*
X214779D01*
Y186573D01*
X220555D01*
Y185319D01*
X226098D01*
Y188501D01*
X226219Y188792D01*
X226321Y189567D01*
Y197490D01*
X226737Y197768D01*
X226923Y197691D01*
X228257Y197425D01*
X229617D01*
X230951Y197691D01*
X232208Y198211D01*
X233339Y198967D01*
X234301Y199929D01*
X235057Y201060D01*
X235577Y202316D01*
X235842Y203651D01*
Y205011D01*
X235577Y206345D01*
X235057Y207602D01*
X234301Y208733D01*
X233339Y209695D01*
X232208Y210450D01*
X230951Y210971D01*
X229617Y211236D01*
D02*
G37*
G36*
X168594D02*
X167233D01*
X165899Y210971D01*
X164642Y210450D01*
X163511Y209695D01*
X162549Y208733D01*
X161794Y207602D01*
X161273Y206345D01*
X161008Y205011D01*
Y203829D01*
X160746Y203510D01*
X159949Y202019D01*
X159459Y200402D01*
X159293Y198721D01*
X159309D01*
Y192561D01*
X153756D01*
Y198047D01*
X147819D01*
Y189761D01*
X147793Y189567D01*
X147819Y189372D01*
Y181087D01*
X153756D01*
Y186573D01*
X159531D01*
Y185319D01*
X165075D01*
Y188501D01*
X165195Y188792D01*
X165297Y189567D01*
Y197490D01*
X165713Y197768D01*
X165899Y197691D01*
X167233Y197425D01*
X168594D01*
X169928Y197691D01*
X171184Y198211D01*
X172315Y198967D01*
X173277Y199929D01*
X174033Y201060D01*
X174554Y202316D01*
X174819Y203651D01*
Y205011D01*
X174554Y206345D01*
X174033Y207602D01*
X173277Y208733D01*
X172315Y209695D01*
X171184Y210450D01*
X169928Y210971D01*
X168594Y211236D01*
D02*
G37*
G36*
X159563Y248539D02*
X115240D01*
Y209335D01*
X121993D01*
Y198047D01*
X121047D01*
Y181087D01*
X126984D01*
Y198047D01*
X126039D01*
Y209335D01*
X135378D01*
Y198047D01*
X134433D01*
Y181087D01*
X136128D01*
X136335Y180587D01*
X136181Y180432D01*
X135818Y179804D01*
X135630Y179103D01*
Y178377D01*
X135818Y177676D01*
X136181Y177048D01*
X136694Y176535D01*
X137322Y176172D01*
X138023Y175984D01*
X138749D01*
X139450Y176172D01*
X140078Y176535D01*
X140591Y177048D01*
X140600Y177064D01*
X141100Y176930D01*
Y172676D01*
X140600Y172542D01*
X140591Y172558D01*
X140078Y173071D01*
X139450Y173434D01*
X138749Y173622D01*
X138023D01*
X137322Y173434D01*
X136736Y173096D01*
X136431Y173180D01*
X136236Y173261D01*
Y175902D01*
X134208D01*
Y178051D01*
X134161Y178286D01*
X134100Y178749D01*
X133831Y179399D01*
X133403Y179958D01*
X132844Y180386D01*
X132732Y180433D01*
Y181087D01*
X133677D01*
Y198047D01*
X127740D01*
Y181087D01*
X128685D01*
Y179528D01*
X128730Y179305D01*
X128796Y178804D01*
X129075Y178130D01*
X129519Y177551D01*
X130098Y177106D01*
X130162Y177080D01*
Y175902D01*
X120850D01*
X120850Y175902D01*
Y175902D01*
X120350Y175895D01*
X119776Y176595D01*
X119206Y177661D01*
X119073Y178100D01*
X119533Y178560D01*
X119994Y179358D01*
X120232Y180248D01*
Y181169D01*
X119994Y182060D01*
X119533Y182858D01*
X118881Y183509D01*
X118083Y183970D01*
X117193Y184209D01*
X116271D01*
X115381Y183970D01*
X114583Y183509D01*
X113932Y182858D01*
X113471Y182060D01*
X113232Y181169D01*
Y180248D01*
X113471Y179358D01*
X113932Y178560D01*
X114583Y177908D01*
X115006Y177664D01*
X115475Y176115D01*
X116418Y174351D01*
X117687Y172805D01*
X119233Y171537D01*
X120850Y170672D01*
Y167799D01*
X130162D01*
Y146417D01*
X130180Y146325D01*
X130035Y144856D01*
X129580Y143354D01*
X128840Y141970D01*
X127845Y140757D01*
X126632Y139762D01*
X126232Y139548D01*
X125803Y139805D01*
Y147260D01*
X111992D01*
Y125575D01*
X112948D01*
Y124764D01*
X112927D01*
X113124Y122265D01*
X113709Y119829D01*
X114668Y117513D01*
X115977Y115377D01*
X117605Y113471D01*
X119510Y111843D01*
X120675Y111130D01*
X120534Y110630D01*
X120307D01*
X119606Y110442D01*
X118977Y110079D01*
X118464Y109566D01*
X118101Y108938D01*
X117913Y108237D01*
Y107511D01*
X118101Y106810D01*
X118464Y106182D01*
X118977Y105669D01*
X119606Y105306D01*
X120307Y105118D01*
X121032D01*
X121733Y105306D01*
X122361Y105669D01*
X122875Y106182D01*
X123237Y106810D01*
X123425Y107511D01*
Y108237D01*
X123237Y108938D01*
X122937Y109459D01*
X123175Y109811D01*
X123248Y109871D01*
X123962Y109575D01*
X126399Y108990D01*
X128898Y108793D01*
Y108814D01*
X168801D01*
X168946Y108462D01*
X168959Y108314D01*
X168425Y107779D01*
X168023Y107083D01*
X167815Y106307D01*
Y105504D01*
X168023Y104728D01*
X168425Y104032D01*
X168993Y103464D01*
X169688Y103062D01*
X170465Y102854D01*
X171268D01*
X172044Y103062D01*
X172740Y103464D01*
X173308Y104032D01*
X173709Y104728D01*
X173917Y105504D01*
Y106307D01*
X173709Y107083D01*
X173308Y107779D01*
X172773Y108314D01*
X172787Y108462D01*
X172931Y108814D01*
X189660D01*
X189921Y108793D01*
Y108814D01*
X199797D01*
X200085Y108314D01*
X199991Y108150D01*
X199803Y107449D01*
Y106724D01*
X199991Y106023D01*
X200354Y105394D01*
X200867Y104881D01*
X201495Y104518D01*
X202196Y104331D01*
X202922D01*
X203623Y104518D01*
X204251Y104881D01*
X204764Y105394D01*
X205127Y106023D01*
X205315Y106724D01*
Y107449D01*
X205127Y108150D01*
X205033Y108314D01*
X205321Y108814D01*
X237115D01*
X237404Y108314D01*
X237196Y107954D01*
X237008Y107253D01*
Y106527D01*
X237196Y105826D01*
X237559Y105198D01*
X238072Y104684D01*
X238700Y104322D01*
X239401Y104134D01*
X240127D01*
X240827Y104322D01*
X241456Y104684D01*
X241969Y105198D01*
X242332Y105826D01*
X242520Y106527D01*
Y107253D01*
X242332Y107954D01*
X242124Y108314D01*
X242412Y108814D01*
X247420D01*
X247674Y108644D01*
X248931Y108124D01*
X250265Y107858D01*
X251625D01*
X252959Y108124D01*
X254216Y108644D01*
X255347Y109400D01*
X256309Y110362D01*
X257065Y111493D01*
X257585Y112750D01*
X257850Y114084D01*
Y115444D01*
X257585Y116778D01*
X257065Y118035D01*
X256309Y119166D01*
X255347Y120128D01*
X254216Y120883D01*
X252959Y121404D01*
X251625Y121669D01*
X250265D01*
X248931Y121404D01*
X248784Y121343D01*
X248072Y121890D01*
X247426Y122732D01*
X247020Y123712D01*
X246889Y124706D01*
X246895Y124764D01*
Y125575D01*
X247850D01*
Y134725D01*
X248931Y134984D01*
X250674Y135706D01*
X252283Y136692D01*
X253717Y137917D01*
X254942Y139351D01*
X255928Y140960D01*
X256649Y142702D01*
X257090Y144537D01*
X257237Y146402D01*
X257240Y146417D01*
Y167799D01*
X259268D01*
Y175902D01*
X257240D01*
Y177067D01*
X257218Y177176D01*
X257107Y178022D01*
X256738Y178911D01*
X256152Y179675D01*
X255388Y180262D01*
X254779Y180514D01*
Y181087D01*
X255724D01*
Y198047D01*
X249787D01*
Y181087D01*
X250733D01*
Y179528D01*
X250777Y179305D01*
X250843Y178804D01*
X251122Y178130D01*
X251567Y177551D01*
X252146Y177106D01*
X252820Y176827D01*
X253193Y176778D01*
Y175902D01*
X243882D01*
Y173873D01*
X240669D01*
X240596Y173999D01*
X239944Y174651D01*
X239818Y174724D01*
Y186319D01*
X239825D01*
X239645Y187685D01*
X239118Y188958D01*
X238279Y190051D01*
X237319Y190787D01*
Y193815D01*
X231776D01*
Y185319D01*
X235772D01*
Y174845D01*
X226138D01*
Y175750D01*
X219138D01*
Y167950D01*
X226138D01*
Y168856D01*
X235981D01*
X236444Y168589D01*
X237334Y168350D01*
X238256D01*
X239146Y168589D01*
X239944Y169050D01*
X240596Y169701D01*
X240669Y169827D01*
X243882D01*
Y167799D01*
X253193D01*
Y146417D01*
X253212Y146325D01*
X253067Y144856D01*
X252611Y143354D01*
X251872Y141970D01*
X250876Y140757D01*
X249663Y139762D01*
X248350Y139060D01*
X248058Y139158D01*
X247850Y139312D01*
Y147260D01*
X234039D01*
Y125575D01*
X234995D01*
Y124764D01*
X234974D01*
X235171Y122265D01*
X235449Y121106D01*
X235140Y120714D01*
X189819D01*
X188870Y120839D01*
X187890Y121245D01*
X187048Y121890D01*
X186402Y122732D01*
X185996Y123712D01*
X185865Y124706D01*
X185871Y124764D01*
Y125575D01*
X186827D01*
Y134961D01*
X186924Y134984D01*
X188666Y135706D01*
X190275Y136692D01*
X191709Y137917D01*
X192934Y139351D01*
X193920Y140960D01*
X194642Y142702D01*
X195082Y144537D01*
X195229Y146402D01*
X195232Y146417D01*
Y167799D01*
X197260D01*
Y175902D01*
X195232D01*
Y178051D01*
X195185Y178286D01*
X195124Y178749D01*
X194855Y179399D01*
X194426Y179958D01*
X193868Y180386D01*
X193755Y180433D01*
Y181087D01*
X194701D01*
Y198047D01*
X188764D01*
Y181087D01*
X189709D01*
Y179527D01*
X189753Y179305D01*
X189819Y178804D01*
X190099Y178130D01*
X190543Y177551D01*
X191122Y177106D01*
X191185Y177080D01*
Y175902D01*
X181874D01*
Y173873D01*
X179645D01*
X179572Y173999D01*
X178921Y174651D01*
X178795Y174724D01*
Y186319D01*
X178801D01*
X178621Y187685D01*
X178094Y188958D01*
X177255Y190051D01*
X176295Y190787D01*
Y193815D01*
X170752D01*
Y185319D01*
X174749D01*
Y174845D01*
X165114D01*
Y175750D01*
X158114D01*
Y167950D01*
X165114D01*
Y168856D01*
X174958D01*
X175421Y168589D01*
X176311Y168350D01*
X177232D01*
X178123Y168589D01*
X178921Y169050D01*
X179572Y169701D01*
X179645Y169827D01*
X181874D01*
Y167799D01*
X191185D01*
Y146417D01*
X191204Y146325D01*
X191059Y144856D01*
X190604Y143354D01*
X189864Y141970D01*
X188869Y140757D01*
X187656Y139762D01*
X187256Y139548D01*
X186827Y139805D01*
Y147260D01*
X173016D01*
Y135859D01*
X172821Y135779D01*
X172516Y135694D01*
X171930Y136033D01*
X171229Y136221D01*
X170503D01*
X169802Y136033D01*
X169174Y135670D01*
X168661Y135157D01*
X168298Y134528D01*
X168110Y133827D01*
Y133102D01*
X168298Y132401D01*
X168661Y131772D01*
X169174Y131259D01*
X169802Y130896D01*
X170503Y130709D01*
X171229D01*
X171930Y130896D01*
X172516Y131235D01*
X172821Y131150D01*
X173016Y131070D01*
Y125575D01*
X173971D01*
Y124764D01*
X173951D01*
X174147Y122265D01*
X174426Y121106D01*
X174116Y120714D01*
X128898D01*
X128839Y120708D01*
X127846Y120839D01*
X126866Y121245D01*
X126024Y121890D01*
X125379Y122732D01*
X124973Y123712D01*
X124842Y124706D01*
X124848Y124764D01*
Y125575D01*
X125803D01*
Y134961D01*
X125900Y134984D01*
X127643Y135706D01*
X129251Y136692D01*
X130685Y137917D01*
X131911Y139351D01*
X132896Y140960D01*
X133618Y142702D01*
X134058Y144537D01*
X134205Y146402D01*
X134208Y146417D01*
Y167799D01*
X136236D01*
Y168471D01*
X136431Y168552D01*
X136736Y168636D01*
X137322Y168298D01*
X138023Y168110D01*
X138749D01*
X139450Y168298D01*
X140078Y168661D01*
X140591Y169174D01*
X140650Y169275D01*
X141150Y169141D01*
Y167950D01*
X141656D01*
Y146417D01*
X141641D01*
X141801Y144382D01*
X142278Y142397D01*
X143059Y140512D01*
X144125Y138771D01*
X145451Y137219D01*
X147003Y135893D01*
X148744Y134827D01*
X149000Y134721D01*
Y125575D01*
X162811D01*
Y147260D01*
X149000D01*
Y143237D01*
X148500Y143112D01*
X148168Y143733D01*
X147769Y145049D01*
X147638Y146377D01*
X147644Y146417D01*
Y167950D01*
X148150D01*
Y175750D01*
X147089D01*
Y189567D01*
X147063Y189761D01*
Y198047D01*
X141126D01*
Y189761D01*
X141100Y189567D01*
Y180935D01*
X140601Y180685D01*
X140370Y181087D01*
X140370Y181087D01*
X140370Y181087D01*
Y198047D01*
X139425D01*
Y209335D01*
X159563D01*
Y222987D01*
X164389D01*
X164642Y222817D01*
X165899Y222297D01*
X167233Y222031D01*
X168594D01*
X169928Y222297D01*
X171184Y222817D01*
X171438Y222987D01*
X176264D01*
Y209335D01*
X183016D01*
Y198047D01*
X182071D01*
Y181087D01*
X188008D01*
Y198047D01*
X187063D01*
Y209335D01*
X196402D01*
Y198047D01*
X195457D01*
Y181087D01*
X201394D01*
Y198047D01*
X200448D01*
Y209335D01*
X220587D01*
Y222987D01*
X225412D01*
X225666Y222817D01*
X226923Y222297D01*
X228257Y222031D01*
X229617D01*
X230951Y222297D01*
X232208Y222817D01*
X232462Y222987D01*
X237287D01*
Y209335D01*
X244040D01*
Y198047D01*
X243094D01*
Y181087D01*
X249031D01*
Y198047D01*
X248086D01*
Y209335D01*
X257426D01*
Y198047D01*
X256480D01*
Y181087D01*
X262417D01*
Y198047D01*
X261472D01*
Y209335D01*
X279874D01*
X280110Y208894D01*
X279904Y208586D01*
X279383Y207329D01*
X279118Y205995D01*
Y204635D01*
X279383Y203301D01*
X279904Y202044D01*
X280660Y200913D01*
X281622Y199951D01*
X282753Y199195D01*
X284009Y198675D01*
X284998Y198478D01*
Y197949D01*
X283744D01*
Y192956D01*
X283689Y192913D01*
X283059Y192652D01*
X282382Y192563D01*
Y192561D01*
X275803D01*
Y198047D01*
X269866D01*
Y189761D01*
X269841Y189567D01*
X269866Y189372D01*
Y181087D01*
X275803D01*
Y186573D01*
X282382D01*
Y186557D01*
X283374Y186655D01*
X283744Y186319D01*
Y181185D01*
X286953D01*
Y175750D01*
X280161D01*
Y167950D01*
X285478D01*
X285825Y167431D01*
X285991Y166598D01*
X285982Y166535D01*
Y164806D01*
X285715Y164343D01*
X285476Y163453D01*
Y162531D01*
X285715Y161641D01*
X286176Y160843D01*
X286827Y160191D01*
X287625Y159731D01*
X288516Y159492D01*
X289437D01*
X290327Y159731D01*
X291125Y160191D01*
X291777Y160843D01*
X292238Y161641D01*
X292476Y162531D01*
Y163453D01*
X292238Y164343D01*
X291970Y164806D01*
Y166535D01*
X291985D01*
X291825Y168159D01*
X291351Y169721D01*
X291000Y170379D01*
Y181185D01*
X292240D01*
Y186728D01*
X285753D01*
X285681Y187213D01*
X287171Y188010D01*
X288477Y189082D01*
X289549Y190388D01*
X290346Y191878D01*
X290506Y192405D01*
X292240D01*
Y197949D01*
X290986D01*
Y200512D01*
X291388Y200913D01*
X292143Y202044D01*
X292664Y203301D01*
X292929Y204635D01*
Y205995D01*
X292664Y207329D01*
X292143Y208586D01*
X291388Y209717D01*
X290426Y210679D01*
X289295Y211435D01*
X288038Y211955D01*
X286704Y212221D01*
X285344D01*
X284009Y211955D01*
X282753Y211435D01*
X282110Y211005D01*
X281610Y211273D01*
Y248539D01*
X237287D01*
Y234887D01*
X232462D01*
X232208Y235057D01*
X230951Y235577D01*
X229617Y235842D01*
X228257D01*
X226923Y235577D01*
X225666Y235057D01*
X225412Y234887D01*
X220587D01*
Y248539D01*
X176264D01*
Y234887D01*
X171438D01*
X171184Y235057D01*
X169928Y235577D01*
X168594Y235842D01*
X167233D01*
X165899Y235577D01*
X164642Y235057D01*
X164389Y234887D01*
X159563D01*
Y248539D01*
D02*
G37*
G36*
X110369Y192583D02*
X109316D01*
X108299Y192310D01*
X107387Y191783D01*
X106642Y191039D01*
X106115Y190127D01*
X105842Y189109D01*
Y188056D01*
X106115Y187039D01*
X106642Y186127D01*
X107387Y185382D01*
X108299Y184855D01*
X109316Y184583D01*
X110369D01*
X111387Y184855D01*
X112299Y185382D01*
X113043Y186127D01*
X113570Y187039D01*
X113842Y188056D01*
Y189109D01*
X113570Y190127D01*
X113043Y191039D01*
X112299Y191783D01*
X111387Y192310D01*
X110369Y192583D01*
D02*
G37*
G36*
X170245Y182480D02*
X169519D01*
X168818Y182292D01*
X168190Y181930D01*
X167677Y181417D01*
X167314Y180788D01*
X167188Y180318D01*
X166670D01*
X166544Y180788D01*
X166182Y181417D01*
X165668Y181930D01*
X165040Y182292D01*
X164339Y182480D01*
X163614D01*
X162913Y182292D01*
X162284Y181930D01*
X161771Y181417D01*
X161408Y180788D01*
X161221Y180087D01*
Y179362D01*
X161408Y178661D01*
X161771Y178032D01*
X162284Y177519D01*
X162913Y177156D01*
X163614Y176969D01*
X164339D01*
X165040Y177156D01*
X165668Y177519D01*
X166182Y178032D01*
X166544Y178661D01*
X166670Y179130D01*
X167188D01*
X167314Y178661D01*
X167677Y178032D01*
X168190Y177519D01*
X168818Y177156D01*
X169519Y176969D01*
X170245D01*
X170946Y177156D01*
X171574Y177519D01*
X172087Y178032D01*
X172450Y178661D01*
X172638Y179362D01*
Y180087D01*
X172450Y180788D01*
X172087Y181417D01*
X171574Y181930D01*
X170946Y182292D01*
X170245Y182480D01*
D02*
G37*
G36*
X185993Y166732D02*
X185267D01*
X184566Y166544D01*
X183938Y166182D01*
X183425Y165668D01*
X183062Y165040D01*
X182874Y164339D01*
Y163614D01*
X183062Y162913D01*
X183425Y162284D01*
X183938Y161771D01*
X184566Y161408D01*
X185267Y161221D01*
X185993D01*
X186694Y161408D01*
X187322Y161771D01*
X187835Y162284D01*
X188198Y162913D01*
X188386Y163614D01*
Y164339D01*
X188198Y165040D01*
X187835Y165668D01*
X187322Y166182D01*
X186694Y166544D01*
X185993Y166732D01*
D02*
G37*
G36*
X178119D02*
X177393D01*
X176692Y166544D01*
X176064Y166182D01*
X175551Y165668D01*
X175188Y165040D01*
X175000Y164339D01*
Y163614D01*
X175188Y162913D01*
X175551Y162284D01*
X176064Y161771D01*
X176692Y161408D01*
X177393Y161221D01*
X178119D01*
X178820Y161408D01*
X179448Y161771D01*
X179961Y162284D01*
X180324Y162913D01*
X180512Y163614D01*
Y164339D01*
X180324Y165040D01*
X179961Y165668D01*
X179448Y166182D01*
X178820Y166544D01*
X178119Y166732D01*
D02*
G37*
G36*
X171229D02*
X170503D01*
X169802Y166544D01*
X169174Y166182D01*
X168661Y165668D01*
X168298Y165040D01*
X168110Y164339D01*
Y163614D01*
X168298Y162913D01*
X168661Y162284D01*
X169174Y161771D01*
X169802Y161408D01*
X170503Y161221D01*
X171229D01*
X171930Y161408D01*
X172558Y161771D01*
X173071Y162284D01*
X173434Y162913D01*
X173622Y163614D01*
Y164339D01*
X173434Y165040D01*
X173071Y165668D01*
X172558Y166182D01*
X171930Y166544D01*
X171229Y166732D01*
D02*
G37*
G36*
X164378Y167027D02*
X163575D01*
X162799Y166820D01*
X162103Y166418D01*
X161535Y165850D01*
X161133Y165154D01*
X160925Y164378D01*
Y163575D01*
X161133Y162799D01*
X161535Y162103D01*
X162103Y161535D01*
X162799Y161133D01*
X163575Y160925D01*
X164378D01*
X165154Y161133D01*
X165850Y161535D01*
X166418Y162103D01*
X166820Y162799D01*
X167027Y163575D01*
Y164378D01*
X166820Y165154D01*
X166418Y165850D01*
X165850Y166418D01*
X165154Y166820D01*
X164378Y167027D01*
D02*
G37*
G36*
X229617Y162024D02*
X228257D01*
X226923Y161758D01*
X225666Y161238D01*
X224535Y160482D01*
X223573Y159520D01*
X222817Y158389D01*
X222297Y157132D01*
X222031Y155798D01*
Y154438D01*
X222297Y153104D01*
X222817Y151847D01*
X223573Y150716D01*
X224535Y149754D01*
X225666Y148998D01*
X226923Y148478D01*
X228257Y148213D01*
X229617D01*
X230951Y148478D01*
X232208Y148998D01*
X233339Y149754D01*
X234301Y150716D01*
X235057Y151847D01*
X235577Y153104D01*
X235842Y154438D01*
Y155798D01*
X235577Y157132D01*
X235057Y158389D01*
X234301Y159520D01*
X233339Y160482D01*
X232208Y161238D01*
X230951Y161758D01*
X229617Y162024D01*
D02*
G37*
G36*
X292914Y151969D02*
X291929D01*
X290978Y151714D01*
X290125Y151221D01*
X289428Y150525D01*
X288936Y149672D01*
X288681Y148721D01*
Y147736D01*
X288936Y146785D01*
X289428Y145932D01*
X290125Y145236D01*
X290978Y144743D01*
X291929Y144488D01*
X292914D01*
X293865Y144743D01*
X294718Y145236D01*
X295414Y145932D01*
X295906Y146785D01*
X296161Y147736D01*
Y148721D01*
X295906Y149672D01*
X295414Y150525D01*
X294718Y151221D01*
X293865Y151714D01*
X292914Y151969D01*
D02*
G37*
G36*
Y140157D02*
X291929D01*
X290978Y139903D01*
X290125Y139410D01*
X289428Y138714D01*
X288936Y137861D01*
X288681Y136910D01*
Y135925D01*
X288936Y134974D01*
X289428Y134121D01*
X290125Y133424D01*
X290978Y132932D01*
X291929Y132677D01*
X292914D01*
X293865Y132932D01*
X294718Y133424D01*
X295414Y134121D01*
X295906Y134974D01*
X296161Y135925D01*
Y136910D01*
X295906Y137861D01*
X295414Y138714D01*
X294718Y139410D01*
X293865Y139903D01*
X292914Y140157D01*
D02*
G37*
G36*
X106268Y135236D02*
X105543D01*
X104842Y135048D01*
X104213Y134686D01*
X103700Y134172D01*
X103337Y133544D01*
X103150Y132843D01*
Y132117D01*
X103337Y131417D01*
X103700Y130788D01*
X104213Y130275D01*
X104842Y129912D01*
X105543Y129724D01*
X106268D01*
X106969Y129912D01*
X107598Y130275D01*
X108111Y130788D01*
X108474Y131417D01*
X108661Y132117D01*
Y132843D01*
X108474Y133544D01*
X108111Y134172D01*
X107598Y134686D01*
X106969Y135048D01*
X106268Y135236D01*
D02*
G37*
G36*
X269110Y198047D02*
X263173D01*
Y189761D01*
X263148Y189567D01*
Y172406D01*
X263143D01*
X263197Y171995D01*
Y167950D01*
X263703D01*
Y146417D01*
X263688D01*
X263848Y144382D01*
X264325Y142397D01*
X265106Y140512D01*
X266173Y138771D01*
X267498Y137219D01*
X269051Y135893D01*
X270791Y134827D01*
X271047Y134721D01*
Y125575D01*
X284858D01*
Y147260D01*
X271047D01*
Y143237D01*
X270547Y143112D01*
X270216Y143733D01*
X269816Y145049D01*
X269686Y146377D01*
X269691Y146417D01*
Y167950D01*
X270197D01*
Y175750D01*
X269136D01*
Y189567D01*
X269110Y189761D01*
Y198047D01*
D02*
G37*
G36*
X208087D02*
X202150D01*
Y189761D01*
X202124Y189567D01*
Y172406D01*
X202173Y172032D01*
Y167950D01*
X202679D01*
Y146417D01*
X202665D01*
X202825Y144382D01*
X203301Y142397D01*
X204082Y140512D01*
X205149Y138771D01*
X206475Y137219D01*
X208027Y135893D01*
X209768Y134827D01*
X210024Y134721D01*
Y125575D01*
X223835D01*
Y147260D01*
X210024D01*
Y143237D01*
X209524Y143112D01*
X209192Y143733D01*
X208793Y145049D01*
X208662Y146377D01*
X208667Y146417D01*
Y167950D01*
X209173D01*
Y175750D01*
X208112D01*
Y189567D01*
X208087Y189761D01*
Y198047D01*
D02*
G37*
G36*
X292292Y120472D02*
X291566D01*
X290865Y120285D01*
X290237Y119922D01*
X289724Y119409D01*
X289361Y118780D01*
X289173Y118079D01*
Y117354D01*
X289361Y116653D01*
X289724Y116024D01*
X290237Y115511D01*
X290865Y115148D01*
X291566Y114961D01*
X292292D01*
X292993Y115148D01*
X293621Y115511D01*
X294134Y116024D01*
X294497Y116653D01*
X294685Y117354D01*
Y118079D01*
X294497Y118780D01*
X294134Y119409D01*
X293621Y119922D01*
X292993Y120285D01*
X292292Y120472D01*
D02*
G37*
G36*
X287590Y115748D02*
X286426D01*
X285285Y115521D01*
X284211Y115076D01*
X283243Y114430D01*
X282421Y113607D01*
X281774Y112640D01*
X281329Y111565D01*
X281102Y110424D01*
Y109261D01*
X281329Y108120D01*
X281774Y107045D01*
X282421Y106078D01*
X283243Y105255D01*
X284211Y104609D01*
X285285Y104164D01*
X286426Y103937D01*
X287590D01*
X288730Y104164D01*
X289805Y104609D01*
X290772Y105255D01*
X291595Y106078D01*
X292241Y107045D01*
X292686Y108120D01*
X292913Y109261D01*
Y110424D01*
X292686Y111565D01*
X292241Y112640D01*
X291595Y113607D01*
X290772Y114430D01*
X289805Y115076D01*
X288730Y115521D01*
X287590Y115748D01*
D02*
G37*
G36*
X110424D02*
X109261D01*
X108120Y115521D01*
X107045Y115076D01*
X106078Y114430D01*
X105255Y113607D01*
X104609Y112640D01*
X104164Y111565D01*
X103937Y110424D01*
Y109261D01*
X104164Y108120D01*
X104609Y107045D01*
X105255Y106078D01*
X106078Y105255D01*
X107045Y104609D01*
X108120Y104164D01*
X109261Y103937D01*
X110424D01*
X111565Y104164D01*
X112640Y104609D01*
X113607Y105255D01*
X114430Y106078D01*
X115076Y107045D01*
X115521Y108120D01*
X115748Y109261D01*
Y110424D01*
X115521Y111565D01*
X115076Y112640D01*
X114430Y113607D01*
X113607Y114430D01*
X112640Y115076D01*
X111565Y115521D01*
X110424Y115748D01*
D02*
G37*
G36*
X162863Y108169D02*
X162137D01*
X161436Y107982D01*
X160808Y107619D01*
X160295Y107106D01*
X159932Y106477D01*
X159744Y105776D01*
Y105051D01*
X159932Y104350D01*
X160295Y103721D01*
X160808Y103208D01*
X161436Y102845D01*
X162137Y102657D01*
X162863D01*
X163564Y102845D01*
X164192Y103208D01*
X164705Y103721D01*
X165068Y104350D01*
X165256Y105051D01*
Y105776D01*
X165068Y106477D01*
X164705Y107106D01*
X164192Y107619D01*
X163564Y107982D01*
X162863Y108169D01*
D02*
G37*
%LPD*%
D10*
X117717Y282087D02*
X122638Y277165D01*
X117717Y282087D02*
Y283465D01*
X123622Y261417D02*
X126575Y264370D01*
Y276181D01*
X108583Y289449D02*
X109685Y290551D01*
X117717D01*
X141496Y290551D02*
X142598Y289449D01*
X133465Y290551D02*
X141496D01*
X133465Y263386D02*
Y283465D01*
Y263386D02*
X136417Y260433D01*
X129528Y261417D02*
X132480Y258465D01*
X123622Y261417D02*
X129528D01*
D64*
X240945Y124764D02*
G03*
X250945Y114764I10000J0D01*
G01*
X179921Y124764D02*
G03*
X189921Y114764I10000J0D01*
G01*
X118898Y124764D02*
G03*
X128898Y114764I10000J0D01*
G01*
X189921D02*
X250945D01*
X240945Y124764D02*
Y136417D01*
X128898Y114764D02*
X189921D01*
X118898Y124764D02*
Y136417D01*
X179921Y124764D02*
Y136417D01*
X198425Y228937D02*
X256063D01*
X167913Y228937D02*
X198425D01*
X137402D02*
X167913D01*
D66*
X142598Y268347D02*
D03*
X108583D02*
D03*
D67*
Y289449D02*
D03*
X142598D02*
D03*
D68*
X292421Y148228D02*
D03*
Y136417D02*
D03*
D69*
X109843Y188583D02*
D03*
Y198425D02*
D03*
Y208268D02*
D03*
D70*
X239567Y274213D02*
D03*
D71*
X258465Y287008D02*
D03*
D72*
Y262402D02*
D03*
D73*
X200394Y257480D02*
D03*
X220079D02*
D03*
Y277165D02*
D03*
X200394D02*
D03*
X159055Y257480D02*
D03*
X178740D02*
D03*
Y277165D02*
D03*
X159055D02*
D03*
X110827Y254528D02*
D03*
X109843Y109843D02*
D03*
X287008D02*
D03*
Y287008D02*
D03*
D74*
X163976Y163976D02*
D03*
X170866Y105905D02*
D03*
D75*
Y163976D02*
D03*
X177756D02*
D03*
X185630D02*
D03*
X239764Y106890D02*
D03*
X169882Y179724D02*
D03*
X163976D02*
D03*
X138386Y178740D02*
D03*
Y170866D02*
D03*
X105905Y132480D02*
D03*
X120669Y107874D02*
D03*
X162500Y105413D02*
D03*
X170866Y133465D02*
D03*
X202559Y107087D02*
D03*
X291929Y117717D02*
D03*
X122638Y277165D02*
D03*
X126575Y276181D02*
D03*
X136417Y260433D02*
D03*
X123622Y261417D02*
D03*
X132480Y258465D02*
D03*
D76*
X130512Y204331D02*
D03*
X108858Y225984D02*
D03*
D77*
X109843Y242717D02*
D03*
X116732Y180709D02*
D03*
X176772Y171850D02*
D03*
X237795D02*
D03*
X288976Y162992D02*
D03*
D78*
X228937Y155118D02*
D03*
X250945Y114764D02*
D03*
X228937Y204331D02*
D03*
X167913D02*
D03*
Y228937D02*
D03*
X228937D02*
D03*
X286024Y205315D02*
D03*
D89*
X134016Y228937D02*
G03*
X124016Y218937I0J-10000D01*
G01*
X116732Y180020D02*
G03*
X124902Y171850I8169J0D01*
G01*
X252756Y179528D02*
G03*
X253543Y178740I787J0D01*
G01*
X255217Y177067D02*
G03*
X253543Y178740I-1673J0D01*
G01*
X191732Y179527D02*
G03*
X192520Y178740I787J0D01*
G01*
X193209Y178051D02*
G03*
X192520Y178740I-689J0D01*
G01*
X245216Y136417D02*
G03*
X255217Y146417I0J10000D01*
G01*
X132185Y178051D02*
G03*
X131496Y178740I-689J0D01*
G01*
X130709Y179528D02*
G03*
X131496Y178740I787J0D01*
G01*
X122185Y136417D02*
G03*
X132185Y146417I0J10000D01*
G01*
X183209Y136417D02*
G03*
X193209Y146417I0J10000D01*
G01*
X237795Y186319D02*
G03*
X234547Y189567I-3248J0D01*
G01*
X176772Y186319D02*
G03*
X173524Y189567I-3248J0D01*
G01*
X288976Y182972D02*
G03*
X287992Y183957I-984J0D01*
G01*
X256063Y228937D02*
G03*
X246063Y218937I0J-10000D01*
G01*
X195039Y228937D02*
G03*
X185039Y218937I0J-10000D01*
G01*
X205118Y172406D02*
G03*
X205673Y171850I555J0D01*
G01*
X134016Y228937D02*
X137402D01*
X215673Y136417D02*
X216929D01*
X116732Y180020D02*
Y180709D01*
X255217Y171850D02*
Y177067D01*
X252756Y179528D02*
Y189567D01*
X191732Y179527D02*
Y189567D01*
X193209Y171850D02*
Y178051D01*
X240945Y136417D02*
X245216D01*
X132185Y171850D02*
Y178051D01*
X179921Y136417D02*
X183209D01*
X130709Y179528D02*
Y189567D01*
X118898Y136417D02*
X122185D01*
X154650D02*
X155905D01*
X237795Y171850D02*
Y186319D01*
X176772Y171850D02*
Y186319D01*
X288976Y166535D02*
Y182972D01*
X176772Y171850D02*
X185925D01*
X256063Y228937D02*
X259449D01*
X195039D02*
X198425D01*
X185039Y189567D02*
Y218937D01*
X124016Y189567D02*
Y218937D01*
X246063Y189567D02*
Y218937D01*
X237795Y171850D02*
X247933D01*
X185925D02*
X186909D01*
X198425Y228937D02*
Y228937D01*
Y189567D02*
Y228937D01*
X137402Y189567D02*
Y228937D01*
X255217Y146417D02*
Y171850D01*
X276697Y136417D02*
X277953D01*
X132185Y146417D02*
Y171850D01*
X193209Y146417D02*
Y171850D01*
X259449Y189567D02*
Y228937D01*
D94*
X288976Y166535D02*
G03*
X283661Y171850I-5315J0D01*
G01*
X266142Y172406D02*
G03*
X266697Y171850I555J0D01*
G01*
X144095Y172406D02*
G03*
X144650Y171850I555J0D01*
G01*
X282382Y189567D02*
G03*
X287992Y195177I0J5610D01*
G01*
Y203346D02*
G03*
X286024Y205315I-1969J0D01*
G01*
X167913Y204331D02*
G03*
X162303Y198721I0J-5610D01*
G01*
X228937Y204331D02*
G03*
X223327Y198721I0J-5610D01*
G01*
X266697Y146417D02*
G03*
X276697Y136417I10000J0D01*
G01*
X144650Y146417D02*
G03*
X154650Y136417I10000J0D01*
G01*
X205673Y146417D02*
G03*
X215673Y136417I10000J0D01*
G01*
X288976Y162992D02*
Y166535D01*
X266697Y146417D02*
Y171850D01*
X266142Y172406D02*
Y189567D01*
X144650Y146417D02*
Y171850D01*
X144095Y172406D02*
Y189567D01*
X287992Y195177D02*
Y203346D01*
X272835Y189567D02*
X282382D01*
X162303Y189567D02*
Y198721D01*
X223327Y189567D02*
Y198721D01*
X161614Y171850D02*
X176772D01*
X222638D02*
X237795D01*
X150787Y189567D02*
X162303D01*
X211811D02*
X223327D01*
X205118Y172406D02*
Y189567D01*
X205673Y146417D02*
Y171850D01*
D95*
X161614D02*
D03*
X144650D02*
D03*
X222638D02*
D03*
X205673D02*
D03*
X283661D02*
D03*
X266697D02*
D03*
D96*
X132185D02*
D03*
X124902D02*
D03*
X193209D02*
D03*
X185925D02*
D03*
X255217D02*
D03*
X247933D02*
D03*
D97*
X173524Y189567D02*
D03*
X162303D02*
D03*
X234547D02*
D03*
X223327D02*
D03*
D98*
X287992Y183957D02*
D03*
Y195177D02*
D03*
D99*
X155905Y136417D02*
D03*
X118898D02*
D03*
X179921D02*
D03*
X216929D02*
D03*
X277953D02*
D03*
X240945D02*
D03*
D100*
X133465Y290551D02*
D03*
Y283465D02*
D03*
X117717Y283465D02*
D03*
Y290551D02*
D03*
D101*
X137402Y228937D02*
D03*
X198425Y228937D02*
D03*
X259449D02*
D03*
D102*
X150787Y189567D02*
D03*
X144095D02*
D03*
X137402D02*
D03*
X130709D02*
D03*
X124016D02*
D03*
X211811Y189567D02*
D03*
X205118D02*
D03*
X198425D02*
D03*
X191732D02*
D03*
X185039D02*
D03*
X272835D02*
D03*
X266142D02*
D03*
X259449D02*
D03*
X252756D02*
D03*
X246063D02*
D03*
M02*
